<?xml version="1.0" encoding="utf-8"?>
<!-- Generator: Adobe Illustrator 16.0.0, SVG Export Plug-In . SVG Version: 6.00 Build 0)  -->
<!DOCTYPE svg PUBLIC "-//W3C//DTD SVG 1.1//EN" "http://www.w3.org/Graphics/SVG/1.1/DTD/svg11.dtd">
<svg version="1.1" id="Capa_1" xmlns="http://www.w3.org/2000/svg" xmlns:xlink="http://www.w3.org/1999/xlink" x="0px" y="0px"
	 width="388.353px" height="451.478px" viewBox="0 0 388.353 451.478" enable-background="new 0 0 388.353 451.478"
	 xml:space="preserve">
<polygon fill-rule="evenodd" clip-rule="evenodd" fill="#3A3A3A" points="99.283,103.567 99.749,105.265 101.052,105.554 
	102.543,105.662 104.085,106.968 105.958,107.229 105.81,108.085 106.95,108.557 108.1,109.366 109.799,109.977 110.228,111.158 
	111.716,111.267 112.337,112.608 112.625,114.487 111.749,115.379 110.087,115.448 108.269,116.046 107.767,117.094 
	109.289,117.886 108.992,119.275 109.442,120.796 109.885,122.146 109.962,123.513 110.383,124.53 112.229,124.443 113.184,125.089 
	112.889,126.478 114.564,126.75 116.373,125.98 118.113,123.856 118.369,125.212 120.2,124.965 121.526,125.585 122.32,126.416 
	123.81,126.688 124.049,127.713 124.111,128.907 125.242,129.38 124.748,130.419 123.133,131.353 122.055,132.081 121.201,133.322 
	120.525,134.548 118.85,134.277 117.414,135.031 115.932,135.093 114.078,135 112.602,135.06 112.283,136.103 112.36,137.476 
	110.708,137.715 110.025,138.778 108.62,140.205 106.456,141.155 106.362,142.876 105.104,143.614 103.592,142.994 101.76,143.249 
	100.967,145.857 99.974,147.954 97.25,152.361 83.599,152.95 82.39,151.112 80.603,148.783 80.128,146.921 79.608,144.026 
	80.042,141.783 80.657,139.352 81.852,137.413 81.929,135.526 82.364,133.106 83.877,130.294 85.112,129.218 86.533,128.123 
	87.006,126.563 87.082,124.499 87.023,123.304 85.5,122.511 83.783,121.558 82.606,120.238 82.13,118.367 81.125,116.699 
	82.193,115.97 82.49,114.581 84.109,113.827 84.59,112.437 85.483,111.709 86.898,110.451 86.803,108.737 88.223,107.649 
	89.287,106.741 89.397,105.366 91.01,104.436 92.46,103.862 93.735,103.466 95.93,103.024 97.778,103.116 "/>
<polygon fill-rule="evenodd" clip-rule="evenodd" fill="#7F7F7F" points="147.255,153.983 147.341,155.691 147.984,157.204 
	148.962,158.359 148.473,159.587 147.248,160.835 145.407,161.084 144.918,162.31 143.653,162.876 142.825,164.624 141.784,166.043 
	140.146,166.46 138.708,167.207 138.228,168.597 136.209,168.854 135.521,169.916 135.032,171.135 135.319,173.014 135.574,174.371 
	134.512,175.279 133.665,176.683 131.887,178.128 130.692,179.897 130.195,181.116 131.01,182.458 131.941,182.591 132.02,184.126 
	131.33,185.012 130.84,186.231 129.97,187.303 130.234,188.83 130.508,190.366 129.009,190.088 127.738,190.484 126.508,191.742 
	124.817,191.298 122.948,190.863 121.503,191.438 119.524,192.548 118.083,193.13 117.957,194.333 116.924,195.751 114.564,196.707 
	113.526,197.958 112.005,197.158 110.725,193.96 109.707,192.114 108.449,192.859 106.991,193.262 106.004,192.104 103.956,191.849 
	104.405,193.372 104.88,195.24 103.659,196.661 102.341,196.203 100.875,196.443 99.803,197.172 98.905,197.725 97.443,197.965 
	95.045,198.066 93.525,197.273 93.285,196.256 92.5,195.434 91.872,194.085 91.971,192.54 91.171,191.376 90.17,189.87 
	90.995,187.954 91.289,186.564 90.677,185.392 88.288,185.672 87.27,183.996 87.54,182.095 86.929,180.922 84.537,181.194 
	81.604,181.666 79.409,182.101 77.008,182.209 75.311,181.598 74.665,179.906 73.332,179.104 73.252,177.741 73.175,176.205 
	73.656,174.807 72.507,173.999 71.15,172.858 70.7,171.335 69.565,170.863 69.302,169.334 68.129,168.185 68.07,166.99 
	70.962,165.834 72.398,165.08 72.128,163.382 72.048,161.846 74.432,161.393 76.29,161.658 77.793,162.117 79.446,161.869 
	80.222,159.09 79.741,157.056 78.925,155.545 77.389,154.412 75.519,154.152 71.383,149.356 64.646,144.328 63.255,142.505 
	64.148,141.774 65.57,140.687 66.028,138.958 66.145,137.577 67.959,136.986 68.752,137.978 68.44,139.019 68.852,139.864 
	71.096,140.278 72.717,139.524 73.354,137.607 73.05,135.396 72.973,133.852 72.143,132.174 72.421,130.445 72.686,128.55 
	71.102,126.553 69.403,125.777 67.658,124.313 68.705,123.062 70.343,122.651 72.734,122.372 74.037,122.488 74.338,121.278 
	75.581,120.361 77.197,119.27 78.624,118.351 80.051,117.428 81.125,116.699 82.13,118.367 82.606,120.238 83.783,121.558 
	85.5,122.511 87.023,123.304 87.082,124.499 87.006,126.563 86.533,128.123 85.112,129.218 83.877,130.294 82.364,133.106 
	81.929,135.526 81.852,137.413 80.657,139.352 80.042,141.783 79.608,144.026 80.128,146.921 80.603,148.783 82.39,151.112 
	83.599,152.95 97.25,152.361 99.974,147.954 100.967,145.857 101.76,143.249 103.592,142.994 105.104,143.614 106.362,142.876 
	106.456,141.155 108.62,140.205 110.025,138.778 110.708,137.715 112.36,137.476 112.283,136.103 112.602,135.06 114.078,135 
	115.932,135.093 117.414,135.031 118.85,134.277 120.525,134.548 121.201,133.322 122.055,132.081 123.133,131.353 125.817,133.291 
	127.721,134.237 129.449,135.535 130.826,137.025 131.104,138.725 131.01,140.618 131.98,141.432 133.144,142.402 132.293,143.816 
	130.477,144.413 130.365,145.788 130.055,146.998 129.771,148.559 130.4,149.9 131.182,150.724 132.523,151.692 133.772,150.787 
	134.256,149.396 134.93,148.161 136.304,149.645 135.985,150.692 134.768,152.111 135.382,153.284 134.894,154.502 135.343,156.031 
	135.962,157.204 136.047,158.919 137.375,159.548 139.052,159.649 145.765,153.865 146.974,152.274 "/>
<polygon fill-rule="evenodd" clip-rule="evenodd" fill="#565656" points="110.613,216.428 108.813,217.36 107.323,217.08 
	105.639,216.646 103.615,216.73 102.141,216.964 102.56,217.802 100.566,218.579 99.283,218.802 98.586,219.688 99.034,221.208 
	99.121,222.754 99.929,224.089 100.913,225.247 100.449,226.813 101.107,228.84 101.199,230.555 101.823,231.896 103.328,232.346 
	103.426,230.802 104.095,229.397 105.096,227.302 106.276,225.191 106.199,223.817 106.486,222.264 107.891,220.83 109.482,219.393 
	110.927,218.648 111.779,217.407 "/>
<polygon fill-rule="evenodd" clip-rule="evenodd" fill="#3A3A3A" points="170.912,227.209 169.405,226.759 168.063,225.789 
	166.168,225.012 164.298,224.577 163.242,225.478 161.792,226.052 160.315,226.123 159.098,224.112 158.617,221.908 
	156.877,220.603 155.016,220.346 153.595,221.435 152.765,223.188 153.416,225.042 154.619,226.882 153.937,227.937 152.5,228.684 
	151.624,229.575 149.809,230.343 147.597,230.443 146.556,231.685 144.568,232.456 142.731,232.711 140.316,236.071 
	138.974,238.534 137.933,239.944 136.887,241.024 135.792,241.411 135.553,240.394 135.271,238.514 133.938,237.718 
	135.101,235.265 134.288,233.929 133.83,232.239 135.055,230.981 135.155,229.257 134.347,228.094 133.175,226.945 131.911,227.521 
	130.652,228.256 128.994,228.146 128.007,227 126.503,226.549 125.269,224.199 125.926,222.629 126.37,220.548 126.137,219.705 
	126.23,217.98 126.137,216.274 126.432,214.722 127.074,212.975 126.634,211.624 127.114,210.228 127.985,209.165 127.721,207.627 
	128.412,206.743 127.977,205.563 127.721,204.205 127.635,202.489 127.029,201.55 127.931,201.108 129.305,199.161 129.203,197.282 
	130.055,195.87 129.763,193.829 130.047,192.268 130.508,190.366 131.972,190.134 133.233,189.561 134.566,190.189 135.838,189.793 
	136.715,188.899 137.615,188.512 138.422,189.684 139.09,191.881 138.22,192.944 139.221,194.45 140.029,195.613 140.447,196.624 
	141.938,196.73 143.993,197.158 144.423,198.337 145.945,199.13 147.751,198.37 149.164,197.103 149.645,195.714 150.731,195.326 
	151.601,194.255 152.415,195.599 153.76,196.566 156.365,196.97 156.994,198.314 157.079,199.851 158.051,200.844 159.571,201.628 
	159.665,203.343 160.697,205.362 161.14,206.712 160.279,207.948 159.26,209.708 160.401,210.345 162.622,210.25 163.601,211.406 
	163.499,212.953 165.168,213.054 165.781,214.223 167.263,214.161 168.449,215.653 171.052,215.885 172.076,214.302 "/>
<polygon fill-rule="evenodd" clip-rule="evenodd" fill="#C6C6C6" points="188.053,177.259 188.505,175.35 189.902,173.753 
	192.213,172.104 194.185,170.824 195.203,169.063 195.095,167.177 199.557,157.041 201.972,157.282 203.034,156.381 204.486,155.8 
	206.022,156.933 207.83,156.171 209.164,156.97 211.533,156.186 213.603,156.956 215.282,157.219 216.733,156.644 218.052,157.102 
	220.426,156.661 221.768,157.458 223.453,157.902 224.889,157.15 226.348,156.746 227.42,156.016 228.685,155.444 230.71,155.185 
	231.865,156.164 232.341,154.604 233.867,155.566 235.514,155.154 236.686,156.303 238.184,156.746 240.232,157.001 
	241.771,158.134 243.245,158.072 244.5,157.335 247.266,157.219 265.706,177.172 264.875,178.927 263.399,178.989 262.524,179.881 
	259.93,179.818 257.896,179.906 256.375,179.113 254.165,179.214 253.559,178.213 252.029,177.413 250.562,177.475 249.757,176.32 
	248.585,175.161 246.125,174.076 244.105,174.333 241.103,173.432 239.303,174.365 237.162,175.83 235.097,175.232 233.466,175.985 
	230.663,175.425 227.738,175.891 225.673,175.465 223.624,175.038 221.822,175.969 219.528,174.527 217.724,175.465 
	215.731,176.234 213.877,176.141 212.449,177.063 210.042,176.995 208.527,176.382 206.317,176.467 204.688,177.227 
	203.027,177.296 202.344,178.182 199.936,178.29 198.3,178.7 196.321,179.818 194.706,180.742 193.735,179.757 192.447,179.982 
	191.648,178.818 191.392,177.461 189.893,177.003 "/>
<polygon fill-rule="evenodd" clip-rule="evenodd" fill="#FFFFFF" points="313.32,224.603 314.072,226.03 314.143,227.277 
	315.104,228.491 316.27,229.266 318.022,228.358 319,229.784 318.2,230.443 318.511,232.099 318.79,233.132 319.713,233.504 
	319.808,235.38 320.962,235.964 321.236,236.785 322.841,237.336 323.129,238.587 322.515,239.659 321.416,240.115 321.025,241.386 
	319.498,242.287 317.936,242.562 308.571,252.571 309.959,253.341 311.278,252.875 312.465,253.859 314.435,252.944 
	314.933,253.759 316.05,253.713 316.782,254.721 316.881,256.593 317.82,257.391 319.125,256.499 319.412,257.541 320.567,258.316 
	321.702,258.27 322.447,259.696 323.852,260.682 325.473,261.45 325.528,262.489 326.909,263.058 327.879,264.477 327.491,265.742 
	328.243,266.961 328.516,268 328.826,269.654 330.572,268.536 330.649,269.995 331.38,271.004 331.007,272.487 330.392,273.761 
	332.055,275.367 332.567,276.392 333.491,276.972 333.558,278.223 333.622,279.472 335.245,280.233 335.299,281.281 336.004,281.87 
	335.617,283.143 336.377,284.571 337.565,285.772 337.23,288.08 338.612,288.645 339.568,289.657 338.519,291.16 339.542,293.41 
	337.509,293.296 335.507,293.792 333.257,293.691 332.956,292.24 332.637,290.578 333.203,288.467 332.387,285.792 330.704,283.773 
	330.361,281.7 329.548,279.014 327.227,277.666 326.011,275.832 324.952,272.953 323.944,270.911 321.864,269.957 319.642,270.468 
	317.711,272.223 315.539,273.774 312.829,277.345 311.005,277.764 309.399,278.866 309.874,280.737 310.727,281.544 
	308.858,281.287 307.337,280.503 306.521,278.992 305.874,277.299 304.542,276.5 303.074,276.731 301.865,278.332 301.381,279.721 
	302.327,280.203 302.57,281.218 304.106,282.35 270.407,283.633 268.553,283.539 267.413,282.901 265.922,282.623 264.674,283.531 
	263.013,283.601 261.165,283.688 260.473,284.571 258.999,284.633 258.036,283.818 257.083,283.345 255.064,283.601 
	253.565,283.323 252.379,281.831 251.401,280.845 250.073,280.216 250.198,279.014 251.27,278.283 251.393,277.081 251.315,275.701 
	251.989,274.482 253.604,273.55 254.467,272.31 254.022,270.959 253.084,270.655 251.836,271.571 250.699,271.1 249.646,272.006 
	247.778,271.742 246.899,272.644 243.509,271.407 242.112,272.844 241.117,271.688 239.613,271.066 238.316,271.122 
	237.656,269.088 236.856,267.924 236.048,266.759 234.706,265.789 233.216,265.682 232.07,264.873 240.636,259.015 242.063,258.098 
	243.895,257.671 244.919,256.089 246.558,255.677 246.853,254.122 246.62,253.271 247.504,252.548 246.517,251.391 247.553,249.979 
	248.801,249.063 250.283,249.172 250.036,247.979 250.539,247.101 249.375,245.952 250.601,244.692 252.078,244.631 
	253.133,243.562 254.116,244.719 255.383,244.151 254.941,242.8 256.438,243.25 257.136,242.357 257.262,241.325 258.371,241.273 
	259.044,240.046 260.35,240.163 260.49,239.3 262.545,239.728 264.005,239.495 264.137,238.454 264.238,236.905 265.138,236.359 
	266.294,237.336 267.341,236.087 268.863,236.88 270.523,236.809 272.324,235.876 273.124,237.042 274.389,236.476 274.995,237.477 
	276.252,236.733 277.58,237.367 278.627,236.292 280.288,236.211 282.136,236.135 283.191,235.071 284.485,235.179 284.978,233.962 
	287.024,234.21 288.282,233.473 293.395,233.597 292.955,232.245 294.963,231.819 296.034,231.083 295.972,229.885 297.821,229.811 
	298.138,228.932 299.231,228.544 300.708,228.481 301.964,227.916 303.283,228.202 304.587,228.491 306.241,228.242 
	308.104,228.505 309.213,228.584 311.674,226.899 "/>
<polygon fill-rule="evenodd" clip-rule="evenodd" fill="#7F7F7F" points="313.03,224.292 313.358,223.228 312.387,222.746 
	313.653,220.938 313.209,219.736 312.217,218.733 312.675,216.787 312.217,215.234 310.803,213.542 309.802,212.361 
	309.143,210.645 309.447,209.234 310.121,207.806 309.828,205.718 309.564,204.329 310.26,203.252 309.802,201.698 310.695,200.784 
	310.076,199.764 310.579,198.517 309.771,197.499 310.098,196.615 308.747,195.971 308.693,194.922 310.143,193.992 
	311.022,192.726 312.288,191.624 313.358,190.522 314.057,189.451 313.606,188.07 312.977,186.873 313.668,185.617 313.209,184.234 
	314.233,182.095 315.121,181.008 316.167,179.384 317.613,178.275 317.353,176.894 316.013,176.421 315.368,175.054 
	316.083,174.325 314.902,173.324 313.352,172.517 311.657,172.586 310.4,172.85 308.406,173.447 306.963,174.2 305.286,173.929 
	303.58,173.146 302.104,173.208 300.482,173.958 299.783,174.854 297.767,175.107 296.074,174.497 294.445,175.249 293.188,175.985 
	290.136,175.434 286.194,176.467 284.866,176.01 282.429,175.256 280.032,175.358 277.625,175.287 275.39,175.038 273.722,174.938 
	273.046,176.171 271.821,177.43 270.19,178.182 268.871,177.554 268.064,176.382 267.188,177.279 265.706,177.172 264.875,178.927 
	263.399,178.989 262.524,179.881 259.93,179.818 257.896,179.906 256.181,178.95 255.879,180.168 254.8,180.728 254.14,182.294 
	252.891,183.041 252.394,184.26 251.517,185.159 251.401,186.362 250.153,187.27 249.848,188.488 248.6,189.397 247.917,190.46 
	246.262,190.703 244.634,191.284 242.413,191.206 240.087,192.679 237.942,194.147 236.33,195.071 234.536,196.18 234.101,198.422 
	232.861,199.332 230.89,200.621 229.283,201.714 227.667,202.645 226.689,205.088 225.673,206.845 224.26,208.101 225.773,257.772 
	226.931,258.578 228.567,258.159 229.53,258.812 231.555,258.557 231.609,259.579 233.441,259.332 233.489,260.178 235.304,259.589 
	235.895,260.253 237.314,259.16 237.073,257.966 238.122,256.895 239.999,257.501 240.636,259.015 242.063,258.098 243.895,257.671 
	244.919,256.089 246.558,255.677 246.853,254.122 246.62,253.271 247.504,252.548 246.517,251.391 247.553,249.979 248.801,249.063 
	250.283,249.172 250.036,247.979 250.539,247.101 249.375,245.952 250.601,244.692 252.078,244.631 253.133,243.562 
	254.116,244.719 255.383,244.151 254.941,242.8 256.438,243.25 257.136,242.357 257.262,241.325 258.371,241.273 259.044,240.046 
	260.35,240.163 260.49,239.3 262.545,239.728 264.005,239.495 264.137,238.454 264.238,236.905 265.138,236.359 266.294,237.336 
	267.341,236.087 268.863,236.88 270.523,236.809 272.324,235.876 273.124,237.042 274.389,236.476 274.995,237.477 276.252,236.733 
	277.58,237.367 278.627,236.292 280.288,236.211 282.136,236.135 283.191,235.071 284.485,235.179 284.978,233.962 287.024,234.21 
	288.282,233.473 293.395,233.597 292.955,232.245 294.963,231.819 296.034,231.083 295.972,229.885 297.821,229.811 
	298.138,228.932 299.231,228.544 300.708,228.481 301.964,227.916 303.283,228.202 304.587,228.491 306.241,228.242 
	308.104,228.505 309.213,228.584 311.674,226.899 313.32,224.603 "/>
<polygon fill-rule="evenodd" clip-rule="evenodd" fill="#FFFFFF" points="173.34,77.404 174.387,76.161 174.513,75.123 
	174.464,74.099 175.514,73.027 176.197,71.964 176.871,70.738 177.687,68.641 178.346,67.073 179.006,65.67 180.053,64.428 
	180.169,63.224 181.929,61.603 183.903,60.315 186.278,59.874 187.504,58.614 188.707,56.854 190.92,53.157 191.773,51.747 
	192.789,50.162 193.286,48.937 194.511,47.687 196.515,47.081 199.984,46.421 201.977,45.484 205.074,44.66 207.086,44.234 
	209.227,42.767 210.245,41.011 212.589,39.879 214.358,38.428 214.281,36.893 213.06,34.888 212.051,33.211 210.313,31.748 
	208.024,30.473 205.021,29.572 202.552,28.479 200.869,28.035 198.656,28.137 197.61,29.378 198.79,30.696 198.121,32.102 
	195.701,31.683 194.466,32.77 195.661,34.433 194.992,35.829 192.782,35.931 191.773,34.433 190.095,34.16 188.838,34.897 
	188.636,37.992 187.294,40.625 186.458,42.208 184.291,43.154 183.033,43.892 182.171,45.134 180.008,46.082 177.943,45.661 
	176.296,45.895 175.226,46.631 173.572,46.878 171.603,47.989 169.817,49.27 168.615,50.861 166.612,51.459 165.185,52.544 
	165.074,53.927 163.048,54.184 161.837,55.611 160.231,56.705 158.408,57.125 155.256,57.092 153.052,57.358 152.75,58.74 
	150.987,60.361 150.74,62.605 150.663,64.669 151.104,66.018 152.074,66.833 151.943,67.865 154.519,67.586 157.252,66.779 
	159.656,66.85 161.147,67.128 160.853,68.51 160.566,70.071 162.753,69.458 163.748,70.785 165.059,71.079 166.044,72.236 
	165.741,73.617 164.696,74.695 163.654,76.107 164.974,76.565 165.216,77.59 166.649,76.667 168.499,76.762 169.638,77.219 
	171.469,76.97 "/>
<polygon fill-rule="evenodd" clip-rule="evenodd" fill="#565656" points="150.888,68.766 151.991,68.718 153.519,69.688 
	152.324,71.453 152.756,72.802 152.859,74.687 151.408,75.264 150.919,76.488 149.46,76.893 147.651,77.652 145.631,77.908 
	143.872,79.531 143.211,81.099 141.963,82.015 141.116,83.425 141.052,85.654 141.511,87.353 143.274,89.161 145.393,90.785 
	147.324,92.417 148.356,94.431 148.994,95.947 149.062,97.312 146.826,97.063 145.362,97.306 142.399,97.086 141.309,97.475 
	141.022,99.034 139.571,99.607 141.093,100.398 142.785,101.012 143.965,102.332 144.973,103.838 144.856,105.212 144.568,106.593 
	145.856,106.539 146.968,106.664 147.031,107.859 147.658,109.208 148.769,109.155 148.465,110.544 147.611,111.777 
	145.757,111.684 143.894,111.423 142.925,110.614 141.69,111.691 140.379,111.407 139.563,109.901 138.059,109.45 136.142,108.153 
	135.692,106.631 134.365,106.004 132.914,106.578 132.066,104.56 131.025,105.802 128.946,105.042 127.766,103.714 126.221,102.412 
	124.507,101.458 122.854,101.696 122.59,100.167 123.056,98.599 123.205,97.737 122.405,96.573 121.745,94.712 123.35,93.616 
	122.405,93.144 121.256,92.509 120.844,91.661 120.749,89.956 122.007,89.217 122.325,88.177 120.943,86.524 119.796,85.888 
	118.275,85.097 119.322,83.847 119.051,82.138 119.936,81.424 120.417,80.027 120.915,78.98 121.396,77.59 121.705,76.372 
	122.738,74.952 123.236,73.904 123.15,72.359 122.9,71.172 123.568,69.775 122.948,68.425 123.002,66.028 124.259,65.289 
	125.126,64.218 127.55,64.629 129.413,64.893 132.02,65.289 135.141,64.817 136.949,64.048 136.639,61.664 136.529,59.615 
	137.202,58.383 138.113,58 138.593,56.604 140.069,56.542 141.38,56.835 143.056,57.1 145.486,57.684 147.534,57.938 
	149.204,58.041 151.593,57.759 153.052,57.358 152.75,58.74 150.987,60.361 150.74,62.605 150.663,64.669 151.104,66.018 
	152.074,66.833 151.943,67.865 "/>
<polygon fill-rule="evenodd" clip-rule="evenodd" fill="#7F7F7F" points="147.611,111.777 148.465,110.544 148.769,109.155 
	147.658,109.208 147.031,107.859 146.968,106.664 145.856,106.539 144.568,106.593 144.856,105.212 144.973,103.838 
	143.965,102.332 142.785,101.012 141.093,100.398 139.571,99.607 141.022,99.034 141.309,97.475 142.399,97.086 145.362,97.306 
	146.826,97.063 149.062,97.312 148.994,95.947 148.356,94.431 147.324,92.417 145.393,90.785 143.274,89.161 141.511,87.353 
	141.052,85.654 141.116,83.425 141.963,82.015 143.211,81.099 143.872,79.531 145.631,77.908 147.651,77.652 149.46,76.893 
	150.919,76.488 151.408,75.264 152.859,74.687 152.756,72.802 152.324,71.453 153.519,69.688 151.991,68.718 150.888,68.766 
	151.943,67.865 154.519,67.586 157.252,66.779 159.656,66.85 161.147,67.128 160.853,68.51 160.566,70.071 162.753,69.458 
	163.748,70.785 165.059,71.079 166.044,72.236 165.741,73.617 164.696,74.695 163.654,76.107 164.974,76.565 165.216,77.59 
	166.649,76.667 168.499,76.762 169.638,77.219 171.469,76.97 173.34,77.404 172.843,78.453 171.617,79.71 170.765,81.113 
	171.052,82.991 170.778,84.885 169.808,87.5 169.343,89.24 171.074,90.365 170.033,91.778 169.172,93.02 168.537,94.93 
	166.984,97.057 165.185,97.987 163.803,99.763 162.824,102.21 162.002,104.126 162.056,105.329 161.014,106.57 159.928,106.968 
	159.007,107.004 159.074,108.37 159.174,110.257 158.686,111.476 158.958,113.176 159.036,114.541 159.3,116.077 158.408,116.63 
	158.277,117.661 157.585,118.554 156.723,119.788 156.436,121.34 156.854,122.356 157.654,123.35 158.083,124.53 157.989,126.244 
	159.309,126.703 159.79,125.314 160.449,123.746 161.792,124.713 161.543,126.952 160.521,128.713 160.256,130.614 160.339,132.324 
	161.342,133.649 163.08,135.125 162.978,136.669 161.891,137.056 161.976,138.771 161.674,139.983 160.076,141.256 159.394,142.31 
	158.128,142.876 156.598,141.915 155.273,141.285 153.985,141.34 151.943,141.256 151.149,140.261 151.431,138.539 152.867,137.786 
	153.168,136.575 151.794,134.923 150.762,132.904 150.492,131.375 150.578,129.311 150.987,126.726 150.631,123.482 149.59,121.294 
	149.321,119.593 149.425,118.21 149.699,116.319 149.079,115.146 147.153,113.687 "/>
<polygon fill-rule="evenodd" clip-rule="evenodd" fill="#3A3A3A" points="155.708,142.465 156.678,143.46 158.228,144.762 
	159.75,145.547 161.024,145.16 162.536,145.781 164.013,145.709 164.314,144.5 165.168,143.094 167.412,143.505 169.072,143.436 
	170.344,143.042 171.338,144.367 171.375,145.222 172.524,145.857 173.691,146.836 173.916,147.689 174.333,148.526 
	175.506,149.846 175.21,151.226 174.922,152.788 175.932,154.287 175.28,156.031 176.259,157.017 177.431,158.166 179.299,158.602 
	181.157,158.693 182.81,158.446 183.056,159.64 183.671,160.813 184.959,160.758 186.261,160.875 187.396,161.34 188.676,161.118 
	189.871,159.175 190.709,157.592 192.23,158.382 192.89,156.814 194.201,157.273 195.359,158.08 196.607,157.164 194.156,152.818 
	192.782,151.335 193.457,150.103 192.649,148.767 191.158,148.658 188.583,148.767 186.72,148.511 187.015,147.122 184.734,146.021 
	185.417,144.964 184.592,143.279 185.074,141.89 184.617,140.192 185.26,138.453 184.819,137.095 184.888,134.868 186.136,134.13 
	187.177,132.71 186.387,131.717 187.418,130.304 187.714,128.914 187.257,127.223 186.621,125.701 179.271,119.509 177.221,112.221 
	176.638,108.302 175.125,107.681 173.435,107.068 172.547,107.96 171.096,108.37 170.29,107.029 171.353,106.299 170.554,105.135 
	169.343,103.295 167.758,104.738 166.519,105.648 164.522,106.423 162.342,107.199 159.928,106.968 159.007,107.004 159.074,108.37 
	159.174,110.257 158.686,111.476 158.958,113.176 159.036,114.541 159.3,116.077 158.408,116.63 158.277,117.661 157.585,118.554 
	156.723,119.788 156.436,121.34 156.854,122.356 157.654,123.35 158.083,124.53 157.989,126.244 159.309,126.703 159.79,125.314 
	160.449,123.746 161.792,124.713 161.543,126.952 160.521,128.713 160.256,130.614 160.339,132.324 161.342,133.649 163.08,135.125 
	162.978,136.669 161.891,137.056 161.976,138.771 161.674,139.983 160.076,141.256 159.394,142.31 158.128,142.876 156.598,141.915 
	155.273,141.285 "/>
<polygon fill-rule="evenodd" clip-rule="evenodd" fill="#C6C6C6" points="107.434,72.359 105.828,73.455 104.599,74.704 
	103.39,76.302 103.328,78.531 103.205,79.741 103.808,80.572 103.489,81.61 103.763,83.311 104.211,84.839 105.392,86.159 
	106.734,87.128 104.942,88.061 105.019,89.606 104.903,90.978 106.416,91.435 108.651,91.847 108.512,92.716 108.409,94.254 
	107.372,95.682 107.642,97.21 109.069,96.287 110.725,96.048 112.044,96.506 113.765,97.638 114.558,98.631 115.869,98.91 
	116.979,99.034 118.352,100.516 120.098,101.99 119.833,104.056 119.556,105.785 120.749,107.447 121.947,108.937 122.761,110.444 
	124.47,111.233 125.789,111.691 127.128,112.663 128.528,114.487 129.335,115.822 129.224,117.375 127.958,117.771 128.233,119.469 
	128.681,120.998 129.327,122.683 129.753,123.691 130.741,124.854 128.798,126.648 128.326,128.215 127.284,129.458 
	126.315,128.641 125.242,129.38 124.748,130.419 123.133,131.353 125.817,133.291 127.721,134.237 129.449,135.535 130.826,137.025 
	131.104,138.725 131.01,140.618 131.98,141.432 133.144,142.402 132.293,143.816 130.477,144.413 130.365,145.788 130.055,146.998 
	129.771,148.559 130.4,149.9 131.182,150.724 132.523,151.692 133.772,150.787 134.256,149.396 134.93,148.161 136.304,149.645 
	135.985,150.692 134.768,152.111 135.382,153.284 134.894,154.502 135.343,156.031 135.962,157.204 136.047,158.919 
	137.375,159.548 139.052,159.649 145.765,153.865 146.974,152.274 147.751,149.327 147.83,147.441 148.652,145.517 149.523,144.452 
	149.986,142.713 149.886,140.829 149.607,139.128 148.954,137.275 148.149,135.929 148.234,134.043 149.259,132.462 
	150.492,131.375 150.578,129.311 150.987,126.726 150.631,123.482 149.59,121.294 149.321,119.593 149.425,118.21 149.699,116.319 
	149.079,115.146 147.153,113.687 147.611,111.777 145.757,111.684 143.894,111.423 142.925,110.614 141.69,111.691 140.379,111.407 
	139.563,109.901 138.059,109.45 136.142,108.153 135.692,106.631 134.365,106.004 132.914,106.578 132.066,104.56 131.025,105.802 
	128.946,105.042 127.766,103.714 126.221,102.412 124.507,101.458 122.854,101.696 122.59,100.167 123.056,98.599 123.205,97.737 
	122.405,96.573 121.745,94.712 123.35,93.616 122.405,93.144 121.256,92.509 120.844,91.661 120.749,89.956 122.007,89.217 
	122.325,88.177 120.943,86.524 119.796,85.888 118.275,85.097 119.322,83.847 119.051,82.138 117.84,80.306 116.884,79.833 
	115.016,79.397 113.548,79.632 113.3,78.443 112.153,77.638 110.864,77.691 110.613,76.504 109.644,75.69 109.769,74.487 
	109.692,73.112 109.442,71.753 "/>
<polygon fill-rule="evenodd" clip-rule="evenodd" fill="#FFFFFF" points="124.049,127.713 123.81,126.688 122.32,126.416 
	121.526,125.585 120.2,124.965 118.369,125.212 118.113,123.856 116.373,125.98 114.564,126.75 112.889,126.478 113.184,125.089 
	112.229,124.443 110.383,124.53 109.962,123.513 109.885,122.146 109.442,120.796 108.992,119.275 109.289,117.886 107.767,117.094 
	108.269,116.046 110.087,115.448 111.749,115.379 112.625,114.487 112.337,112.608 111.716,111.267 110.228,111.158 
	109.799,109.977 108.1,109.366 106.95,108.557 105.81,108.085 105.958,107.229 104.085,106.968 102.543,105.662 101.052,105.554 
	99.749,105.265 99.283,103.567 101.442,102.279 103.04,101.177 102.962,99.64 102.309,97.785 101.324,96.62 100.145,95.301 
	101.168,93.717 101.433,91.645 102.044,89.386 101.954,87.509 102.816,86.268 103.768,86.92 103.668,88.462 104.942,88.061 
	105.019,89.606 104.903,90.978 106.416,91.435 108.651,91.847 108.512,92.716 108.409,94.254 107.372,95.682 107.642,97.21 
	109.069,96.287 110.725,96.048 112.044,96.506 113.765,97.638 114.558,98.631 115.869,98.91 116.979,99.034 118.352,100.516 
	120.098,101.99 119.833,104.056 119.556,105.785 120.749,107.447 121.947,108.937 122.761,110.444 124.47,111.233 125.789,111.691 
	127.128,112.663 128.528,114.487 129.335,115.822 129.224,117.375 127.958,117.771 128.233,119.469 128.681,120.998 
	129.327,122.683 129.753,123.691 130.741,124.854 128.798,126.648 128.326,128.215 127.284,129.458 126.315,128.641 125.242,129.38 
	124.111,128.907 "/>
<polygon fill-rule="evenodd" clip-rule="evenodd" fill="#565656" points="130.508,190.366 129.009,190.088 127.738,190.484 
	126.508,191.742 124.817,191.298 122.948,190.863 121.503,191.438 119.524,192.548 118.083,193.13 117.957,194.333 116.924,195.751 
	114.564,196.707 113.526,197.958 112.005,197.158 110.725,193.96 109.707,192.114 108.449,192.859 106.991,193.262 106.004,192.104 
	103.956,191.849 104.405,193.372 104.88,195.24 103.659,196.661 102.341,196.203 100.875,196.443 99.803,197.172 98.905,197.725 
	97.443,197.965 98.259,199.47 97.398,200.704 98.703,200.82 100.137,200.075 101.644,200.525 100.426,201.946 99.363,202.847 
	99.237,204.056 99.121,205.26 98.834,206.813 98.725,208.193 100.401,208.467 101.535,208.931 101.977,210.283 102.582,211.292 
	105.33,210.826 107.178,210.747 107.775,211.578 109.451,211.85 109.513,212.875 111.211,213.657 112.462,212.742 112.391,211.548 
	112.332,210.351 112.803,208.791 111.964,206.937 113.019,205.867 114.876,205.96 115.938,205.222 117.584,204.811 118.981,203.211 
	119.857,202.31 121.49,201.729 123.716,201.798 126.301,201.861 127.931,201.108 129.305,199.161 129.203,197.282 130.055,195.87 
	129.763,193.829 130.047,192.268 "/>
<polygon fill-rule="evenodd" clip-rule="evenodd" fill="#3A3A3A" points="93.525,197.273 93.285,196.256 92.5,195.434 
	91.872,194.085 91.971,192.54 91.171,191.376 90.17,189.87 90.995,187.954 91.289,186.564 90.677,185.392 88.288,185.672 
	87.27,183.996 87.54,182.095 86.929,180.922 84.537,181.194 81.604,181.666 79.409,182.101 77.008,182.209 75.311,181.598 
	74.665,179.906 73.332,179.104 73.252,177.741 73.175,176.205 73.656,174.807 72.507,173.999 71.15,172.858 70.7,171.335 
	69.565,170.863 69.302,169.334 68.129,168.185 68.07,166.99 70.962,165.834 72.398,165.08 72.128,163.382 72.048,161.846 
	74.432,161.393 76.29,161.658 77.793,162.117 79.446,161.869 80.222,159.09 79.741,157.056 78.925,155.545 77.389,154.412 
	75.519,154.152 71.383,149.356 64.646,144.328 63.255,142.505 64.148,141.774 65.57,140.687 66.028,138.958 66.145,137.577 
	67.959,136.986 67.711,135.799 67.083,134.448 67.582,133.229 66.759,131.724 64.902,131.623 63.923,130.646 62.487,127.96 
	60.422,127.361 58.904,126.572 58.646,125.212 56.333,123.426 54.609,125.733 54.688,127.261 55.852,128.417 57.234,129.898 
	57.32,131.607 58.491,132.756 59.865,134.246 60.129,135.775 60.75,136.955 61.395,138.81 61.085,139.848 61.153,141.054 
	59.708,141.798 58.258,142.381 52.39,150.343 51.072,149.886 49.69,148.061 48.518,146.911 47.439,147.642 47.565,149.861 
	47.471,151.585 45.67,152.516 45.164,153.402 43.534,157.583 45.08,158.886 46.632,160.193 48.728,161.473 49.737,162.978 
	50.353,164.148 49.288,165.057 48.805,166.447 50.318,167.07 52.019,167.683 53.198,169 53.491,171.05 54.735,170.134 
	56.216,170.07 57.375,171.05 57.243,172.091 58.235,173.411 58.142,175.13 58.243,177.009 57.36,177.741 57.243,179.113 
	55.783,179.517 55.511,181.247 55.412,182.971 56.947,183.925 57.94,185.261 58.741,186.424 58.81,187.789 59.617,188.954 
	60.058,190.312 61.239,191.631 61.136,193.348 59.934,194.947 58.904,196.531 58.034,197.422 56.35,197.158 54.649,196.545 
	54.536,197.75 53.679,199.161 55,199.617 57.064,200.216 57.14,201.581 57.769,202.925 57.846,204.469 57.934,206.004 
	58.563,207.519 58.483,209.582 59.111,210.926 58.639,212.494 60.05,214.66 59.585,216.398 60.57,217.555 60.493,219.611 
	60.611,221.666 60.516,223.552 60.408,224.934 59.197,226.523 57.8,227.962 55.636,229.08 55.34,230.47 57.367,230.375 
	55.583,231.487 55.636,232.509 57.63,231.742 59.134,232.364 60.337,230.593 60.938,231.425 61.983,230.181 63.83,230.266 
	65.337,230.726 67.439,232.005 68.402,232.819 70.778,232.198 72.704,233.667 74.418,234.622 76.682,235.38 77.714,234.139 
	80.492,234.187 81.323,232.441 82.768,231.685 84.042,231.291 83.589,229.763 81.699,228.993 81.272,227.805 80.447,226.301 
	80.152,224.252 81.627,224.19 82.099,222.629 83.948,218.951 85.308,216.661 85.982,215.607 87.803,215.009 89.372,213.231 
	90.754,211.453 90.506,210.257 88.976,209.296 88.711,207.769 87.705,206.098 86.539,205.113 85.538,203.622 87.338,202.683 
	88.371,201.265 89.419,200.193 90.717,200.138 91.755,198.896 94.161,198.957 "/>
<polygon fill-rule="evenodd" clip-rule="evenodd" fill="#565656" points="146.974,152.274 147.255,153.983 147.341,155.691 
	147.984,157.204 148.962,158.359 148.473,159.587 147.248,160.835 145.407,161.084 144.918,162.31 143.653,162.876 142.825,164.624 
	141.784,166.043 140.146,166.46 138.708,167.207 138.228,168.597 136.209,168.854 135.521,169.916 135.032,171.135 135.319,173.014 
	135.574,174.371 134.512,175.279 133.665,176.683 131.887,178.128 133.627,179.431 134.085,181.125 135.661,182.94 137.328,183.041 
	138.74,181.785 139.705,182.599 139.446,184.663 140.231,185.485 139.944,187.039 141.076,187.51 141.938,186.27 143.85,187.385 
	145.19,188.365 146.672,188.466 147.48,189.808 148.8,190.258 150.475,190.361 152.099,189.605 153.348,188.869 154.83,188.808 
	156.023,190.46 156.678,188.899 156.552,186.502 157.158,183.901 158.57,182.646 160.208,182.227 161.9,182.668 162.684,183.49 
	162.949,185.028 161.536,186.291 159.928,187.385 160.719,188.381 162.956,188.628 163.258,187.409 163.941,186.354 
	165.409,186.123 166.473,185.214 166.751,183.49 169.723,183.708 171.569,183.793 172.636,182.894 174.225,181.458 176.157,179.656 
	177.531,177.539 178.958,176.623 179.253,175.232 179.16,173.356 178.882,171.654 177.718,170.67 177.639,169.133 179.299,169.063 
	180.294,170.388 180.736,171.74 182.055,172.198 183.474,171.104 184.151,169.886 184.601,167.977 185.471,166.905 185.4,165.539 
	185.309,163.832 185.596,162.27 184.959,160.758 183.671,160.813 183.056,159.64 182.81,158.446 181.157,158.693 179.299,158.602 
	177.431,158.166 176.259,157.017 175.28,156.031 175.932,154.287 174.922,152.788 175.21,151.226 175.506,149.846 174.333,148.526 
	173.916,147.689 173.691,146.836 172.524,145.857 171.375,145.222 171.338,144.367 170.344,143.042 169.072,143.436 
	167.412,143.505 165.168,143.094 164.314,144.5 164.013,145.709 162.536,145.781 161.024,145.16 159.75,145.547 158.228,144.762 
	156.678,143.46 155.708,142.465 155.273,141.285 153.985,141.34 151.943,141.256 151.149,140.261 151.431,138.539 152.867,137.786 
	153.168,136.575 151.794,134.923 150.762,132.904 150.492,131.375 149.259,132.462 148.234,134.043 148.149,135.929 
	148.954,137.275 149.607,139.128 149.886,140.829 149.986,142.713 149.523,144.452 148.652,145.517 147.83,147.441 147.751,149.327 
	"/>
<polygon fill-rule="evenodd" clip-rule="evenodd" fill="#C6C6C6" points="90.506,210.257 88.976,209.296 88.711,207.769 
	87.705,206.098 86.539,205.113 85.538,203.622 87.338,202.683 88.371,201.265 89.419,200.193 90.717,200.138 91.755,198.896 
	94.161,198.957 93.525,197.273 95.045,198.066 97.443,197.965 98.259,199.47 97.398,200.704 98.703,200.82 100.137,200.075 
	101.644,200.525 101.76,201.638 99.363,202.847 99.237,204.056 99.121,205.26 98.834,206.813 98.725,208.193 100.401,208.467 
	101.535,208.931 101.977,210.283 102.582,211.292 105.33,210.826 107.178,210.747 107.775,211.578 109.451,211.85 109.513,212.875 
	111.211,213.657 111.119,215.381 110.613,216.428 108.813,217.36 107.323,217.08 105.639,216.646 103.615,216.73 102.141,216.964 
	102.56,217.802 100.566,218.579 99.912,216.714 98.592,216.256 97.468,215.962 96.312,215.158 96.752,212.903 94.907,212.99 
	94.494,212.146 93.316,210.826 91.794,210.033 "/>
<path fill-rule="evenodd" clip-rule="evenodd" fill="#7F7F7F" d="M100.566,218.579l-1.283,0.224l-0.696,0.885l0.448,1.521
	l0.086,1.546l0.809,1.335l0.983,1.157l-0.463,1.566l0.658,2.028l0.092,1.715l0.624,1.341l1.505,0.45l0.426,1.009l-0.495,1.219
	l-1.064,0.909l-1.825,0.417l-1.59,1.273l-0.449,2.072l-0.427,2.422l-1.035,1.412l0.103,1.887l-0.643,1.908l-0.267,1.901
	l-0.441,2.074l-0.668,1.404l-0.471,1.559l-1.11,0.055l-1.701-0.614l-1.544-1.303l-1.662,0.071l-1.822,0.416l-1.724-1.124
	l-1.257,0.737l-0.125,1.202l-0.287,1.561l0.076,1.366l-1.823,0.426l-2.411-0.071l-1.625,0.754l-1.141-0.629l-0.503,1.047
	l-0.87,1.064l-1.862-0.264l-1.926-1.458l-1.25,0.743l-2.065-0.426l-1.683-0.443l-1.459,0.404l-0.623-1.342l-1.343-0.802
	l-1.059,0.732l-1.172-1.149l-0.816-1.341l-1.46,0.408l-1.8,0.934l0.293-1.562l1.041-1.234l1.251-0.917l0.885-0.721l1.263-0.573
	l0.086-1.886l0.847-1.406l1.599-1.279l1.274-0.397l0.302-1.207l0.901-0.553l-1.175-1.156l0.483-1.388l1.674,0.27l0.28-1.72
	c0.676,0.007,1.26-0.901,0.856-1.414c-0.319-0.396-0.849-0.504-1.315-0.288l-1.613,0.933l-1.808,0.76l-1.32-0.459l-0.627-1.341
	l1.046-1.251l1.032-1.41l-1.675-0.271l-1.056,1.072l-0.668,1.403l-1.132-0.635l-0.807-1.167l-0.25-1.196l-1.263,0.578l-1.203-1.842
	l1.994-0.767l1.504,0.622l1.203-1.771l0.6,0.832l1.046-1.244l1.846,0.085l1.508,0.459l2.102,1.28l0.963,0.814l2.376-0.621
	l1.926,1.468l1.714,0.955l2.264,0.758l1.032-1.241l2.778,0.047l0.831-1.746l1.445-0.756l1.274-0.394l-0.453-1.528l-1.891-0.77
	l-0.427-1.188l-0.825-1.504l-0.295-2.049l1.475-0.062l0.472-1.561l1.849-3.678l1.359-2.29l0.674-1.054l1.821-0.598l1.568-1.778
	l1.383-1.779l-0.248-1.195l1.288-0.225l1.521,0.793l1.178,1.32l0.413,0.844l1.846-0.086l-0.441,2.254l1.157,0.804l1.124,0.294
	l1.32,0.458L100.566,218.579z"/>
<polygon fill-rule="evenodd" clip-rule="evenodd" fill="#FFFFFF" points="196.607,157.164 195.359,158.08 194.201,157.273 
	192.89,156.814 192.23,158.382 190.709,157.592 189.871,159.175 188.676,161.118 187.396,161.34 186.261,160.875 184.959,160.758 
	185.596,162.27 185.309,163.832 185.4,165.539 185.471,166.905 184.601,167.977 184.151,169.886 183.474,171.104 182.055,172.198 
	180.736,171.74 180.294,170.388 179.299,169.063 177.639,169.133 177.718,170.67 178.882,171.654 179.16,173.356 179.253,175.232 
	178.958,176.623 177.531,177.539 176.157,179.656 174.225,181.458 172.636,182.894 171.569,183.793 169.723,183.708 166.751,183.49 
	166.473,185.214 165.409,186.123 163.941,186.354 163.258,187.409 162.956,188.628 160.719,188.381 159.928,187.385 
	161.536,186.291 162.949,185.028 162.684,183.49 161.9,182.668 160.208,182.227 158.57,182.646 157.158,183.901 156.552,186.502 
	156.678,188.899 156.023,190.46 154.83,188.808 153.348,188.869 152.099,189.605 150.475,190.361 148.8,190.258 147.48,189.808 
	146.672,188.466 145.19,188.365 143.85,187.385 141.938,186.27 141.076,187.51 139.944,187.039 140.231,185.485 139.446,184.663 
	139.705,182.599 138.74,181.785 137.328,183.041 135.661,182.94 134.085,181.125 133.627,179.431 131.887,178.128 130.692,179.897 
	130.195,181.116 131.01,182.458 131.941,182.591 132.02,184.126 131.33,185.012 130.84,186.231 129.97,187.303 130.234,188.83 
	130.508,190.366 131.972,190.134 133.233,189.561 134.566,190.189 135.838,189.793 136.715,188.899 137.615,188.512 
	138.422,189.684 139.09,191.881 138.22,192.944 139.221,194.45 140.029,195.613 140.447,196.624 141.938,196.73 143.993,197.158 
	144.423,198.337 145.945,199.13 147.751,198.37 149.164,197.103 149.645,195.714 150.731,195.326 151.601,194.255 152.415,195.599 
	153.76,196.566 156.365,196.97 156.994,198.314 157.079,199.851 158.051,200.844 159.571,201.628 159.665,203.343 160.697,205.362 
	161.14,206.712 160.279,207.948 159.26,209.708 160.401,210.345 162.622,210.25 163.601,211.406 163.499,212.953 165.168,213.054 
	165.781,214.223 167.263,214.161 168.449,215.653 171.052,215.885 172.076,214.302 171.624,212.773 172.455,211.028 
	172.175,209.149 172.493,208.101 173.944,207.699 175.179,206.619 176.026,205.042 174.867,204.228 175.173,202.847 
	174.908,201.319 175.792,200.595 177.019,199.339 177.905,198.618 179.417,199.231 181.099,199.672 182.738,199.09 184.538,198.158 
	185.57,196.739 186.621,195.497 187.302,194.441 188.878,192.827 189.871,194.154 191.554,194.596 191.469,192.889 191.375,191.173 
	192.625,190.265 191.976,188.575 191.198,187.752 189.12,186.983 187.226,186.036 188.273,184.793 189.259,182.52 189.166,180.813 
	188.343,179.129 188.053,177.259 188.505,175.35 189.902,173.753 192.213,172.104 194.185,170.824 195.203,169.063 195.095,167.177 
	199.557,157.041 198.089,157.282 "/>
<polygon fill-rule="evenodd" clip-rule="evenodd" fill="#FFFFFF" points="133.938,237.718 135.101,235.265 134.288,233.929 
	133.83,232.239 135.055,230.981 135.155,229.257 134.347,228.094 133.175,226.945 131.911,227.521 130.652,228.256 128.994,228.146 
	128.007,227 126.503,226.549 125.269,224.199 125.926,222.629 126.37,220.548 126.137,219.705 126.23,217.98 126.137,216.274 
	126.432,214.722 127.074,212.975 126.634,211.624 127.114,210.228 127.985,209.165 127.721,207.627 128.412,206.743 
	127.977,205.563 127.721,204.205 127.635,202.489 127.1,201.48 126.37,201.876 123.716,201.798 121.49,201.729 119.857,202.31 
	118.981,203.211 117.584,204.811 115.938,205.222 114.876,205.96 113.019,205.867 111.964,206.937 112.803,208.791 112.332,210.351 
	112.391,211.548 112.462,212.742 111.211,213.657 111.119,215.381 110.613,216.428 111.779,217.407 110.927,218.648 
	109.482,219.393 107.891,220.83 106.486,222.264 106.199,223.817 106.276,225.191 105.096,227.302 104.095,229.397 103.426,230.802 
	103.328,232.346 103.753,233.355 103.259,234.575 102.195,235.484 100.37,235.901 98.779,237.174 98.331,239.246 97.904,241.667 
	96.869,243.08 96.971,244.966 96.328,246.875 96.061,248.776 95.62,250.85 94.951,252.254 94.48,253.813 94.782,256.034 
	94.852,257.4 95.844,258.735 97.909,259.332 99.938,259.068 100.804,258.007 101.674,257.113 102.995,257.57 104.018,255.979 
	105.657,255.397 107.489,255.142 107.806,254.109 107.548,252.743 108.777,251.485 110.389,250.564 111.987,249.291 113.23,248.38 
	115.28,248.639 116.256,249.624 117.484,248.375 119.299,247.604 121.14,247.527 122.312,248.678 121.054,249.413 120.565,250.639 
	121.893,251.269 124.484,251.321 125.926,250.586 126.782,249.342 127.635,247.932 128.667,246.518 128.597,245.144 
	129.288,244.269 129.574,242.71 130.809,241.62 132.227,240.535 133.632,239.098 "/>
<polygon fill-rule="evenodd" clip-rule="evenodd" fill="#565656" points="172.076,214.302 171.624,212.773 172.455,211.028 
	172.175,209.149 172.493,208.101 173.944,207.699 175.179,206.619 176.026,205.042 174.867,204.228 175.173,202.847 
	174.908,201.319 175.792,200.595 177.019,199.339 177.905,198.618 179.417,199.231 181.099,199.672 182.738,199.09 184.538,198.158 
	185.57,196.739 186.621,195.497 187.302,194.441 188.878,192.827 189.871,194.154 191.554,194.596 191.469,192.889 191.375,191.173 
	192.625,190.265 191.976,188.575 191.198,187.752 189.12,186.983 187.226,186.036 188.273,184.793 189.259,182.52 189.166,180.813 
	188.343,179.129 188.053,177.259 189.893,177.003 191.392,177.461 191.648,178.818 192.447,179.982 193.735,179.757 
	194.706,180.742 196.321,179.818 198.3,178.7 199.936,178.29 202.344,178.182 203.027,177.296 204.688,177.227 206.317,176.467 
	208.527,176.382 210.042,176.995 212.449,177.063 213.877,176.141 215.731,176.234 217.724,175.465 219.528,174.527 
	221.822,175.969 223.624,175.038 225.673,175.465 227.738,175.891 230.663,175.425 233.466,175.985 235.097,175.232 237.162,175.83 
	239.303,174.365 241.103,173.432 244.105,174.333 246.125,174.076 248.585,175.161 249.757,176.32 250.562,177.475 252.029,177.413 
	253.559,178.213 254.165,179.214 256.181,178.95 255.879,180.168 254.8,180.728 254.14,182.294 252.891,183.041 252.394,184.26 
	251.517,185.159 251.401,186.362 250.153,187.27 249.848,188.488 248.6,189.397 247.917,190.46 246.262,190.703 244.634,191.284 
	242.413,191.206 240.087,192.679 237.942,194.147 236.33,195.071 234.536,196.18 234.101,198.422 232.861,199.332 230.89,200.621 
	229.283,201.714 227.667,202.645 226.689,205.088 225.673,206.845 224.633,208.084 222.81,208.683 221.778,210.104 219.218,210.553 
	216.342,212.222 214.178,213.347 210.533,214.186 209.873,215.754 208.049,216.182 205.502,216.972 201.676,221.598 
	199.859,222.188 198.54,221.729 196.639,220.782 194.241,220.89 192.439,221.822 190.328,223.803 189.002,223.173 187.549,223.747 
	185.861,223.135 184.268,224.577 182.755,223.957 181.148,225.052 180.146,223.552 179.146,222.056 177.019,220.263 
	174.863,217.949 173.293,216.304 "/>
<polygon fill-rule="evenodd" clip-rule="evenodd" fill="#C6C6C6" points="224.26,208.101 225.773,257.772 224.875,258.152 
	223.354,257.36 222.46,257.911 220.799,257.982 220.017,257.16 219.417,256.329 218.572,257.911 216.942,258.495 215.776,257.516 
	215.282,258.563 214.147,258.098 212.889,258.842 210.857,258.928 209.01,258.835 208.041,258.019 206.627,259.277 204.602,259.543 
	202.228,259.983 199.657,260.262 198.462,258.772 196.98,258.671 196.483,259.719 196.755,261.421 195.041,260.464 193.79,261.202 
	191.756,261.288 189.972,262.568 188.132,262.646 188.374,263.663 186.534,263.918 186.408,265.122 185.525,265.843 183.847,265.58 
	181.28,265.859 179.789,265.749 178.54,266.489 177.297,267.566 176.808,268.794 176.305,269.848 175.2,269.887 174.101,270.114 
	173.23,271.176 171.034,271.439 169.374,271.517 168.116,272.253 166.991,271.959 165.532,272.363 164.206,271.742 162.016,272.349 
	160.682,271.547 159.812,272.611 159.982,289.754 156.661,289.896 154.107,290.518 151.539,290.974 149.654,290.195 
	148.109,289.064 146.224,288.282 145.034,286.798 142.799,286.372 140.734,285.952 138.719,286.208 137.173,285.075 
	135.427,283.437 134.782,281.746 133.974,280.581 134.006,277.492 133.34,275.467 132.308,273.449 132.375,271.223 131.715,269.189 
	132.936,267.768 134.108,265.487 133.79,262.925 132.424,261.614 129.771,260.363 127.496,259.432 125.103,259.526 125.758,257.96 
	128.394,255.273 130.149,253.649 131.887,251.516 132.555,250.119 132.464,248.413 132.734,246.511 133.367,244.594 
	134.449,244.044 134.938,242.643 135.792,241.411 136.887,241.024 137.933,239.944 138.974,238.534 140.316,236.071 
	142.731,232.711 144.568,232.456 146.556,231.685 147.597,230.443 149.809,230.343 151.624,229.575 152.5,228.684 153.937,227.937 
	154.619,226.882 153.416,225.042 152.765,223.188 153.595,221.435 155.016,220.346 156.877,220.603 158.617,221.908 
	159.098,224.112 160.315,226.123 161.792,226.052 163.242,225.478 164.298,224.577 166.168,225.012 168.063,225.789 
	169.405,226.759 170.912,227.209 172.076,214.302 173.293,216.304 174.863,217.949 177.019,220.263 179.146,222.056 
	180.146,223.552 181.148,225.052 182.755,223.957 184.268,224.577 185.861,223.135 187.549,223.747 189.002,223.173 
	190.328,223.803 192.439,221.822 194.241,220.89 196.639,220.782 198.54,221.729 199.859,222.188 201.676,221.598 205.502,216.972 
	208.049,216.182 209.873,215.754 210.533,214.186 214.178,213.347 216.342,212.222 219.218,210.553 221.778,210.104 222.81,208.683 
	224.633,208.084 "/>
<polygon fill-rule="evenodd" clip-rule="evenodd" fill="#3A3A3A" points="125.103,259.526 125.758,257.96 128.394,255.273 
	130.149,253.649 131.887,251.516 132.555,250.119 132.464,248.413 132.734,246.511 133.367,244.594 134.449,244.044 
	134.938,242.643 135.792,241.411 135.553,240.394 135.271,238.514 133.938,237.718 133.632,239.098 132.227,240.535 130.809,241.62 
	129.574,242.71 129.288,244.269 128.597,245.144 128.667,246.518 127.635,247.932 126.782,249.342 125.926,250.586 124.484,251.321 
	121.893,251.269 120.565,250.639 121.054,249.413 122.312,248.678 121.14,247.527 119.299,247.604 117.484,248.375 116.256,249.624 
	115.28,248.639 113.23,248.38 111.987,249.291 110.389,250.564 108.777,251.485 107.548,252.743 107.806,254.109 107.489,255.142 
	105.657,255.397 104.018,255.979 102.995,257.57 101.674,257.113 100.804,258.007 99.938,259.068 97.909,259.332 97.033,260.224 
	97.523,262.43 98.206,264.805 99.013,266.139 100.207,267.637 101.023,269.143 101.456,270.323 101.519,271.524 100.051,271.759 
	98.905,271.122 97.616,271.176 96.683,271.043 95.838,272.45 94.412,273.543 93.299,273.589 91.422,272.975 89.762,273.053 
	89.488,274.783 88.411,275.514 87.364,276.591 88.536,277.742 89.366,279.417 88.488,280.481 86.875,281.411 85.524,280.272 
	84.19,279.463 82.187,280.07 81.906,281.792 82.535,283.143 82.233,284.524 82.674,285.874 83.995,286.339 85.874,286.945 
	86.849,287.924 86.812,290.681 87.62,292.013 89.312,292.448 90.614,292.565 91.583,293.551 92.733,294.187 94.394,294.116 
	95.862,293.885 96.808,294.359 98.811,293.761 100.207,292.152 101.968,290.54 103.018,289.46 103.484,287.729 104.522,286.478 
	105.935,285.222 106.976,283.803 109.132,282.676 109.786,280.938 110.801,279.354 112.208,277.92 112.866,276.351 114.124,275.606 
	115.511,274.008 116.515,271.898 116.785,270.012 117.468,268.949 118.773,269.235 119.735,269.877 121.884,268.585 
	123.465,267.147 123.778,265.928 122.8,264.942 121.813,263.787 122.491,262.561 124.241,260.768 "/>
<polygon fill-rule="evenodd" clip-rule="evenodd" fill="#FFFFFF" points="94.207,294.124 93.883,295.003 93.37,295.878 
	92.89,297.269 92.025,298.34 91.368,299.906 93.316,301.708 95.838,303.996 97.195,305.318 96.876,306.185 95.799,306.743 
	94.69,306.543 93.774,307.008 92.873,307.388 90.848,307.474 90.057,306.48 89.17,307.205 87.495,307.101 85.964,306.146 
	84.654,305.69 84.562,303.975 84.451,301.917 84.514,299.511 83.863,297.836 81.79,297.056 80.331,297.46 80.036,298.851 
	79.352,299.906 77.52,300.336 77.651,299.3 77.956,298.084 77.512,296.563 78.167,294.994 78.09,293.451 77.103,292.292 
	75.589,291.672 73.906,291.399 72.563,290.431 71.475,290.819 69.475,291.417 67.416,290.99 66.158,291.734 64.637,290.944 
	64.367,289.235 64.444,287.18 65.67,285.931 66.534,284.856 65.57,284.042 63.667,283.096 63.227,281.738 63.326,280.023 
	62.512,278.689 61.23,278.913 58.474,279.38 56.467,279.635 54.757,278.852 53.424,278.223 52.607,276.708 51.25,275.569 
	49.862,273.743 48.861,272.245 47.129,270.942 45.756,269.46 44.934,267.955 45.973,266.712 47.65,266.813 48.984,267.604 
	49.109,266.402 49.396,264.851 51.205,264.08 52.687,264.19 52.439,263.002 52.741,261.784 54.208,261.552 54.339,260.519 
	52.817,259.728 51.669,258.92 53.477,258.159 54.735,257.416 55.775,256.164 56.435,254.769 58.235,253.835 59.695,253.428 
	60.511,254.769 61.683,255.918 62.742,255.186 64.085,255.988 64.708,257.33 66.167,256.925 67.85,257.368 69.915,257.794 
	71.165,257.051 73.09,258.509 74.953,258.772 75.823,257.708 76.326,256.661 77.467,257.29 79.091,256.536 81.502,256.607 
	83.325,256.181 83.249,254.815 83.536,253.254 83.661,252.052 84.918,251.315 86.642,252.438 88.463,252.022 90.125,251.952 
	91.669,253.254 93.37,253.868 94.48,253.813 94.782,256.034 94.852,257.4 95.844,258.735 97.909,259.332 97.033,260.224 
	97.523,262.43 98.206,264.805 99.013,266.139 100.207,267.637 101.023,269.143 101.456,270.323 101.519,271.524 100.051,271.759 
	98.905,271.122 97.616,271.176 96.683,271.043 95.838,272.45 94.412,273.543 93.299,273.589 91.422,272.975 89.762,273.053 
	89.488,274.783 88.411,275.514 87.364,276.591 88.536,277.742 89.366,279.417 88.488,280.481 86.875,281.411 85.524,280.272 
	84.19,279.463 82.187,280.07 81.906,281.792 82.535,283.143 82.233,284.524 82.674,285.874 83.995,286.339 85.874,286.945 
	86.849,287.924 86.812,290.681 87.62,292.013 89.312,292.448 90.614,292.565 91.583,293.551 92.733,294.187 "/>
<polygon fill-rule="evenodd" clip-rule="evenodd" fill="#7F7F7F" points="42.923,268.382 41.946,267.396 40.85,267.612 
	40.158,268.666 39.05,268.552 38.259,267.551 37.155,267.768 37.024,268.639 36.722,270.02 35.97,269.717 35.208,269.397 
	34.144,270.136 34.386,271.324 32.554,271.571 31.126,272.495 29.931,274.428 28.734,276.369 28.074,277.764 27.81,279.834 
	28.043,280.684 28.874,282.359 29.684,283.696 30.848,284.681 31.477,286.194 32.429,286.667 32.298,287.699 32.175,288.903 
	30.924,289.648 29.959,289.004 28.496,289.235 26.439,288.808 24.412,288.903 23.333,289.46 22.099,290.711 20.694,292.145 
	20.586,293.52 21.593,295.025 23.285,295.632 23.527,296.654 24.497,297.471 26.399,298.587 27.576,299.906 28.555,300.893 
	30.458,301.847 32.748,303.118 34.959,303.19 35.945,304.345 37.699,305.993 39.243,307.125 41.469,307.372 42.465,308.699 
	44.18,309.654 46.492,311.441 49.885,312.496 52.639,312.373 54.518,312.813 56.418,313.761 57.958,314.895 59.501,316.026 
	61.028,316.988 61.859,318.834 62.684,320.35 63.303,321.691 65.337,321.607 67.209,322.034 68.901,322.477 70.903,321.878 
	71.653,322.197 71.972,321.15 71.895,319.784 71.281,318.604 71.189,316.896 70.22,315.91 71.483,315.514 73.135,315.265 
	73.448,314.227 72.842,313.224 72.384,311.533 72.681,310.145 72.089,309.485 71.468,308.131 70.994,306.271 71.07,304.207 
	71.158,302.322 72.398,301.404 74.23,300.987 75.883,300.744 77.52,300.336 77.651,299.3 77.956,298.084 77.512,296.563 
	78.167,294.994 78.09,293.451 77.103,292.292 75.589,291.672 73.906,291.399 72.563,290.431 71.475,290.819 69.475,291.417 
	67.416,290.99 66.158,291.734 64.637,290.944 64.367,289.235 64.444,287.18 65.67,285.931 66.534,284.856 65.57,284.042 
	63.667,283.096 63.227,281.738 63.326,280.023 62.512,278.689 61.23,278.913 58.474,279.38 56.467,279.635 54.757,278.852 
	53.424,278.223 52.607,276.708 51.25,275.569 49.862,273.743 48.861,272.245 47.129,270.942 45.756,269.46 44.934,267.955 "/>
<polygon fill-rule="evenodd" clip-rule="evenodd" fill="#3A3A3A" points="72.444,323.181 73.758,323.469 75.248,323.751 
	76.403,324.553 77.699,324.673 79.173,324.61 80.68,325.06 80.433,323.875 82.475,323.95 83.792,324.416 84.949,325.387 
	86.394,324.641 87.679,324.586 89.339,324.519 89.528,321.072 90.831,321.195 90.979,320.504 91.872,319.945 93.578,320.729 
	94.907,321.366 95.823,321.15 96.994,322.296 98.295,322.585 99.292,323.921 100.455,324.89 101.45,326.224 103.341,327 
	106.394,328.756 109.885,328.435 111.833,330.237 113.324,330.51 115.03,331.3 116.328,331.248 117.652,331.875 119.322,331.976 
	121.295,330.858 122.443,331.493 123.553,331.619 124.476,331.58 126.011,332.713 127.007,333.869 128.309,334.156 130.01,334.771 
	131.398,333.164 132.573,334.318 133.408,336.167 134.014,337.168 135.357,337.967 136.653,338.084 137.996,339.054 
	138.974,340.046 140.293,340.497 141.807,341.118 142.606,342.282 155.871,337.944 153.627,337.354 151.928,336.741 
	150.958,335.756 150.188,335.274 148.854,334.475 147.782,335.204 147.176,334.194 145.891,334.429 144.554,333.629 
	145.245,332.743 142.785,331.652 141.505,331.875 140.734,331.396 139.679,332.293 138.904,331.642 137.654,332.549 
	136.698,331.907 136.264,330.727 134.979,330.789 135.093,329.579 134.131,328.763 133.875,327.574 134.418,327.202 
	134.333,325.667 133.175,324.688 131.67,324.239 129.638,324.331 127.923,323.368 126.674,324.106 126.059,323.103 125.618,321.754 
	126.113,320.527 125.858,319.17 124.686,318.023 123.591,318.411 123.172,317.4 122.266,317.609 120.804,318.014 119.487,317.556 
	119.61,316.523 120.116,315.477 119.687,314.467 118.369,314.008 119.246,312.945 116.762,311.504 115.658,311.726 114.2,312.129 
	113.045,311.152 111.569,311.387 110.77,310.049 109.482,310.275 108.328,309.298 106.865,309.702 105.221,310.113 104.405,308.779 
	102.962,309.35 101.968,308.025 101.186,307.205 101.123,306.006 99.787,305.207 98.687,305.425 97.195,305.318 96.876,306.185 
	95.799,306.743 94.69,306.543 93.774,307.008 92.873,307.388 90.848,307.474 90.057,306.48 89.17,307.205 87.495,307.101 
	85.964,306.146 84.654,305.69 84.562,303.975 84.451,301.917 84.514,299.511 83.863,297.836 81.79,297.056 80.331,297.46 
	80.036,298.851 79.352,299.906 77.52,300.336 75.883,300.744 74.23,300.987 72.398,301.404 71.158,302.322 71.07,304.207 
	70.994,306.271 71.468,308.131 72.089,309.485 72.681,310.145 72.384,311.533 72.842,313.224 73.448,314.227 73.135,315.265 
	71.483,315.514 70.22,315.91 71.189,316.896 71.281,318.604 71.895,319.784 71.972,321.15 71.653,322.197 "/>
<polygon fill-rule="evenodd" clip-rule="evenodd" fill="#7F7F7F" points="160.315,338.093 161.612,338.038 161.667,339.063 
	163.506,338.992 163.591,340.527 164.866,340.125 166.021,340.94 167.471,340.527 169.117,340.116 170.446,340.747 171.95,341.366 
	173.866,342.484 175.878,342.057 176.746,340.985 177.624,340.086 179.123,340.544 180.489,341.856 181.992,342.304 
	183.267,341.911 184.128,340.839 185.439,341.125 187.168,342.259 188.716,343.563 190.198,343.672 191.244,342.421 
	192.262,340.831 193.357,340.443 194.341,341.602 195.661,342.057 197.143,342.165 198.346,340.397 199.193,338.992 199.486,337.44 
	200.141,335.863 201.582,335.118 203.041,334.717 203.328,333.156 204.199,332.261 206.084,332.87 207.768,333.312 209.761,332.542 
	210.416,330.796 210.896,329.398 211.966,328.67 213.217,327.932 213.892,326.696 214.403,325.992 216.422,325.565 219.186,325.449 
	220.822,324.857 221.109,323.305 220.503,322.468 219.2,322.188 218.308,322.741 217.531,322.087 216.461,322.816 215.871,322.152 
	214.744,321.863 213.635,321.911 212.503,321.443 211.525,320.449 210.919,319.457 209.989,319.317 209.196,318.324 
	208.094,318.551 207.659,317.19 207.032,315.849 205.757,316.245 205.698,315.057 205.061,313.535 204.158,313.915 203.376,313.093 
	203.117,311.733 202.003,311.61 201.209,310.616 199.867,309.818 198.78,310.206 197.694,310.594 197.213,308.552 196.313,308.932 
	195.343,308.126 195.474,307.086 194.668,305.752 193.542,305.458 192.914,304.114 192.277,302.593 190.732,301.287 
	189.668,302.197 187.194,300.752 185.665,299.958 184.339,299.34 183.298,300.58 182.49,299.411 181.396,299.635 180.178,301.056 
	180.434,302.414 179.752,303.477 178.469,303.703 177.592,304.603 177.274,305.643 175.847,306.558 173.976,306.124 
	172.835,305.494 171.649,304.168 169.949,303.384 168.791,302.577 167.052,301.109 166.069,299.953 165.958,297.898 
	165.019,297.593 164.578,296.242 163.624,295.6 162.303,295.141 162.25,294.116 161.442,292.776 160.113,292.145 159.982,289.754 
	156.661,289.896 154.107,290.518 151.539,290.974 149.654,290.195 148.109,289.064 146.224,288.282 145.034,286.798 
	142.799,286.372 140.734,285.952 138.719,286.208 137.173,285.075 135.427,283.437 134.782,281.746 133.974,280.581 
	134.006,277.492 133.34,275.467 132.308,273.449 132.375,271.223 131.715,269.189 132.936,267.768 134.108,265.487 133.79,262.925 
	132.424,261.614 129.771,260.363 127.496,259.432 125.103,259.526 124.241,260.768 122.491,262.561 121.813,263.787 122.8,264.942 
	123.778,265.928 123.465,267.147 121.884,268.585 119.735,269.877 118.773,269.235 117.468,268.949 116.785,270.012 
	116.515,271.898 115.511,274.008 114.124,275.606 112.866,276.351 112.208,277.92 110.801,279.354 109.786,280.938 109.132,282.676 
	106.976,283.803 105.935,285.222 104.522,286.478 103.484,287.729 103.018,289.46 101.968,290.54 100.207,292.152 98.811,293.761 
	96.808,294.359 95.862,293.885 94.207,294.124 93.883,295.003 93.37,295.878 92.89,297.269 92.025,298.34 91.368,299.906 
	93.316,301.708 95.838,303.996 97.195,305.318 98.687,305.425 99.787,305.207 101.123,306.006 101.186,307.205 101.968,308.025 
	102.962,309.35 104.405,308.779 105.221,310.113 106.865,309.702 108.328,309.298 109.482,310.275 110.77,310.049 111.569,311.387 
	113.045,311.152 114.2,312.129 115.658,311.726 116.762,311.504 119.246,312.945 118.369,314.008 119.687,314.467 120.116,315.477 
	119.61,316.523 119.487,317.556 120.804,318.014 122.266,317.609 123.172,317.4 123.591,318.411 124.686,318.023 125.858,319.17 
	126.113,320.527 125.618,321.754 126.059,323.103 126.674,324.106 127.923,323.368 129.638,324.331 131.67,324.239 133.175,324.688 
	134.333,325.667 134.418,327.202 133.875,327.574 134.131,328.763 135.093,329.579 134.979,330.789 136.264,330.727 
	136.698,331.907 137.654,332.549 138.904,331.642 139.679,332.293 140.734,331.396 141.505,331.875 142.785,331.652 
	145.245,332.743 144.554,333.629 145.891,334.429 147.176,334.194 147.782,335.204 148.854,334.475 150.188,335.274 
	150.958,335.756 151.928,336.741 153.627,337.354 155.871,337.944 157.748,338.377 159.007,337.635 "/>
<polygon fill-rule="evenodd" clip-rule="evenodd" fill="#FFFFFF" points="240.636,259.015 239.999,257.501 238.122,256.895 
	237.073,257.966 237.314,259.16 235.895,260.253 235.304,259.589 233.489,260.178 233.441,259.332 231.609,259.579 231.555,258.557 
	229.53,258.812 228.567,258.159 226.931,258.578 225.773,257.772 224.875,258.152 223.354,257.36 222.46,257.911 220.799,257.982 
	220.017,257.16 219.417,256.329 218.572,257.911 216.942,258.495 215.776,257.516 215.282,258.563 214.147,258.098 212.889,258.842 
	210.857,258.928 209.01,258.835 208.041,258.019 206.627,259.277 204.602,259.543 202.228,259.983 199.657,260.262 198.462,258.772 
	196.98,258.671 196.483,259.719 196.755,261.421 195.041,260.464 193.79,261.202 191.756,261.288 189.972,262.568 188.132,262.646 
	188.374,263.663 186.534,263.918 186.408,265.122 185.525,265.843 183.847,265.58 181.28,265.859 179.789,265.749 178.54,266.489 
	177.297,267.566 176.808,268.794 176.305,269.848 175.2,269.887 174.101,270.114 173.23,271.176 171.034,271.439 169.374,271.517 
	168.116,272.253 166.991,271.959 165.532,272.363 164.206,271.742 162.016,272.349 160.682,271.547 159.812,272.611 
	159.982,289.754 160.113,292.145 161.442,292.776 162.25,294.116 162.303,295.141 163.624,295.6 164.578,296.242 165.019,297.593 
	165.958,297.898 166.069,299.953 167.052,301.109 168.791,302.577 169.949,303.384 171.649,304.168 172.835,305.494 
	173.976,306.124 175.847,306.558 177.274,305.643 177.592,304.603 178.469,303.703 179.752,303.477 180.434,302.414 
	180.178,301.056 181.396,299.635 182.49,299.411 183.298,300.58 184.339,299.34 185.665,299.958 187.194,300.752 189.668,302.197 
	190.732,301.287 192.277,302.593 192.914,304.114 193.542,305.458 194.668,305.752 195.474,307.086 195.343,308.126 
	196.313,308.932 197.213,308.552 197.694,310.594 198.78,310.206 199.867,309.818 201.209,310.616 202.003,311.61 203.43,310.686 
	209.11,306.154 209.019,304.445 210.259,303.368 211.57,303.825 212.819,302.911 213.698,302.02 213.814,300.808 214.514,299.923 
	215.995,300.031 215.35,298.347 215.25,296.461 216.059,294.204 216.095,291.447 216.167,289.219 215.359,288.056 214.909,286.535 
	216.126,285.108 217.999,285.371 219.542,286.674 221.638,287.785 222.694,286.882 223.354,285.308 224.959,284.214 
	226.759,283.274 228.786,283.198 230.011,281.94 230.864,280.528 233.085,280.604 234.732,280.186 236.228,280.464 237.533,280.751 
	239.348,280.164 240.426,279.425 242.086,279.527 243.338,278.619 244.603,278.053 245.898,278.168 248.096,277.728 
	250.104,277.299 250.795,276.414 251.315,275.701 251.989,274.482 253.604,273.55 254.467,272.31 254.022,270.959 253.084,270.655 
	251.836,271.571 250.699,271.1 249.646,272.006 247.778,271.742 246.899,272.644 243.509,271.407 242.112,272.844 241.117,271.688 
	239.613,271.066 238.316,271.122 237.656,269.088 236.856,267.924 236.048,266.759 234.706,265.789 233.216,265.682 232.07,264.873 
	"/>
<polygon fill-rule="evenodd" clip-rule="evenodd" fill="#C6C6C6" points="222.087,324.285 223.92,324.035 225.193,323.641 
	225.795,324.648 226.038,325.667 227.73,326.101 228.862,326.575 229.942,326.008 231.316,327.491 232.278,328.313 230.491,329.414 
	232.031,330.547 232.804,331.199 233.068,332.729 235.32,333.319 236.375,332.247 238.651,333.351 239.55,332.969 240.327,333.622 
	242.926,333.853 244.115,335.343 245.627,335.964 247.126,336.237 247.979,334.841 249.267,334.779 250.587,335.242 
	249.708,336.136 248.459,337.043 247.985,338.604 249.469,338.549 249.74,340.25 249.452,341.801 248.545,342.189 248.42,343.214 
	249.407,344.378 250.556,345.188 249.708,346.598 248.443,347.155 249.048,348.165 250.709,348.097 250.965,349.454 
	252.308,350.431 253.371,349.523 254.054,348.46 252.37,348.018 253.434,347.118 255.104,347.219 256.384,346.993 258.036,346.746 
	257.354,347.978 257.246,349.354 258.564,349.811 259.831,349.244 260.333,348.36 261.896,349.842 262.197,348.623 263.081,347.9 
	264.248,348.88 264.866,350.06 264.167,350.942 264.998,352.628 266.583,351.013 267.916,351.814 269.382,351.572 269.662,349.85 
	269.801,348.988 270.501,348.273 270.626,347.066 269.468,346.257 267.776,345.642 268.274,344.595 266.932,343.617 
	265.939,342.292 265.308,340.949 266.007,340.234 266.869,338.992 265.914,338.526 265.846,337.152 265.953,335.608 264.44,334.986 
	262.731,334.194 261.196,333.241 259.682,332.442 257.819,332.185 256.087,330.89 255.073,329.211 254.624,327.689 254.529,311.923 
	256.54,311.494 257.425,310.764 259.287,311.028 260.948,310.959 262.197,310.049 263.431,308.965 264.756,309.592 266.729,308.305 
	267.421,307.42 268.724,307.707 270.438,308.662 272.659,308.568 273.434,309.389 274.576,309.856 275.624,308.779 277.471,308.699 
	276.665,307.367 275.694,306.552 276.75,305.651 276.314,304.291 277.392,303.733 275.865,302.942 276.175,301.73 275.569,300.729 
	274.213,299.581 272.534,299.309 270.828,298.532 269.981,299.938 268.445,298.805 267.561,299.697 266.079,299.587 
	265.649,298.581 264.167,298.473 262.911,299.208 262.125,298.223 261.209,298.434 260.333,299.326 259.044,299.551 
	258.999,284.633 258.036,283.818 257.083,283.345 255.064,283.601 253.565,283.323 252.379,281.831 251.401,280.845 
	250.073,280.216 250.198,279.014 251.27,278.283 251.393,277.081 251.315,275.701 250.104,277.299 248.096,277.728 245.898,278.168 
	244.603,278.053 243.338,278.619 242.086,279.527 240.426,279.425 239.348,280.164 237.533,280.751 236.228,280.464 
	234.732,280.186 233.085,280.604 230.864,280.528 230.011,281.94 228.786,283.198 226.759,283.274 224.959,284.214 223.354,285.308 
	222.694,286.882 221.638,287.785 219.542,286.674 217.999,285.371 216.126,285.108 214.909,286.535 215.359,288.056 
	216.167,289.219 216.095,291.447 216.059,294.204 215.25,296.461 215.35,298.347 215.995,300.031 214.514,299.923 213.814,300.808 
	213.698,302.02 212.819,302.911 211.57,303.825 210.259,303.368 209.019,304.445 209.11,306.154 203.43,310.686 202.003,311.61 
	203.117,311.733 203.376,313.093 204.158,313.915 205.061,313.535 205.698,315.057 205.757,316.245 207.032,315.849 207.659,317.19 
	208.094,318.551 209.196,318.324 209.989,319.317 210.919,319.457 211.525,320.449 212.503,321.443 213.635,321.911 
	214.744,321.863 215.871,322.152 216.461,322.816 217.531,322.087 218.308,322.741 219.2,322.188 220.503,322.468 221.109,323.305 
	"/>
<polygon fill-rule="evenodd" clip-rule="evenodd" fill="#7F7F7F" points="142.598,342.113 155.871,337.944 157.748,338.377 
	159.007,337.635 160.315,338.093 161.612,338.038 161.667,339.063 163.506,338.992 163.591,340.527 164.866,340.125 166.021,340.94 
	167.471,340.527 169.117,340.116 170.446,340.747 171.95,341.366 173.866,342.484 175.878,342.057 176.746,340.985 177.624,340.086 
	179.123,340.544 180.489,341.856 181.992,342.304 183.267,341.911 184.128,340.839 185.439,341.125 187.168,342.259 
	188.716,343.563 190.198,343.672 191.244,342.421 192.262,340.831 193.357,340.443 194.341,341.602 195.661,342.057 
	197.143,342.165 198.346,340.397 199.193,338.992 199.486,337.44 200.141,335.863 201.582,335.118 203.041,334.717 203.328,333.156 
	204.199,332.261 206.084,332.87 207.768,333.312 209.761,332.542 210.416,330.796 210.896,329.398 211.966,328.67 213.217,327.932 
	213.892,326.696 214.403,325.992 216.422,325.565 219.186,325.449 220.822,324.857 221.109,323.305 222.087,324.285 223.92,324.035 
	225.193,323.641 225.795,324.648 226.038,325.667 227.73,326.101 228.862,326.575 229.942,326.008 231.316,327.491 232.278,328.313 
	230.491,329.414 232.031,330.547 232.804,331.199 233.068,332.729 235.32,333.319 236.375,332.247 238.651,333.351 239.55,332.969 
	240.327,333.622 242.926,333.853 244.115,335.343 245.627,335.964 247.126,336.237 247.979,334.841 249.267,334.779 
	250.587,335.242 249.708,336.136 248.459,337.043 247.985,338.604 249.469,338.549 249.74,340.25 249.452,341.801 248.545,342.189 
	248.42,343.214 249.407,344.378 250.556,345.188 249.708,346.598 248.443,347.155 249.048,348.165 250.709,348.097 250.965,349.454 
	252.308,350.431 253.371,349.523 254.054,348.46 252.37,348.018 253.434,347.118 255.104,347.219 256.384,346.993 258.036,346.746 
	257.354,347.978 257.246,349.354 258.564,349.811 259.831,349.244 260.333,348.36 261.896,349.842 262.197,348.623 263.081,347.9 
	264.248,348.88 264.866,350.06 264.167,350.942 264.998,352.628 266.583,351.013 267.916,351.814 269.382,351.572 269.662,349.85 
	269.801,348.988 270.501,348.273 271.488,349.432 270.68,351.525 270.586,353.411 271.03,354.763 270.555,356.322 269.918,358.24 
	270.168,359.434 258.021,419.971 256.873,419.166 256.423,417.642 255.095,417.006 254.856,415.99 254.776,414.454 253.986,413.63 
	252.302,413.188 251.347,412.544 250.175,411.395 249.561,410.386 247.877,409.951 246.643,411.029 245.408,412.281 
	243.352,411.681 241.863,411.574 239.657,411.845 238.154,411.395 255.001,387.344 254.319,384.976 252.37,386.428 252.473,384.891 
	251.184,385.109 250.933,383.92 250.507,382.739 248.523,383.681 247.387,383.216 248.636,382.305 247.319,381.847 246.06,382.586 
	245.053,380.916 244.152,381.47 242.818,380.669 242.329,381.887 240.846,381.785 240.582,380.427 239.967,379.248 238.292,378.978 
	237.127,378.007 235.847,378.232 235.609,377.208 234.274,376.409 232.821,376.989 231.293,376.028 231.581,378.068 229.53,377.642 
	228.048,377.532 227.73,378.573 227.25,379.969 225.603,380.381 224.656,379.907 223.026,380.5 221.746,380.724 220.386,379.574 
	219.565,378.068 218.945,380.327 218.263,377.783 216.4,377.525 215.436,376.873 213.06,377.321 212.791,375.786 211.525,376.354 
	210.066,376.764 209.591,378.332 209.281,379.363 208.194,379.762 208.064,380.793 206.403,380.871 204.531,380.438 
	203.113,381.523 201.901,383.113 200.596,383.005 199.136,383.401 197.501,383.822 196.172,383.193 194.31,382.927 192.487,383.354 
	191.15,382.725 190.019,382.084 189.156,383.323 188.273,384.218 187.449,382.709 186.782,383.937 184.384,384.044 182.188,384.478 
	181.39,383.315 181.529,382.453 180.215,382.166 178.545,382.065 176.863,381.623 176.265,380.784 175.443,379.288 176.529,378.891 
	177.211,377.835 178.283,377.106 177.306,376.12 178.207,375.563 177.035,374.413 177.143,373.033 177.081,371.838 175.955,371.541 
	176.081,370.337 174.603,370.4 174.536,369.205 173.862,370.26 172.727,369.796 171.649,370.524 169.98,370.433 168.862,370.136 
	167.874,368.979 166.761,368.857 165.781,367.863 166.074,366.48 167.681,365.379 166.37,365.099 167.233,363.867 165.896,363.061 
	164.934,362.413 165.261,361.545 164.104,360.738 164.041,359.535 162.708,358.746 161.746,358.1 157.112,357.78 156.149,357.138 
	155.521,355.785 154.906,354.615 153.652,355.36 152.517,354.894 151.912,353.884 149.84,353.125 148.334,352.666 146.875,353.07 
	145.717,352.1 146.022,350.879 145.417,349.88 146.107,348.997 145.308,347.832 144.344,347.181 142.629,346.224 144.064,345.308 
	143.818,344.123 "/>
<polygon fill-rule="evenodd" clip-rule="evenodd" fill="#FFFFFF" points="122.001,64.528 120.147,64.428 117.763,64.878 
	116.342,65.973 115.304,67.215 114.029,67.62 113.703,68.487 112.073,69.069 110.411,69.138 109.55,70.373 109.442,71.753 
	109.692,73.112 109.769,74.487 109.644,75.69 110.613,76.504 110.864,77.691 112.153,77.638 113.3,78.443 113.548,79.632 
	115.016,79.397 116.884,79.833 117.84,80.306 119.051,82.138 119.936,81.424 120.417,80.027 120.915,78.98 121.396,77.59 
	121.705,76.372 122.738,74.952 123.236,73.904 123.15,72.359 122.9,71.172 123.568,69.775 122.948,68.425 123.002,66.028 "/>
</svg>
