<?xml version="1.0" encoding="UTF-8" standalone="no"?>
<!-- Created with Inkscape (http://www.inkscape.org/) -->
<svg id="svg2" xmlns:rdf="http://www.w3.org/1999/02/22-rdf-syntax-ns#" xmlns="http://www.w3.org/2000/svg" viewBox="0 0 768.12 1095" version="1.0" xmlns:cc="http://creativecommons.org/ns#" xmlns:dc="http://purl.org/dc/elements/1.1/">
 <metadata id="metadata7">
  <rdf:RDF>
   <cc:Work rdf:about="">
    <dc:format>image/svg+xml</dc:format>
    <dc:type rdf:resource="http://purl.org/dc/dcmitype/StillImage"/>
    <dc:title/>
   </cc:Work>
  </rdf:RDF>
 </metadata>
 <g id="g2161" transform="translate(-191.29 -32.879)">
  <g stroke="#b3b3b3" stroke-width=".40207" fill="#b3b3b3">
   <path id="CO-AMA" d="m793.37 1041.7c14.22-79.802 15.163-85.696 15.275-95.453 0.0777-6.7598-0.16685-10.399-0.69879-10.399-0.45008 0-0.81833 1.4952-0.81833 3.3227 0 2.8419-0.30293 3.444-2.0938 4.1617-1.5716 0.62982-2.6947 0.53092-4.5038-0.39677-2.2983-1.1785-2.4296-1.1514-2.8326 0.58533-0.28938 1.2469-1.122 1.9065-2.641 2.092-3.178 0.3881-3.823-0.73029-2.4372-4.226 1.6524-4.1683 1.524-4.7133-1.1107-4.7133-2.7769 0-3.542-1.0453-2.4047-3.2852 1.3525-2.6637-1.2914-2.1286-3.567 0.72178-1.4057 1.7608-2.7842 2.4877-5.2365 2.7609-1.8306 0.204-3.5902 0.22274-3.91 0.0417-0.83212-0.47082 2.2816-6.6094 3.8098-7.5108 1.9851-1.1709 0.0368-1.9174-3.4642-1.3273-4.3502 0.73318-5.1998 1.4242-4.1919 3.4092 0.69744 1.3736 0.31641 2.1454-2.4647 4.9928l-3.2897 3.3681-3.4156-3.1315c-2.1117-1.936-3.0834-3.3478-2.5456-3.6982 1.3901-0.90547 1.0068-2.1204-0.66903-2.1204-2.7773 0-3.3321-2.7364-1.1786-5.8131 1.6384-2.3406 1.7648-2.9321 0.86295-4.0372-1.6524-2.0248-2.7721-6.2786-1.9937-7.5742 0.3802-0.63288 0.69667-2.5438 0.70327-4.2465 0.0104-2.6965-0.22376-3.0958-1.8156-3.0958-3.1186 0-3.0263-1.0077 0.43925-4.7986l3.3465-3.6606-2.3498 0.60233c-2.6926 0.69033-7.1108 0.73697-8.7054 0.092-0.59695-0.2414-1.0964-1.4723-1.11-2.7352-0.0156-1.4551-0.7157-2.8259-1.9113-3.7423-1.8107-1.3877-1.9969-1.3774-4.6226 0.25535l-2.7359 1.7014-0.86323-1.7001c-0.47478-0.93503-1.4399-1.7001-2.1447-1.7001-0.70481 0-1.955-0.64237-2.7781-1.4276-1.2962-1.2364-1.5857-1.264-2.162-0.20639-1.9604 3.5978-2.7078 4.1018-5.0806 3.427-2.1055-0.59886-2.3956-1.0825-2.79-4.652-0.32204-2.9146-0.97655-4.4503-2.4387-5.7221-1.623-1.4118-1.9333-2.2814-1.651-4.6282 0.27788-2.3098-0.0533-3.2866-1.6504-4.8682-1.5237-1.5087-2.2471-1.7606-3.0471-1.0608-1.7804 1.5573-6.8783-0.57624-7.7622-3.2487-0.66729-2.0176-1.1693-2.2628-5.1901-2.535-2.4482-0.16577-4.6914 0.0603-4.9847 0.50252-0.29336 0.44209-3.4343 1.6383-6.9798 2.6582-8.2075 2.3609-15.677 7.4731-17.647 12.078-1.9014 4.4444-5.6002 6.3841-10.103 5.298-4.0273-0.97136-5.8586-0.37951-5.8586 1.8934 0 1.1744-1.0383 2.2194-3.4136 3.4358-3.0368 1.555-3.7934 2.5658-6.8536 9.1562-2.813 6.0581-3.9566 7.6865-6.2748 8.9352l-2.8348 1.527-1.8055-2.0256c-2.5355-2.8447-3.896-2.5024-6.8442 1.7216-3.5919 5.1464-6.1201 5.1026-9.9414-0.17229-4.4659-6.1646-5.1747-6.4641-9.6476-4.0751l-3.8045 2.032-2.2917-1.9746c-3.0129-2.596-5.3266-2.5852-6.4571 0.03-1.2464 2.8832-6.2569 2.8451-11.108-0.0844-2.4064-1.4532-6.3827-2.6316-12.532-3.7143-10.718-1.8869-11.253-2.0656-10.702-3.5776 0.29712-0.81607-0.66931-1.564-3.1913-2.4697-1.9896-0.71452-4.3161-1.2992-5.1699-1.2992-1.0876 0-34.15 9.5626-35.482 10.262-0.0599 0.0315 0.2926 2.3429 0.78326 5.1365 0.63621 3.6223 1.6492 6.0709 3.5313 8.5364 2.1949 2.8751 2.5067 3.7635 1.8522 5.2775-1.2615 2.9183 0.78131 5.8582 6.0203 8.6643 3.9799 2.1317 4.7747 2.3157 5.5806 1.2923 1.5055-1.9119 2.9328-1.387 3.4893 1.2833 0.4381 2.1024 0.8914 2.4836 2.9995 2.5228 2.0502 0.0381 3.0712 0.83101 5.8536 4.5463 2.9178 3.8961 3.5765 4.3839 4.9064 3.6337 0.84485-0.4766 2.6767-0.6318 4.0707-0.345 2.8612 0.58871 8.3729 7.4678 13.015 16.244l2.6475 5.0053-1.6684 3.6194c-0.91761 1.9908-1.6684 3.9285-1.6684 4.3061s1.9451 2.0478 4.3225 3.7116l4.3225 3.0249 4.297-1.3166c4.2257-1.2948 4.3347-1.2849 6.5734 0.6005 2.7366 2.3048 4.4885 6.2788 5.1718 11.731 0.27813 2.2195 1.0445 5.2263 1.7031 6.6819 1.1685 2.5826 1.1296 2.746-1.609 6.7637l-2.8063 4.1171 2.5238 2.5216c1.7682 1.7666 3.6378 2.6888 6.2444 3.0798 3.1385 0.4709 3.7224 0.8408 3.7325 2.3651 0.0235 3.5416 0.85098 3.9077 5.771 2.5536 4.1718-1.1483 4.6325-1.1391 5.4993 0.1103 0.84036 1.2114 1.1599 1.0328 2.8603-1.5985 2.114-3.2714 3.1598-3.635 4.7275-1.644 0.8703 1.1053 2.0511 1.2373 7.0008 0.7821 5.8424-0.5371 5.971-0.5079 6.8649 1.56 0.7099 1.6422 1.4766 2.103 3.4734 2.0876 5.4848-0.042 8.7538-1.4633 12.2-5.304 2.979-3.3197 3.7622-3.7574 6.7212-3.7574 3.1394 0 3.706-0.3879 9.0454-6.1918 3.1329-3.4054 5.9842-6.1917 6.3362-6.1917 0.35205 0 0.87986 1.1507 1.1729 2.557 0.46695 2.2409 0.78943 2.5012 2.6078 2.1055 2.7461-0.5977 8.4363 1.8795 9.6052 4.1816 1.0586 2.0848 2.2606 1.746 2.2606-0.6372 0-3.3547 2.2062-1.5466 3.1449 2.5774 0.76193 3.3476 1.2063 4.0712 2.2321 3.6346 0.70442-0.2999 4.1945-0.7476 7.7557-0.9948 5.9395-0.4124 6.5124-0.6069 6.9281-2.3525 0.36833-1.5469 1.0624-1.9499 3.7075-2.1532 2.6912-0.2067 3.2977-0.5715 3.5046-2.1075 0.28304-2.1005 1.8448-2.4348 3.2193-0.6892 0.69292 0.8801 1.5369 0.982 3.4196 0.4128 3.2921-0.9951 3.6849-0.9587 3.6849 0.3417 0 0.6034 1.8285 1.9965 4.0633 3.0959 4.6007 2.2629 6.733 4.3079 7.8253 7.5049 1.1229 3.2866 2.9934 3.6987 2.9934 0.6595 0-2.8657 1.9604-3.3935 2.7586-0.7427 0.86786 2.882 4.9585 4.8899 9.9694 4.8933 4.6229 0 5.6387 0.9267 3.5247 3.2045-0.79251 0.8538-0.41936 0.9465 1.9582 0.486 2.3924-0.4634 2.9372-0.3246 2.9372 0.7483 0 0.7245 0.99208 2.4875 2.2046 3.9178 1.9046 2.2467 2.4306 2.4732 3.8648 1.6642 2.6481-1.4938 3.0881-1.1572 3.5964 2.7518 0.4795 3.6872 0.47384 3.6978-18.777 35.265-14.75 24.187-19.08 31.873-18.502 32.843 0.4146 0.6961 2.3032 1.4864 4.1968 1.7561s4.4504 0.9259 5.6818 1.4582c1.9708 0.8521 2.7534 0.6742 6.5371-1.4858 3.2683-1.8658 4.8903-2.3306 6.7687-1.9401 4.5204 0.94 7.2251 3.5036 8.7786 8.3208 1.4132 4.3819 9.8502 16.777 10.348 15.203 0.13799-0.4363 7.071-39.068 15.407-85.847z"/>
   <path id="CO-VAU" d="m796.16 941.65c0-2.3447 1.0547-2.6666 4.1996-1.2816 3.9418 1.736 4.414 1.5815 4.4337-1.4502 0.01-1.4757 0.68977-3.6054 1.5115-4.7327l1.4941-2.0495-2.5708-3.3166c-1.414-1.8241-3.1918-4.6168-3.9508-6.206-0.75896-1.5892-2.293-3.918-3.409-5.175-1.98-2.2302-1.9968-2.3431-0.69385-4.668 0.88164-1.5731 1.3342-4.1622 1.3322-7.6213l-0.003-5.2388-7.6338-3.9534c-4.1986-2.1744-8.0753-3.9391-8.6149-3.9214-1.4161 0.0462-6.5513-6.1967-8.1042-9.8523-0.72912-1.7165-1.7148-3.3744-2.1905-3.6842-0.59326-0.38653-0.86483-6.9847-0.86483-21.013v-20.449l3.7205-1.7441c2.0463-0.95922 5.6591-2.1664 8.0284-2.6828 7.434-1.6199 8.2105-1.9793 8.4746-3.9212 0.30782-2.264 1.7979-2.3655 3.6174-0.24643 1.3446 1.5661 1.4411 1.5438 5.4084-1.2511 5.9319-4.1789 5.8133-4.1703 9.2178-0.66632 2.4825 2.555 3.2494 2.9627 3.8016 2.0209 0.59088-1.0077 1.1447-0.96442 3.7982 0.29679 4.5987 2.1857 8.6856 0.34153 4.8452-2.1863-1.9458-1.2808-1.9523-1.8719-0.0521-4.6846 2.2416-3.3181 2.7331-6.1896 1.2773-7.4631-0.67388-0.58953-1.2252-2.1586-1.2252-3.4868 0-2.8851-2.8482-5.9644-6.7827-7.333-2.3216-0.80765-2.9408-0.72872-4.2759 0.54487-1.2368 1.1797-1.8556 1.2954-2.9781 0.55651-0.98889-0.65087-2.4263-0.69355-4.7588-0.14117-2.9552 0.69991-3.4712 0.59713-4.4582-0.88822-0.79679-1.199-1.9869-1.6797-4.1586-1.6797-1.6733 0-3.2712-0.39008-3.5507-0.86692-0.31745-0.54141-1.4916-0.0764-3.127 1.2383-1.4403 1.1579-2.9947 2.1053-3.4542 2.1053-0.56908 0-0.83552-6.4397-0.83552-20.194v-20.194l-4.0585-1.2703c-2.2322-0.69868-5.0206-1.2703-6.1965-1.2703-1.4529 0-2.8207-0.85975-4.2685-2.6831-1.1718-1.4757-2.7892-2.9497-3.5943-3.2756-2.131-0.86263-2.0566-6.8461 0.10269-8.2674 1.7403-1.1455 2.2101-5.5994 0.58745-5.569-0.53849 0.0101-1.8602 0.74484-2.9372 1.6328-1.2535 1.0334-3.2266 1.6305-5.4828 1.659-1.9386 0.0245-4.207 0.58863-5.041 1.2536-0.83399 0.66493-4.5349 2.1799-8.2243 3.3666-6.0315 1.9401-7.464 2.1013-14.207 1.5984l-7.4987-0.55927-4.2502 4.468c-3.0778 3.2355-5.436 4.8814-8.5488 5.9664-2.3642 0.82408-5.3417 2.167-6.6168 2.9843-2.2443 1.4385-2.3966 1.435-4.7713-0.11194l-2.453-1.5979-1.5787 2.2506c-2.6915 3.8371-4.1712 7.4262-4.1712 10.117 0 1.4204-1.4537 5.8803-3.2304 9.9108l-3.2304 7.3282 1.6109 3.2574c1.8126 3.6654 1.6059 4.2464-1.5113 4.2464-1.8782 0-2.2562 0.40684-2.7013 2.908-0.34424 1.934-1.4632 3.7295-3.3412 5.3611-2.4588 2.1362-2.9694 2.2994-3.9526 1.2632-0.98312-1.0362-1.3494-0.68893-2.8355 2.6881-1.0811 2.4568-4.0552 6.2058-8.1153 10.229l-6.4087 6.3513 0.98088 3.3126c0.76565 2.5857 1.414 3.3658 2.955 3.5554 1.5957 0.1964 2.0211 0.75721 2.2195 2.926 0.1564 1.7096 0.66848 2.6831 1.4115 2.6831 0.6413 0 1.528 1.0946 1.9705 2.4324 0.69436 2.0994 1.2517 2.4667 4.0714 2.6831 3.0547 0.23437 3.2828 0.42475 3.5122 2.9315 0.2713 2.9653 3.6368 6.2635 7.4015 7.2538 1.1902 0.31306 2.46 1.1267 2.8218 1.8082 0.5476 1.0314 1.3007 1.0935 4.4938 0.37076 3.4873-0.78932 4.1384-0.682 7.1648 1.1804 1.8309 1.1267 3.3289 2.4044 3.3289 2.8394 0 0.43491 1.7576 0.79072 3.9058 0.79072 3.693 0 3.9658 0.15125 5.0063 2.7761 1.2369 3.1202 4.5195 4.432 6.0924 2.4345 0.76077-0.96616 1.4972-0.56254 4.3528 2.3858 2.8525 2.945 3.4004 4.0048 3.2212 6.2304-0.16092 1.9982 0.2282 3.0097 1.5266 3.9682 1.2136 0.89598 1.7426 2.1289 1.7426 4.0616 0 6.047 2.0089 7.0861 4.7295 2.4464l1.7242-2.9405 1.719 1.7021c0.94546 0.93619 2.477 1.7022 3.4033 1.7022 0.92636 0 2.0538 0.72765 2.5053 1.6169 0.81317 1.6015 0.84561 1.6017 3.3935 0.0172l2.5725-1.5998 2.9001 2.5196c1.9518 1.6957 2.9001 3.2033 2.9001 4.6101 0 1.9458 0.2033 2.0592 2.9372 1.6378 1.6155-0.24907 4.0784-0.70107 5.4732-1.0045 1.3948-0.3034 3.1302-0.31141 3.8565-0.0177 1.1001 0.44498 0.76516 1.1305-2.007 4.1077-3.1301 3.3616-3.2264 3.6014-1.6234 4.0433 1.5277 0.42103 1.6631 0.88137 1.3081 4.4466-0.21778 2.1873-0.63513 4.9334-0.92746 6.1024-0.40044 1.6014-0.0449 2.735 1.442 4.5976l1.9735 2.4721-1.9529 3.4517-1.9529 3.4517h2.6553c3.4469 0 3.8922 0.57384 2.3591 3.04-1.194 1.9208-1.1598 2.1299 0.66209 4.0501l1.9211 2.0248 2.1903-2.4096c2.1072-2.3182 2.1415-2.4883 0.90265-4.4811-1.5834-2.5472-1.1131-2.9297 5.3512-4.3515 4.4196-0.9721 4.893-0.92644 7.0311 0.6782 2.1892 1.643 2.2259 1.7708 0.8157 2.8387-4.5161 3.4199-5.4353 5.2147-2.6706 5.2147 0.85114 0 2.6701-1.3003 4.0422-2.8895 1.6625-1.9256 3.1929-2.8895 4.588-2.8895 2.7256 0 3.1883 0.57789 2.3417 2.925-0.63145 1.7505-0.4632 1.9534 1.8123 2.1854 2.1124 0.21539 2.497 0.58161 2.4363 2.3197-0.0397 1.1352-0.34222 3.0855-0.67236 4.3342-0.39439 1.4917-0.30251 2.2703 0.26793 2.2703 0.4775 0 0.86817-0.72105 0.86817-1.6024z"/>
   <path id="CO-CAQ" d="m627.59 908.14c2.9487-4.2248 4.3397-4.5279 7.2578-1.5811 3.2557 3.2876 5.2627 1.7593 9.415-7.1697 2.881-6.1951 3.956-7.7007 6.59-9.229 2.0064-1.1642 3.2402-2.5113 3.4033-3.7159 0.35857-2.6485 3.4222-3.717 7.2194-2.5179 4.2389 1.3386 7.1961-0.082 9.0136-4.3302 2.0456-4.7812 10.001-10.432 17.583-12.489 8.1303-2.206 9.9107-4.1276 5.9134-6.3824-1.4794-0.83448-2.8662-0.88517-6.0523-0.22117-3.8824 0.80905-4.2389 0.74111-5.876-1.1209-0.9586-1.0902-2.1368-1.9822-2.6183-1.9822-0.48144 0-2.3908-1.099-4.243-2.4421-2.7993-2.03-3.3034-2.7964-2.987-4.5406 0.35762-1.9719 0.18661-2.0985-2.8333-2.0985-2.945 0-3.3117-0.24676-4.3828-2.9489-0.64295-1.6219-1.5045-2.7303-1.9146-2.4632-0.99421 0.64765-1.9377-1.0782-1.988-3.6364-0.0322-1.6364-0.5287-2.1626-2.3588-2.4997-1.7952-0.33072-2.4367-0.98514-2.8439-2.9014-0.28918-1.3609-1.1012-3.8675-1.8045-5.5702-1.3772-3.3343-3.1019-3.8853-7.1202-2.2751-1.8202 0.72939-2.1954 0.55032-3.3709-1.6084-0.72748-1.336-2.1198-2.8119-3.094-3.2797-0.97831-0.46983-1.7713-1.5883-1.7713-2.4983 0-0.98523-0.91843-2.1482-2.2846-2.8928-1.3497-0.73566-2.634-2.349-3.1386-3.9426-0.94853-2.9958-10.692-12.795-14.367-14.449-1.8401-0.82829-2.6599-0.80418-4.3714 0.1287-1.771 0.96533-2.3368 0.97086-3.5512 0.0348-1.2766-0.98382-1.6708-0.83002-3.389 1.3222-1.6796 2.1039-1.8335 2.771-1.13 4.8981 0.78013 2.3587 0.66772 2.5531-2.6668 4.6128-1.9147 1.1827-3.4813 2.4612-3.4813 2.8413 0 0.38-0.99113 1.4347-2.2025 2.3439-2.0053 1.5051-2.5838 1.5642-6.4619 0.6607-4.0145-0.9352-4.2737-1.148-4.5078-3.7016-0.2142-2.3369-0.97524-3.2004-5.5367-6.2821-6.4257-4.3412-10.03-8.9106-10.745-13.62-0.55648-3.668-7.4947-14.056-10.532-15.77-0.98636-0.55639-1.5266-1.7274-1.5266-3.3088 0-2.3029-0.18427-2.4476-3.1152-2.4476-1.7134 0-5.3842 0.90017-8.1574 2.0004-5.0392 1.9992-5.0431 1.9994-6.4639 0.34463-0.78191-0.91066-2.6353-2.1902-4.1186-2.8435-1.4833-0.65324-4.1882-2.4757-6.0109-4.0499-4.0389-3.4883-5.0592-3.8996-14.302-5.7655-7.3118-1.4762-7.3125-1.4766-9.4904-5.1646-1.5692-2.6572-2.3144-5.2347-2.6658-9.2201-0.26829-3.0425-1.6844-9.5062-3.147-14.364-2.2701-7.5396-2.6017-9.6466-2.2661-14.399 0.34943-4.9483 0.69355-5.8982 3.0978-8.5507 2.4311-2.6822 2.6488-3.298 2.1523-6.0874-0.41348-2.323-1.1608-3.441-2.9719-4.446-1.3307-0.73844-3.6096-2.55-5.0642-4.0257s-3.2598-2.6831-4.0115-2.6831c-0.75174 0-2.0259-0.76763-2.8315-1.7058-1.3836-1.6114-1.5204-1.6256-2.4712-0.25499-0.55359 0.79796-1.0065 2.417-1.0065 3.5978 0 1.4644-1.141 3.3171-3.5891 5.8275-3.3421 3.4273-3.5647 3.918-3.2354 7.1319 0.50422 4.9205-2.5847 8.7866-8.1432 10.192-3.9107 0.98882-4.0808 1.157-6.234 6.1622-1.2175 2.8301-3.9334 7.1474-6.0353 9.594-2.102 2.4466-5.2046 7.1844-6.8949 10.529-2.2438 4.4392-4.2358 7.0528-7.3811 9.6841-2.3694 1.9822-5.9466 5.7474-7.9494 8.3672s-5.9126 7.7353-8.6885 11.368l-5.047 6.6045-4.997 0.0916-4.997 0.0916-2.1981 3.6234c-1.2089 1.9929-2.7367 4.9237-3.395 6.5129-1.1324 2.7335-1.11 2.9506 0.41407 4.0221 0.88607 0.62297 1.611 1.9748 1.611 3.0041 0 1.2754 0.4364 1.8349 1.3703 1.7568 0.83332-0.0698 1.461 0.55205 1.6016 1.5866 0.37326 2.7462 4.6355 4.8567 10.735 5.316l5.4828 0.41278 0.44054 3.4789c0.51519 4.0684 2.5891 6.8406 5.1175 6.8406 0.9848 0 2.0084 0.3715 2.2746 0.82556 0.26625 0.45406 2.3811 0.82556 4.6996 0.82556s4.4333 0.3715 4.6996 0.82556c0.26625 0.45406 1.5294 0.82556 2.807 0.82556 1.7435 0 2.5047 0.50376 3.0514 2.0195 0.80215 2.2237 4.6551 3.4542 8.433 2.693 3.2787-0.66061 6.4651 1.4532 6.4651 4.2888 0 1.295 0.5287 2.8169 1.1749 3.3822 0.64619 0.56526 1.1749 2.0513 1.1749 3.3022 0 2.9558 1.5648 4.241 6.1016 5.011 2.029 0.34443 4.6956 1.0353 5.9257 1.5353 2.2146 0.90019 2.2339 0.96789 1.9582 6.8818l-0.27843 5.9726 3.133 0.26732c1.7232 0.14711 3.7419 0.84719 4.486 1.5558 0.90033 0.85735 2.2106 1.1423 3.9163 0.8519 2.034-0.34641 3.1129 0.0477 5.225 1.9087l2.6617 2.3453-0.51022 6.4483c-0.46512 5.8783-0.37151 6.5397 1.0588 7.4812 0.86295 0.56807 1.569 1.5869 1.569 2.2642 0 1.5589 2.2788 1.5611 7.8169 0.008 2.5332-0.71056 4.5801-0.90036 4.9948-0.46331 0.41471 0.43714 1.5303 0.40899 2.7223-0.0687 1.6956-0.67944 2.248-0.50417 3.4427 1.0922 0.78271 1.0459 1.6407 2.9505 1.9066 4.2325 0.40733 1.9634 0.77765 2.253 2.3495 1.8372 1.2714-0.33633 2.012-0.0925 2.3242 0.76497 0.26156 0.71848 1.4117 1.2586 2.6798 1.2586 1.3834 0 2.6654 0.6678 3.3978 1.7699 1.7795 2.6777 5.2926 4.8224 7.9202 4.8349 1.2924 0.006 4.939 0.93735 8.1035 2.0694 3.1645 1.1319 6.2661 2.0581 6.8924 2.0581 2.0904 0 5.8997 2.5549 5.4894 3.6817-0.29888 0.82094 1.7837 1.4422 8.3566 2.4931 5.8025 0.9276 9.9105 2.0712 12.182 3.3913 4.6706 2.7141 8.9458 2.6836 10.137-0.0722 1.1802-2.73 4.2698-2.72 7.6844 0.0251l2.5985 2.0891 3.9628-2.1166 3.9628-2.1165 3.8909 4.2103c2.14 2.3157 3.8909 4.5571 3.8909 4.9809 0 0.42376 0.96929 0.75597 2.154 0.7383 1.6262-0.0243 2.7838-0.93462 4.7244-3.715z"/>
   <path id="CO-PUT" d="m533.15 898.91c9.5533-2.909 15.203-5.0085 14.753-5.4826-0.40097-0.4226-2.4997-0.94774-4.6638-1.1669-3.0116-0.30496-4.6596-1.0523-7.0242-3.1857-1.8062-1.6296-3.9426-2.7873-5.1435-2.7873-1.1311 0-2.263-0.57393-2.5191-1.2773-0.31158-0.85586-1.2643-1.1964-2.887-1.032-2.2518 0.2281-2.4568 0.0249-2.9182-2.8924-0.65715-4.155-1.4322-4.851-4.4028-3.9531-1.3391 0.40486-2.7348 0.42979-3.1015 0.0555-0.36668-0.37431-3.047-0.11252-5.9562 0.58169-5.7322 1.368-7.6344 1.0959-7.6344-1.0918 0-0.77306-0.60416-2.1092-1.3426-2.9693-1.0733-1.2501-1.2967-2.8399-1.1138-7.928 0.1996-5.5521 0.0233-6.5603-1.3813-7.9001-1.2176-1.1614-2.3705-1.4282-4.7301-1.0947-2.1422 0.3029-3.4051 0.079-4.0298-0.71436-0.5004-0.63552-2.0329-1.1554-3.4056-1.1554-4.5166 0-5.5699-1.5777-5.2622-7.8826 0.30869-6.3268-0.13433-6.9454-4.988-6.9649-2.063-0.008-4.154-0.73384-6.0703-2.1063-2.396-1.716-2.9232-2.5912-2.9232-4.8522 0-1.5172-0.50778-3.2028-1.1284-3.7457-0.62062-0.54289-1.2374-1.9815-1.3707-3.197-0.23119-2.1085-0.45798-2.2146-4.9419-2.315-5.4442-0.12193-9.0075-1.3785-9.0075-3.1766 0-0.84273-0.7615-1.2588-2.3036-1.2588-1.267 0-2.5214-0.3715-2.7876-0.82556-0.26625-0.45406-2.1375-0.83737-4.1584-0.85182-2.0208-0.0145-4.3585-0.5717-5.1947-1.2383-0.83623-0.66664-2.3215-1.2121-3.3006-1.2121-2.0596 0-5.753-5.107-5.753-7.9548 0-1.5682-0.50035-1.8284-3.9976-2.0787-3.6922-0.26418-4.0827-0.1126-5.1113 1.9842-0.79418 1.6189-1.7259 2.2778-3.2476 2.2966-1.1736 0.0145-2.7578 0.52522-3.5203 1.1351-2.6884 2.1501-10.499 0.24132-15.364-3.7547-1.0274-0.84389-2.5206-1.5344-3.3184-1.5344-2.3553 0-3.6902-4.6282-3.2414-11.239 0.36195-5.332 0.23937-5.9263-1.7313-8.3948-1.1664-1.4611-2.6122-2.6566-3.2129-2.6566-0.60064 0-1.9596 1.8044-3.0199 4.0098l-1.9278 4.0098-6.1138 0.56699c-5.0718 0.47041-6.7477 1.0182-9.8328 3.2139-2.0454 1.4557-3.7082 3.2041-3.6949 3.8852 0.0132 0.68109 0.70597 3.2816 1.5394 5.7789 2.4628 7.3792 2.1758 8.8023-2.9989 14.872-6.3822 7.4855-6.6787 8.1885-4.2896 10.169 2.6247 2.1761 6.398 10.85 6.6734 15.34 0.21225 3.4606 0.38875 3.7064 3.5233 4.9065 2.5466 0.97499 3.4101 1.7923 3.7827 3.5806 0.57773 2.7723 0.66533 2.7871 3.5759 0.60266 1.6719-1.2548 2.9119-1.5692 4.6247-1.1727 1.8273 0.42302 2.3402 0.25592 2.3402-0.76216 0-1.8534 1.3855-1.607 5.9811 1.0642 3.7688 2.1905 4.3007 2.2851 8.4201 1.4981l4.3972-0.84v-3.9898c0-3.1913 0.26422-3.9898 1.3202-3.9898 0.72613 0 2.0947-0.76695 3.0414-1.7042l1.7211-1.7043 5.7704 1.8388c3.1737 1.0114 6.2309 2.5213 6.7938 3.3553 0.56292 0.83414 1.7966 1.5497 2.7414 1.5903 1.119 0.048 3.3753 2.1347 6.4716 5.9853 6.6092 8.2192 8.7898 9.6266 14.916 9.6266 4.7218 0 5.0822 0.1467 7.9126 3.2206 2.1391 2.3231 4.7952 3.9377 9.531 5.7937l6.5655 2.573 2.5856-2.0786c4.043-3.2503 6.2936-2.7514 14.62 3.2411l7.3917 5.3197 1.6694-1.7595c1.475-1.5547 1.8924-1.6337 3.5854-0.67869 1.2789 0.72146 2.0832 2.0768 2.4187 4.0762 0.90621 5.3999 1.1353 5.7033 5.056 6.6946 2.3743 0.60035 4.6334 1.885 6.04 3.4348 1.2359 1.3616 3.4807 3.2686 4.9885 4.2376 1.5078 0.96913 3.202 2.429 3.7649 3.2445 0.56292 0.81533 1.2586 1.4825 1.546 1.4825 0.28741 0 7.4894-2.1214 16.004-4.7143z"/>
   <path id="CO-NAR" d="m357.54 844.29c0-4.3861-2.8107-10.745-6.0711-13.736l-2.7099-2.4854 3.5339-4.9446c1.9437-2.7195 4.4481-5.8451 5.5654-6.9459 2.34-2.3054 2.646-5.9199 0.94867-11.208-2.4322-7.577-2.4529-7.4689 2.1259-11.113 2.7012-2.1495 5.0142-3.3347 6.5083-3.3347 1.2748 0 2.7407-0.4458 3.2577-0.99067 1.4106-1.4868 1.1336-5.2383-0.60996-8.2601l-1.5499-2.6862 2.8225-3.0466 2.8225-3.0466-3.9368-2.1026c-2.1652-1.1564-4.655-3.065-5.5328-4.2412-1.5383-2.0612-1.6813-2.092-3.9547-0.85293-1.6435 0.89578-4.5872 1.2856-9.7081 1.2856-4.0422 0-7.5214-0.18135-7.7317-0.403-0.89515-0.94347 1.5202-9.8025 3.3336-12.227 3.293-4.4028 3.2912-4.4419-0.36099-7.9902-1.9035-1.8493-3.914-4.5605-4.4678-6.0248-0.55379-1.4643-1.6706-3.6785-2.4818-4.9205l-1.4749-2.2582-4.5333 2.412-4.5333 2.412-4.3822-3.8688c-2.4627-2.1742-7.1955-8.0273-10.805-13.363-3.5325-5.2217-6.7833-9.7391-7.224-10.039-0.44069-0.29958-1.2152-1.5998-1.7212-2.8895l-0.91992-2.3448-1.6826 3.4526c-2.5519 5.2364-3.5671 5.3167-5.9238 0.4688-0.71735-1.4757-1.7982-2.6831-2.4018-2.6831-0.60366 0-2.4451 1.8242-4.092 4.0537-3.4904 4.7251-7.4084 6.2507-9.3345 3.6347-1.0558-1.4339-1.1615-1.423-2.5212 0.26128-0.78058 0.96687-2.5752 2.0255-3.988 2.3526-2.1036 0.48699-2.8934 1.3331-4.3614 4.6729-0.98597 2.243-2.3241 4.7136-2.9737 5.4902-0.64954 0.77659-1.4169 2.5832-1.7053 4.0147-0.42219 2.0959-0.20004 2.8421 1.1408 3.8319 1.5236 1.1248 1.5893 1.5259 0.77303 4.7209-0.83312 3.2611-0.75904 3.638 1.1218 5.7072 1.1076 1.2186 2.0139 3.0311 2.0139 4.0279 0 1.2722 0.47492 1.8123 1.5935 1.8123 1.4668 0 1.5518 0.34469 1.0688 4.3342-0.28859 2.3838-0.6187 4.4526-0.73357 4.5974-0.11487 0.14474-2.2467-0.13389-4.7373-0.61917-2.4907-0.48529-6.7396-0.88235-9.4421-0.88235h-4.9136l-4.4488 5.8036c-2.4469 3.192-4.3125 5.8991-4.1459 6.0157 0.16662 0.11668 1.8772 1.313 3.8013 2.6584 3.9079 2.7327 6.2925 5.0041 6.2925 5.9939 0 1.5929 13.23 13.224 17.927 15.761 2.8487 1.5385 5.6535 3.5092 6.2329 4.3794 2.7684 4.1575 4.6312 5.6993 7.5631 6.2594 4.2187 0.80583 15.461 8.203 17.535 11.537 1.9782 3.1807 3.8246 3.3688 14.187 1.445 3.6618-0.67985 6.8513-1.2366 7.0878-1.2372 0.23655-0.00066 0.87199 1.2869 1.4121 2.8612 0.71137 2.0735 0.75237 3.3145 0.14877 4.5032-0.74218 1.4617-0.32908 1.9353 3.7812 4.3352l4.6145 2.6943 0.4744 4.9795c0.42518 4.4627 0.7804 5.2546 3.4226 7.6295 3.0816 2.7699 2.407 2.628 16.068 3.38 2.9149 0.16049 2.9372 0.13746 2.9372-3.0356z"/>
   <path id="CO-GUV" d="m666.84 815.81c0.50596-0.64254 1.9817-3.4785 3.2794-6.3021 2.2552-4.9071 2.4237-5.0725 3.8142-3.7461 2.121 2.0231 4.5325 0.15793 5.8233-4.504 0.72852-2.6312 1.4891-3.7877 2.6068-3.9642 1.4559-0.22984 1.5037-0.47734 0.61746-3.1946-0.89682-2.7495-0.7595-3.3737 2.0644-9.3828 1.6638-3.5405 3.0329-7.6755 3.0423-9.1888 0.0222-3.5596 2.2482-8.6698 5.4516-12.515l2.5418-3.0513 2.6165 1.7044c2.4038 1.5658 2.7661 1.6011 4.4567 0.43352 1.0121-0.69899 3.76-1.9831 6.1063-2.8536 2.8744-1.0664 5.7019-3.0335 8.6676-6.0302l4.4016-4.4475 8.0157 0.33934c8.9432 0.37861 15.983-1.0926 21.63-4.5204 1.8904-1.1476 4.4748-1.9436 6.3098-1.9436 2.074 0 3.9791-0.67749 5.7267-2.0365 1.4404-1.1201 2.8704-1.8726 3.178-1.6723 0.3075 0.2003 1.9156-0.87175 3.5736-2.3823 2.9843-2.7191 3.0011-2.768 1.6802-4.8929-1.2736-2.0488-1.4522-2.0944-3.928-1.0041-1.5864 0.69864-3.8772 0.96081-5.8984 0.67507-2.4199-0.34211-3.6788-0.11034-4.702 0.86563-1.2567 1.1987-1.5685 1.2064-3.0985 0.0769-0.93566-0.69075-3.2068-1.2362-5.047-1.2122s-5.0067-0.18258-7.0365-0.45914c-3.6025-0.49081-3.7587-0.63396-6.5383-5.9947-4.2821-8.2584-6.525-11.136-7.8065-10.015-0.8274 0.72377-1.3251 0.37793-2.2919-1.5927l-1.235-2.5172 3.3402-2.2163c9.1478-6.0698 16.264-11.026 16.264-11.328 0-0.18501-0.89106-0.95176-1.9801-1.7039-1.9365-1.3374-2.04-1.3007-4.6942 1.6656-2.9249 3.2687-2.1786 3.1717-11.341 1.4749-1.5078-0.27924-3.5012-1.2385-4.4299-2.1316-1.3736-1.321-1.9944-1.4513-3.3289-0.69854-1.7392 0.98104-3.7737 0.28249-6.5158-2.2372-1.135-1.0429-1.7337-1.0739-3.7486-0.19427-1.4956 0.65298-4.0146 0.87103-6.6944 0.57951-3.5818-0.38964-4.8343-0.14538-7.5302 1.4686l-3.2337 1.936-2.82-1.9007c-2.427-1.6358-3.9016-1.9125-10.582-1.9853-4.2697-0.0466-8.1966 0.2955-8.7279 0.76023-0.53121 0.46467-3.3324 1.5365-6.225 2.3819l-5.2591 1.5371-4.2134-2.0331c-4.5717-2.206-5.8008-2.0199-5.8008 0.87846 0 2.6613-0.39868 2.842-4.2302 1.9179-3.1554-0.76105-3.854-0.58908-9.3106 2.2918-3.2446 1.713-6.6465 4.18-7.56 5.4822-1.5136 2.1577-2.0927 2.3702-6.5327 2.3969-2.6796 0.0161-5.7354 0.53323-6.7906 1.1492-1.0553 0.61597-2.3639 0.93987-2.9081 0.71977-0.54418-0.2201-2.7649 0.22138-4.9349 0.98106-3.5313 1.2362-3.9454 1.6328-3.9454 3.7777 0 2.0566-0.58315 2.7136-4.1121 4.6327-3.1265 1.7003-5.053 2.1895-8.0376 2.0412-3.3761-0.1677-4.4562 0.20275-7.7178 2.6469l-3.7923 2.8418-3.2479-1.4856c-1.7863-0.81706-5.0694-1.7386-7.2956-2.0479l-4.0477-0.56229-0.43062 4.4023c-0.23684 2.4213-0.64913 13.231-0.91619 24.023l-0.48557 19.62 5.5249 7.1556c4.3025 5.5725 5.6372 7.9453 6.0327 10.725 0.6895 4.8462 3.9642 8.9395 10.966 13.707 4.9722 3.3856 5.8114 4.2942 5.8114 6.2926 0 2.1022 0.32627 2.3906 3.2648 2.8858 2.9376 0.49508 3.4752 0.30743 5.3644-1.8726 1.1548-1.3325 3.2103-3.0282 4.5678-3.7682 2.7651-1.5071 2.7985-1.5866 1.6311-3.8858-0.69821-1.375-0.35946-2.2634 2.0403-5.35 2.8023-3.6045 2.9271-3.6671 4.773-2.3923 1.6864 1.1646 2.0792 1.1734 3.5611 0.0793 1.4757-1.0894 1.987-1.0888 4.4843 0.006 1.5503 0.67943 4.4048 2.8327 6.3434 4.785 1.9386 1.9524 4.6448 4.3562 6.0139 5.342 1.3922 1.0024 2.888 3.0659 3.3941 4.6822 0.55958 1.7871 1.7767 3.3652 3.1894 4.1352 1.2565 0.6848 2.2846 1.8365 2.2846 2.5594 0 0.72287 1.391 2.7803 3.091 4.5722 2.6018 2.7423 3.3354 3.12 4.6355 2.3867 2.1674-1.2226 6.4953-0.15545 6.9596 1.7161 0.31801 1.2818 1.223 0.73648 5.6605-3.4101 2.9051-2.7146 5.6959-5.4613 6.2019-6.104z"/>
   <path id="CO-VAC" d="m410.45 808.3c0.83623-0.66664 2.3245-1.2239 3.3073-1.2384 2.3792-0.0349 3.2148-2.4257 1.2713-3.6371-0.82044-0.51135-2.1966-1.1307-3.0582-1.3764-0.86159-0.2456-1.6804-1.2773-1.8196-2.2926-0.16345-1.1923-0.71822-1.765-1.5665-1.6174-0.94425 0.16445-1.3834-0.46743-1.5624-2.2479-0.13692-1.3622-0.94381-3.0466-1.7931-3.743-1.4766-1.211-1.4881-1.4077-0.26288-4.4985 0.70471-1.7777 2.4809-5.2087 3.9471-7.6245 3.1349-5.1653 3.2225-5.558 0.95409-4.2784-1.5039 0.84835-1.9902 0.63701-4.0062-1.7411-1.9173-2.2617-3.0183-2.7888-6.698-3.2068l-4.4036-0.50018 0.25041-6.2931c0.24285-6.1033 0.18346-6.3426-1.9685-7.9315-1.2204-0.90111-2.726-1.8076-3.3457-2.0144-1.4816-0.4944-3.1143-8.2948-2.5932-12.39 0.34702-2.727 0.82973-3.4128 3.1087-4.4164 2.3594-1.0391 2.9798-1.0345 4.9446 0.0364 1.2356 0.67348 2.9691 1.2245 3.852 1.2245 1.3954 0 1.6054-0.51837 1.6054-3.9627 0-2.1795-0.40406-4.3886-0.89792-4.9091-0.67504-0.71149-0.2334-1.2804 1.7793-2.292 1.5117-0.75981 3.4488-2.7587 4.4496-4.5914l1.7723-3.2457 2.4072 1.312c3.4629 1.8875 5.7801 0.90572 8.9952-3.8111l2.811-4.124 3.051 2.9053c3.4954 3.3284 4.2477 3.5164 5.3539 1.3378 0.79781-1.5712-0.26089-5.7593-3.4057-13.472-0.68828-1.6881-1.2514-5.0087-1.2514-7.379 0-4.6392-2.2622-9.3503-4.9256-10.258-0.77047-0.26249-2.2655-1.8543-3.3222-3.5374-1.6529-2.6325-1.8128-3.4589-1.1448-5.9142 0.42713-1.5697 0.77659-2.9494 0.77659-3.0659 0-0.11651-0.59754-0.21184-1.3278-0.21184-0.73032 0-2.3058-0.98751-3.501-2.1945-2.0647-2.085-5.0832-2.9152-16.711-4.5963-1.4262-0.20621-1.5748 0.27515-1.6588 5.3744-0.0507 3.0805-0.33128 5.8529-0.62346 6.1609-1.2782 1.3472-7.8891 3.4402-8.5768 2.7154-0.45297-0.47743-1.5358-0.33242-2.8446 0.38097-1.1623 0.6335-2.8573 0.94675-3.7667 0.6961-1.0723-0.29555-2.5449 0.27963-4.1899 1.6365l-2.5364 2.0923-3.0077-2.5108c-2.7702-2.3126-3.2526-2.4452-6.11-1.6808-4.1776 1.1176-11.994-1.2577-12.354-3.7543-0.15392-1.0676-1.0345-1.8226-2.4814-2.1277-3.4595-0.72926-7.854-5.2099-7.854-8.008 0-3.0574-1.0606-3.6529-3.5026-1.9665-2.3882 1.6493-2.5022 2.543-0.41376 3.2416 2.508 0.839 1.8156 2.5495-1.4495 3.5805-1.9339 0.6107-4.4631 2.5652-7.0494 5.4474-4.1577 4.6336-4.8953 6.245-2.8585 6.245 0.77707 0 1.1749 0.81918 1.1749 2.4193 0 1.8767-0.39344 2.4784-1.7543 2.6831-0.97715 0.14693-1.8802 0.95895-2.0383 1.8329-0.15618 0.86303-1.3053 2.4749-2.5536 3.582s-2.2696 2.4974-2.2696 3.0895c0 0.59215-0.5287 1.2905-1.1749 1.5518-0.64619 0.26136-1.1749 1.2732-1.1749 2.2485 0 1.2941-0.37043 1.663-1.3707 1.3649-0.75389-0.22463-1.8877-0.54659-2.5196-0.71545-0.68127-0.18207-1.6879 0.80825-2.4732 2.4331l-1.3243 2.7402 3.6481 5.1395c2.0065 2.8267 5.4084 7.75 7.5599 10.941 2.1515 3.1906 5.5721 7.1816 7.6013 8.8687l3.6895 3.0676 4.69-2.4953 4.69-2.4953 1.6405 2.4282c0.90227 1.3355 2.333 4.0784 3.1794 6.0952 1.3943 3.3223 4.6381 7.0176 8.0775 9.2019 1.1468 0.7283 0.93874 1.3041-1.766 4.8873-1.6863 2.234-3.2496 5.0202-3.474 6.1917-0.22443 1.1715-0.64669 2.7801-0.93835 3.5747-0.48136 1.3114 0.13141 1.4447 6.6418 1.4447 4.8129 0 7.9124-0.4035 9.4226-1.2267 2.1748-1.1854 2.3224-1.1367 4.3826 1.4447 1.1726 1.4693 3.2239 3.1558 4.5585 3.7478 1.3345 0.59202 3.228 1.8701 4.2077 2.8402l1.7813 1.7638-2.8087 3.0317-2.8087 3.0317 1.5745 2.7289c1.0474 1.8153 1.426 3.5116 1.1309 5.0668-0.41084 2.1652-0.26398 2.3379 1.9882 2.3379 2.0756 0 2.6774-0.51384 4.109-3.5086 2.7638-5.7816 2.8307-5.814 6.5078-3.1474 3.8806 2.8141 5.1276 6.1652 4.57 12.281-0.42895 4.7052 0.2076 8.4093 1.4451 8.4093 0.45266 0 2.367 1.1196 4.2541 2.4881 1.8871 1.3684 4.2416 2.8309 5.2323 3.2499 2.772 1.1724 7.2089 1 8.8968-0.34558z"/>
   <path id="CO-GUA" d="m957.71 796.59c2.0411-0.59424 1.9642-9.3726-0.0994-11.341-0.87065-0.83047-1.6855-3.1136-1.9983-5.5987-0.29049-2.308-1.7437-6.7406-3.2294-9.8501s-2.7013-6.1378-2.7013-6.7295c0-0.59171-1.2336-3.789-2.7414-7.1052-2.1309-4.6866-2.7433-7.0715-2.7498-10.709-0.008-4.2806-0.24827-4.9255-2.8219-7.5617-2.7279-2.7942-2.8028-3.033-2.4593-7.8428l0.35423-4.9609-7.7607-9.2876c-7.4189-8.8784-7.8967-9.2876-10.848-9.2876-2.7811 0-3.0871-0.20716-3.0871-2.0904 0-1.1497-0.48958-3.3254-1.0879-4.8348-0.9727-2.4537-1.5056-2.8028-5.0306-3.2957-2.1685-0.30319-5.3798-0.30904-7.1363-0.013-2.4567 0.41406-3.1736 0.27578-3.1068-0.5992 0.0478-0.62561 6.9064-8.0103 15.241-16.41 8.335-8.4001 15.389-16.133 15.676-17.184 0.38922-1.4262-0.0183-2.5052-1.6055-4.2514-2.7972-3.0773-5.599-9.5661-6.7171-15.556l-0.90002-4.8217-4.0398 0.35311-4.0398 0.3531-3.0258-9.1559c-1.9946-6.0356-3.3284-8.9624-3.9138-8.5882-0.48837 0.31223-2.9298 2.1466-5.4254 4.0764l-4.5375 3.5087-3.6284-2.4253-3.6284-2.4253-2.4023 1.6032-2.4023 1.6032-2.165-2.1862c-1.6773-1.6937-2.3756-1.9643-3.0998-1.201-0.51412 0.54188-2.2669 0.98523-3.895 0.98523-2.5232 0-3.4542 0.56827-6.3053 3.8487-5.2955 6.093-9.5011 8.5373-14.66 8.5206-5.5958-0.0182-11.377 2.7617-12.497 6.0087l-0.78581 2.2795-3.0948-1.3052c-2.9047-1.225-3.2799-1.2062-6.108 0.30704-2.8163 1.5069-3.1381 1.5241-4.9256 0.264-1.0518-0.74151-3.5123-1.7769-5.4676-2.3008-3.1642-0.8479-3.7972-0.77096-5.7566 0.69959-2.2554 1.6927-2.5912 1.6981-12.124 0.19259-3.2942-0.52025-3.3289-0.49964-3.3289 1.9778 0 3.4428-4.1017 6.9498-6.8434 5.8511-1.031-0.41316-3.2492-0.75118-4.9293-0.75118-3.7522 0-8.5922 3.9947-8.5922 7.0917 0 1.4545-0.6897 2.271-2.6458 3.1325-1.4552 0.64085-2.8964 1.5926-3.2028 2.1151-0.41156 0.70188-0.83246 0.70892-1.6121 0.0269-1.4541-1.2719-4.8788 0.55053-3.5891 1.9099 1.2159 1.2816 1.0801 3.6787-0.25304 4.465-0.61622 0.36348-1.0568 1.3592-0.97908 2.2127 0.1082 1.1881-0.86728 1.9178-4.1622 3.1135-5.7002 2.0685-7.6697 4.1068-6.4314 6.6562 1.179 2.4272 2.5298 9.0284 2.0241 9.8909-0.21402 0.36498-1.4115 0.66361-2.661 0.66361-1.37 0-2.984 0.7813-4.0659 1.9682-0.98672 1.0825-3.1076 2.4087-4.713 2.9471-1.6054 0.53843-2.8391 1.3739-2.7414 1.8566 0.0977 0.48271-3.8135 3.5674-8.6914 6.8549-4.878 3.2875-9.2838 6.4708-9.7908 7.0741-0.75733 0.90118-0.69251 0.91518 0.3634 0.0784 1.0918-0.86519 1.6378-0.54871 3.6293 2.1037 1.2893 1.7172 3.6315 5.592 5.2049 8.6108 3.1174 5.981 3.5397 6.2035 12.987 6.843 1.9386 0.13124 4.1652 0.52452 4.948 0.87397 0.80485 0.35928 1.7874 0.2517 2.261-0.24755 0.49746-0.52433 2.366-0.69215 4.6005-0.41321 2.5504 0.31837 4.7813 0.0402 6.9235-0.8632l3.1606-1.3329 1.935 3.0014c1.7872 2.7722 1.8488 3.1771 0.80608 5.3024-0.62091 1.2655-2.2198 2.9732-3.5531 3.7949-2.1667 1.3353-2.3837 1.8173-2.0432 4.5391 0.28694 2.2934 0.0143 3.395-1.1045 4.4622-2.2668 2.1622-1.7826 4.5302 1.7148 8.3848 2.2248 2.452 3.8276 3.5086 5.3223 3.5086 1.1763 0 4.3526 0.78797 7.0583 1.7511 4.0041 1.4252 5.2864 1.5749 6.8911 0.80423 1.0844-0.52077 3.1031-0.7231 4.4862-0.44963 1.7784 0.35165 2.8146 0.11621 3.5393-0.80423 1.2815-1.6276 4.9315-1.6616 9.8794-0.0921 2.9722 0.94281 11.589 1.3332 39.092 1.7712l35.279 0.56181-1.4921-1.7712c-0.82066-0.97415-2.3186-1.7712-3.3289-1.7712-1.0102 0-1.8382-0.27863-1.84-0.61917-0.002-0.34055 1.1438-3.3325 2.5456-6.6488l2.5488-6.0296 2.7414 0.53074c1.5078 0.29191 2.7561 0.59049 2.774 0.66351 0.49951 2.0355 5.3184 7.8994 8.8362 10.753 4.8081 3.8996 6.0908 4.1652 4.7122 0.97593-0.66085-1.5287-0.40655-2.458 1.4231-5.2004 1.9224-2.8814 2.8407-3.4781 6.6998-4.3538 3.9893-0.90517 5.0229-1.616 9.5735-6.5842 4.0686-4.4419 5.8386-5.7652 8.7428-6.5359 2.0028-0.53155 3.7009-0.85683 3.7736-0.72288 0.0727 0.13397 1.0376 1.5438 2.1442 3.133 1.5806 2.2699 2.1966 4.5357 2.8727 10.567 0.85891 7.6612 0.86832 7.6847 4.4631 11.145 2.7323 2.6301 4.4367 5.4297 7.0567 11.591l3.4543 8.1233-1.138 5.702c-1.0347 5.1841-1.0181 5.9669 0.1823 8.6201 1.2897 2.8506 1.4028 2.9065 4.884 2.4102 1.9601-0.27937 4.1806-0.68753 4.9345-0.90696z"/>
   <path id="CO-HUI" d="m429.99 764.37c4.308-5.7299 9.9474-12.28 12.532-14.555 3.2951-2.9008 5.595-5.8741 7.6959-9.9494 1.648-3.1967 4.8202-8.0281 7.0494-10.737 2.2292-2.7085 4.9612-7.1709 6.0711-9.9165 1.9739-4.8828 2.1154-5.0226 6.4688-6.3847 5.6738-1.7753 7.6921-4.14 7.3187-8.575-0.25109-2.9827 0.0887-3.7169 3.5114-7.587 2.7485-3.1078 3.7894-4.9512 3.7894-6.7109 0-1.9473 1.1208-3.5295 5.6787-8.0166 3.1233-3.0748 7.1998-7.4849 9.059-9.8003 3.0738-3.8281 3.3484-4.532 3.0287-7.7633-0.40367-4.0792 1.5981-10.447 4.5789-14.566 1.5026-2.0764 1.8943-3.5629 1.8226-6.9163-0.0502-2.3493-0.2552-4.2715-0.45551-4.2715-1.0416 0-4.914 3.5694-4.914 4.5295 0 0.61315-1.2336 1.9184-2.7414 2.9006-2.0989 1.3672-2.7414 2.3391-2.7414 4.1464 0 1.2984-0.36933 2.6012-0.82074 2.8953-0.45141 0.29405-0.71852 1.1706-0.59359 1.9478 0.12898 0.80245-1.9548 3.9818-4.8218 7.3569l-5.0489 5.9437h-4.4955c-3.7399 0-4.6978-0.30441-5.699-1.811-1.0633-1.6-1.0684-1.9682-0.0444-3.1609 1.5307-1.7827 1.4793-4.1094-0.0908-4.1094-0.68739 0-2.1854 0.67741-3.3289 1.5053-1.4334 1.0378-3.0521 1.4022-5.2121 1.1734-1.7232-0.18259-5.3372-0.4554-8.031-0.60624-4.5966-0.25738-4.9266-0.15407-5.3632 1.6793-0.25586 1.0745-1.6444 2.9016-3.0857 4.0603-2.1179 1.7026-2.6666 2.7672-2.8611 5.5506l-0.24057 3.4438-10.795 6.2045c-8.3449 4.7961-10.678 6.496-10.278 7.4888 0.28452 0.7064 0.77561 3.8849 1.0913 7.0633 0.3157 3.1784 1.6525 8.7738 2.9707 12.434l2.3966 6.6552-1.5813 2.6324c-0.86972 1.4478-1.7404 2.6324-1.9349 2.6324-0.89729 0-4.803-2.5014-5.7158-3.6606-1.4705-1.8675-1.9598-1.6506-4.1515 1.8402-2.4389 3.8844-6.3673 5.459-9.4174 3.7746-1.9135-1.0567-2.1066-0.96631-3.6847 1.7249-0.91595 1.5621-2.3404 3.0659-3.1655 3.342-1.3026 0.43576-1.478 1.2193-1.3318 5.9511 0.16511 5.3456 0.12594 5.4615-2.0596 6.0947-1.5208 0.4406-3.0681 0.22323-4.8746-0.68478-3.779-1.8994-6.6079-0.49642-6.5959 3.2712 0.0216 6.7786 0.81647 8.7614 4.3992 10.974 3.6801 2.2732 3.5046 1.7133 3.7478 11.953 0.0676 2.8456 0.12461 2.8933 3.7544 3.1396 2.9594 0.20083 4.0686 0.72959 5.628 2.683 1.657 2.0756 2.2283 2.3182 3.8904 1.6521 1.448-0.58025 2.1895-0.47423 2.888 0.4129 0.60194 0.76446 2.3838 1.1846 4.9561 1.1684l4.0162-0.0252 7.8326-10.418z"/>
   <path id="CO-MET" d="m548.05 768.79c3.2514-1.2723 6.0012-1.8052 8.1295-1.5757l3.2162 0.34684 0.56589-22.572c0.31125-12.415 0.80252-22.81 1.0917-23.102 0.82098-0.82767 11.113 0.90739 13.679 2.3061 2.2144 1.2069 2.4584 1.146 6.3241-1.5788 3.472-2.4473 4.5141-2.7849 7.6346-2.4735 5.1753 0.51657 9.8996-2.092 10.239-5.6536 0.22512-2.3634 0.68137-2.7515 5.3374-4.5407 2.8002-1.076 5.5541-1.7779 6.1199-1.5597 0.56578 0.21823 2.0463-0.15785 3.29-0.83573 1.2437-0.67787 4.0785-1.2325 6.2996-1.2325 3.356 0 4.2941-0.34279 5.5524-2.0288 0.83277-1.1159 4.3741-3.5376 7.8696-5.3816 6.0888-3.2121 6.8986-3.3556 10.619-1.8819 0.58776 0.23281 0.97907-0.29981 0.97907-1.3326 0-0.94622 0.8514-2.3084 1.892-3.027 1.7746-1.2256 2.1484-1.1696 6.027 0.90191 3.9294 2.0987 4.3502 2.1578 8.4625 1.1878 2.3801-0.56141 5.1647-1.599 6.1881-2.3057 1.408-0.97239 3.925-1.273 10.347-1.236 7.3591 0.0425 8.7978 0.28265 10.83 1.8078l2.3434 1.7588 2.961-1.8413c2.3784-1.4791 3.9325-1.7954 7.8994-1.6076 9.0566 0.42869 8.0605 8.0789 8.0605-61.903v-61.092l-2.154 1.6062c-3.7096 2.7661-21.24 11.715-22.949 11.715-2.9742 0-9.6943 3.5563-14.06 7.4407-12.02 10.695-15.528 12.423-18.407 9.0706-1.0905-1.2701-2.4124-1.6511-5.7277-1.6511-3.7954 0-4.7862 0.38158-8.2987 3.1961-4.0201 3.2212-9.3172 4.7845-11.467 3.3841-0.63555-0.41402-1.9756 0.10345-3.554 1.3723-2.1819 1.7541-3.2197 2.0025-7.4732 1.7892l-4.9394-0.24771-0.70802-3.1685c-0.54369-2.4332-1.5824-3.8306-4.4755-6.0213-2.364-1.7901-3.9435-3.6852-4.2401-5.0871-0.50042-2.3658-5.0101-10.468-5.5246-9.9256-0.16663 0.17564-1.2369 6.6218-2.3783 14.325-1.1414 7.703-2.3039 14.265-2.5833 14.583-0.27938 0.31741-2.9086-1.0512-5.8428-3.0413-7.1158-4.8264-9.176-5.2503-12.506-2.5731l-2.6129 2.1006-2.8239-2.4534c-2.0541-1.7846-2.9676-3.3496-3.3509-5.7409-0.53469-3.3357-4.0123-7.4441-6.3012-7.4441-0.59815 0-2.343 1.1618-3.8774 2.5818-3.0749 2.8456-3.0748 2.695-0.0106 10.844l1.7889 4.7578-4.8085 2.8165c-2.6447 1.5491-6.1715 3.0797-7.8373 3.4014-1.6659 0.32169-4.1797 1.6499-5.5862 2.9516-1.7209 1.5926-3.4202 2.3708-5.1954 2.3793-1.4509 0.007-2.9996 0.28557-3.4415 0.61917-1.7351 1.3097-5.719 7.4094-7.2621 11.119-2.6156 6.2874-5.4673 9.7141-8.0843 9.7141-1.9118 0-2.2568 0.33018-2.2568 2.1597 0 1.1878-1.1863 3.8812-2.6363 5.9853-3.3567 4.871-4.6975 9.2625-4.2126 13.797 0.35819 3.3495 0.11684 3.9237-3.6889 8.7769-2.2397 2.8561-5.7335 6.623-7.764 8.371-2.9666 2.5537-3.5131 3.4052-2.7816 4.3342 0.50069 0.63588 1.7227 1.1561 2.7156 1.1561 1.0918 0 2.679 1.1016 4.0162 2.7876 1.216 1.5332 3.6684 3.5622 5.4496 4.5088 2.871 1.5259 3.3225 2.17 3.9778 5.6744 0.71747 3.8369 0.65788 4.0442-2.0266 7.0487-2.4563 2.7491-2.8016 3.6881-3.0857 8.3905-0.2484 4.1117 0.12884 6.7407 1.6881 11.765 1.8256 5.882 2.8994 11.014 4.0552 19.38 0.22823 1.652 1.1994 4.2278 2.1582 5.724 1.6022 2.5004 2.3769 2.8593 9.5759 4.4368 7.4019 1.6219 12.308 3.8773 14.506 6.6687 0.53613 0.68089 2.4262 1.9163 4.2002 2.7453 1.774 0.82904 3.7091 2.125 4.3004 2.8798 1.3206 1.6861 0.69472 1.7388 6.544-0.55006z"/>
   <path id="CO-VID" d="m735.4 696.74c0.68143-0.2756 1.239-1.0067 1.239-1.6248 0-0.61801 0.96391-1.656 2.142-2.3066 1.9217-1.0613 2.352-1.0254 4.1836 0.34934 1.7752 1.3323 2.4411 1.405 5.1032 0.55691 1.6838-0.53645 3.7039-1.82 4.4891-2.8524 0.90805-1.194 2.2749-1.877 3.756-1.877 2.2616 0 2.3134-0.0889 1.8045-3.0958-0.28814-1.7027-1.1682-3.8436-1.9556-4.7575-1.3895-1.6127-1.3828-1.7431 0.22653-4.4222 1.5521-2.5838 6.977-5.8868 9.6686-5.8868 0.84986 0 0.92026-0.47215 0.31898-2.1391-0.65672-1.8206-0.53722-2.2037 0.80265-2.573 2.0311-0.55984 1.9845-0.90192-0.39138-2.8717-2.408-1.9964-1.8906-3.1444 1.4244-3.1612 1.3746-0.007 3.0163-0.3572 3.648-0.77834 0.71086-0.47387 1.4922-0.46518 2.05 0.0228 0.59606 0.52141 1.2344 0.36558 1.8845-0.46 0.5407-0.68669 1.4686-1.2485 2.0621-1.2485 0.59344 0 1.079-0.66566 1.079-1.4792 0-0.81358 1.498-3.001 3.3289-4.8609 2.5883-2.6293 4.1499-3.5043 7.0195-3.9328 2.1882-0.32677 4.3332-0.1887 5.269 0.33916 2.3917 1.3491 4.6209-0.49961 4.9058-4.0684 0.2225-2.7871 0.39587-2.9456 3.7579-3.4362 1.9386-0.28285 4.1183-0.18997 4.8439 0.20639 2.3283 1.2719 6.9649 0.7882 9.3091-0.97115 1.7589-1.3201 2.5917-1.5015 3.7899-0.82556 0.84464 0.47644 2.2975 0.86627 3.2286 0.86627 0.93111 0 2.7028 0.75796 3.9372 1.6844 2.2334 1.6762 2.2587 1.6766 5.2306 0.0785 2.6329-1.4157 3.279-1.4762 5.4581-0.5104 2.3964 1.062 2.496 1.0219 3.2696-1.3169 0.48968-1.4806 1.3513-2.4123 2.2308-2.4123 0.78815 0 2.2594-0.61011 3.2695-1.3558 1.0957-0.80889 4.0885-1.5246 7.4195-1.7744 6.6506-0.49867 9.6704-2.2338 14.526-8.3467 3.0164-3.7973 3.6556-4.2088 6.5375-4.2088 1.7791 0 3.7856-0.5641 4.5291-1.2733 1.2176-1.1614 1.505-1.0601 3.2721 1.1533l1.9372 2.4266 2.2816-1.5226c2.272-1.5162 2.297-1.5125 5.9285 0.86986l3.6469 2.3925 5.1409-3.8807c2.8275-2.1344 5.1475-4.1075 5.1556-4.3847 0.008-0.27718-0.91079-1.9414-2.042-3.6983-1.8817-2.9226-2.0179-3.6821-1.6007-8.9265l0.45595-5.7322-3.5046-5.2841-3.5046-5.2841 1.1579-7.1629c0.63683-3.9396 1.1926-9.3919 1.2351-12.116 0.0425-2.7244 0.14458-9.2256 0.22693-14.447 0.0823-5.2217-0.10392-10.794-0.4139-12.383l-0.56362-2.8895 7.0255-4.425c6.8034-4.2851 7.0249-4.52 7.0064-7.4301-0.0105-1.6528-0.36579-4.5887-0.78947-6.5243-0.59162-2.7028-0.46536-4.7989 0.54427-9.0354 1.1554-4.8482 1.9084-6.1638 6.2185-10.866l4.9039-5.3497-1.5127-3.1252c-0.83198-1.7189-1.5127-3.8885-1.5127-4.8214 0-0.93287-1.1455-2.9963-2.5456-4.5855-2.4598-2.7919-2.7879-2.9068-9.7353-3.4096l-7.1897-0.52028-3.999 3.0281-3.999 3.0281-4.946-0.90782c-4.2147-0.77359-5.3977-0.70129-8.0013 0.48903-1.8981 0.86778-5.7253 1.4981-10.105 1.6642-3.8772 0.14701-9.7638 1.013-13.081 1.9244l-6.032 1.6571-6.7156-1.9474c-3.6936-1.0711-9.6188-2.2023-13.167-2.5139l-6.4516-0.56644-4.1472 4.6219c-2.281 2.542-4.3689 4.6219-4.6398 4.6219-0.27095 0-1.2203-0.7059-2.1096-1.5687-1.5967-1.5489-1.7008-1.5272-8.2747 1.724l-6.6577 3.2926-7.9872-0.53791-7.9872-0.53791-1.5272 3.1482c-0.83996 1.7315-2.5751 4.1297-3.856 5.3294-1.6772 1.5709-2.48 3.2444-2.8694 5.9808-0.77413 5.441-6.721 10.785-15.464 13.896-8.8965 3.166-18.602 8.3462-21.631 11.545-1.4171 1.4967-4.2368 5.1361-6.2661 8.0875-2.7575 4.0105-4.679 5.8674-7.6059 7.3504-3.263 1.6532-4.6023 3.0916-8.0284 8.6221l-4.1121 6.6378v61.757c0 60.656 0.0279 61.787 1.5665 63.408 1.7766 1.8725 2.2638 1.9586 4.963 0.87696 1.5293-0.61282 2.2182-0.44077 3.3054 0.82556 0.75546 0.87985 2.2882 1.6054 3.4061 1.6124s2.5613 0.37276 3.2075 0.81292c1.3305 0.90625 4.7404 1.074 6.5937 0.32445z"/>
   <path id="CO-TOL" d="m446.04 671.58c0-2.7746 0.38075-3.4856 2.7256-5.0902 1.4991-1.0258 3.2232-3.1654 3.8314-4.7546l1.1058-2.8895 4.9803 0.25534c2.7392 0.14045 6.5664 0.35703 8.505 0.48131 2.2804 0.1462 4.3086-0.27643 5.7452-1.1971 4.4064-2.824 8.9448 1.1196 5.6733 4.9298-1.7158 1.9983-0.84348 2.5632 3.7898 2.4548 3.8091-0.0892 4.1624-0.30084 8.156-4.885 3.7827-4.3422 4.0858-4.9664 3.2297-6.6523-0.78251-1.5411-0.72597-2.0291 0.32938-2.8424 0.70073-0.54005 1.2741-1.7658 1.2741-2.7238 0-1.1669 1.0321-2.3631 3.127-3.624 1.7198-1.0352 3.1297-2.502 3.133-3.2596 0.003-0.75757 1.1996-2.1549 2.6584-3.1052 2.8093-1.83 3.82-4.0027 2.7763-5.9683-0.34792-0.65527-0.33544-2.6584 0.0277-4.4515 0.36318-1.793 0.89902-6.8253 1.1907-11.183 0.4551-6.7978 0.34412-8.119-0.78158-9.3055-1.2272-1.2934-1.4863-1.2215-4.0077 1.1118-3.2628 3.0194-4.4866 3.0961-7.7353 0.48435-1.5564-1.2513-3.7999-2.1085-5.9416-2.2703-4.5584-0.3444-4.7588-1.8587-1.1024-8.3282 2.6527-4.6935 2.7914-5.2494 1.7915-7.178-0.72605-1.4004-0.9845-3.9433-0.78291-7.7028 0.28292-5.276 0.45373-5.7178 2.8512-7.3743l2.5503-1.762 0.98158-12.532c0.86779-11.08 0.83995-12.821-0.24013-15.022-1.147-2.3379-1.5842-2.5259-7.1506-3.0757l-5.9289-0.58559-4.8666 4.2008c-4.4929 3.8782-5.1857 4.2008-9.022 4.2008-3.9527 0-4.2076 0.13164-5.2252 2.6986-0.62853 1.5856-1.004 5.0758-0.91016 8.462 0.13558 4.8952-0.16919 6.4289-2.0233 10.181-1.4012 2.8359-2.1829 5.6907-2.1829 7.9719 0 3.3401-0.3298 3.8757-5.4828 8.9043-5.0227 4.9014-5.4828 5.6266-5.4828 8.6419 0 4.3943-1.8082 9.558-4.6898 13.393-1.2978 1.727-2.3596 3.6012-2.3596 4.1647 0 0.56355-2.365 4.3725-5.2555 8.4642-6.4527 9.1345-11.193 19.927-11.193 25.484 0 2.1554-0.86665 6.8172-1.9259 10.36-2.0566 6.878-4.3096 16.422-4.3286 18.336-0.006 0.63978 1.6058 2.7284 3.5827 4.6413l3.5943 3.4781 10.504-6.1556 10.504-6.1556v-3.2251z"/>
   <path id="path2402" d="m377.8 679.63c1.1222 0.3093 2.9223-0.17472 4.811-1.2935 2.5457-1.508 3.1178-1.601 3.6563-0.59454 0.55133 1.0305 0.99256 1.0359 3.2355 0.0397l2.5971-1.1535-0.22894-5.3731c-0.30353-7.1239 0.66524-8.2819 5.6166-6.7138 1.9342 0.61259 5.6873 1.3786 8.34 1.7022 3.6262 0.44236 5.2638 1.0827 6.5985 2.5801 2.145 2.4065 5.4185 2.6996 5.4185 0.48514 0-0.82859 0.88117-4.2372 1.9582-7.5747 1.2458-3.8606 1.9582-7.9008 1.9582-11.106 0-2.9522 0.4484-5.7126 1.0831-6.6678 0.59572-0.89644 2.0422-4.044 3.2145-6.9946s4.3781-8.5543 7.1241-12.453l4.9927-7.088-3.1406-7.7721c-1.7274-4.2746-4.0646-9.6799-5.1939-12.012-1.7477-3.6086-1.9803-4.8986-1.5629-8.6684 0.60847-5.4966 2.9851-8.2233 5.2688-6.045 1.1597 1.1062 1.6391 1.1454 3.0062 0.24549 3.0088-1.9805 2.4875-2.9364-2.1245-3.8957-2.4437-0.50828-5.6767-1.0173-7.1845-1.1312l-2.7414-0.20705 0.26636-3.9214c0.21326-3.1396 0.02-3.9214-0.96925-3.9214-0.67959 0-2.1256-1.486-3.2134-3.3022-2.7938-4.6647-5.4009-4.5917-7.3703 0.20639-0.90534 2.2057-3.0038 4.8299-5.6508 7.0666-5.3349 4.5079-11.363 12.572-12.569 16.813-0.51117 1.7983-1.7476 3.948-2.7476 4.777-2.0739 1.7194-2.4015 5.0981-0.64334 6.636 0.64619 0.56526 1.1749 1.9504 1.1749 3.0781 0 1.2038 0.80853 2.7207 1.9582 3.6739 3.2643 2.7063 2.5261 4.3834-3.585 8.1453-7.0764 4.356-13.936 7.5574-14.877 6.9438-0.40327-0.26269-0.51748-1.3836-0.2538-2.4909 0.45539-1.9124 0.30134-2.0133-3.0733-2.0133-2.8222 0-3.8584-0.40949-5.0389-1.9914-1.484-1.9885-1.4896-1.9891-3.8177-0.43545l-2.3316 1.556-3.8076-3.3164c-2.2888-1.9935-4.2822-3.1244-4.9974-2.8351-0.73131 0.29578-1.8499-0.39132-2.9027-1.783l-1.7129-2.2642-1.3046 2.6592c-1.1607 2.3658-1.4905 2.5543-2.9894 1.7088-1.4654-0.8266-1.9719-0.61168-3.8894 1.6503-2.0967 2.4733-3.0288 6.7024-1.4773 6.7024 0.40003 0 1.2361 0.5362 1.8578 1.1916 0.98519 1.0384 1.4106 0.64038 3.309-3.0958 1.1982-2.3581 2.2971-4.4384 2.4421-4.623 0.21519-0.27388 6.1645 2.149 7.2386 2.948 0.16568 0.12324-0.16735 1.4434-0.74009 2.9336-1.037 2.6981-3.5094 5.599-4.7722 5.599-0.36488 0-0.66342 0.743-0.66342 1.6511 0 1.3577 0.52194 1.651 2.9372 1.6504 2.3975-0.0006 3.4956-0.60744 5.9759-3.3022 3.6686-3.986 5.1856-4.2273 5.1856-0.82483 0 1.3622 0.35247 2.4767 0.78326 2.4767 1.181 0 0.94084 1.603-0.46167 3.0812-0.92631 0.97632-1.1201 2.1895-0.75721 4.7402 0.43882 3.0843 0.28718 3.5412-1.5123 4.5562-1.5366 0.86675-2.2142 0.90248-2.9241 0.1542-1.5249-1.6072-2.1995-1.103-1.302 0.97309 0.71099 1.6447 0.54258 2.2537-1.0845 3.9214-1.0594 1.0859-3.2854 2.7173-4.9468 3.6255-3.3189 1.8142-6.1434 6.1284-4.439 6.7804 0.5385 0.20598 0.97908 0.81173 0.97908 1.3461 0 1.1546-3.399 5.1613-4.8537 5.7214-0.81758 0.31479-0.82589 0.6108-0.0417 1.4869 0.53849 0.60162 0.97908 2.0765 0.97908 3.2775 0 2.9427 2.4923 5.1278 6.4901 5.6902 2.8885 0.40635 3.3316 0.74788 3.5485 2.7346 0.17272 1.5821 0.69577 2.2703 1.7255 2.2703 0.8127 0 2.3561 0.42186 3.4297 0.93747 1.4366 0.68993 2.8424 0.69796 5.3239 0.0304 3.1569-0.84923 3.5465-0.75848 6.1132 1.4238l2.7414 2.3309 2.3833-1.916c1.6067-1.2917 2.9675-1.7549 4.1764-1.4218z"/>
   <path id="CO-DC" d="m515.68 639.34c0.85454-0.96677 2.8102-4.4381 4.346-7.714 1.5358-3.276 4.1106-7.4648 5.722-9.3085 4.8811-5.585 6.4405-8.1476 5.5373-9.0996-0.80355-0.84695-0.61782-4.3196 0.71658-13.398 0.36868-2.5083 1.6298-6.129 2.8176-8.0894 2.9126-4.807 4.1709-11.586 2.9488-15.885-0.51105-1.7979-1.2416-3.2689-1.6235-3.2689-0.38189 0-1.7688 1.9794-3.0821 4.3987-1.3234 2.438-3.3168 4.8449-4.4721 5.3997l-2.0844 1.001 1.5726 1.824c2.2793 2.6437 2.7478 8.0468 0.91563 10.559-1.0956 1.5022-1.4612 3.4301-1.4748 7.7763-0.0113 3.6324-0.57014 7.3122-1.5044 9.9067-1.3049 3.624-1.81 4.184-4.1381 4.588-4.2871 0.74403-4.5567 1.1994-4.5567 7.695 0 5.7048-0.15109 6.2073-3.1331 10.42-1.7232 2.4343-3.133 4.5447-3.133 4.6897 0 1.0213 3.3622-0.0647 4.6257-1.4941z"/>
   <path id="CO-CUN" d="m514.97 625.92c0-6.6912 1.712-9.5932 5.6593-9.5932 3.1039 0 4.5178-3.7838 4.5405-12.151 0.0138-5.103 0.3325-6.8492 1.5491-8.4885 2.317-3.122 1.9986-6.8539-0.87942-10.309l-2.446-2.9362 3.0846-1.3884c2.3738-1.0685 3.6289-2.4435 5.4466-5.9673 3.169-6.1434 5.297-6.3003 7.3702-0.54356 1.3166 3.6557 1.3547 4.5312 0.40481 9.3072-0.57666 2.8996-1.9299 6.6758-3.0072 8.3916s-2.1876 4.9576-2.4674 7.204c-1.2438 9.9873-1.3618 12.955-0.54909 13.811 0.60492 0.63758 0.28138 1.6703-1.1376 3.6312-1.8864 2.6068-1.9061 2.7402-0.40385 2.7402 0.86853 0 2.7369-1.0562 4.152-2.3471s4.1828-2.7652 6.1505-3.2762c1.9677-0.51103 5.2252-1.8997 7.2388-3.0859 3.2424-1.9101 3.5644-2.3472 2.8157-3.8217-0.46497-0.91573-1.4864-3.6288-2.2699-6.029l-1.4245-4.364 3.2554-3.3219c1.7905-1.827 3.9603-3.4714 4.8219-3.6541 0.86159-0.18273 3.0327 0.7065 4.8247 1.9761 2.6471 1.8754 3.359 2.9374 3.7958 5.6623 0.32159 2.0062 1.3451 4.1432 2.5471 5.318l2.0095 1.964 2.4553-1.9739c2.354-1.8924 2.6074-1.9256 6.1399-0.80513 2.0265 0.64283 5.2953 2.3368 7.2639 3.7644s3.6887 2.4669 3.8224 2.3096c0.13373-0.15728 1.0004-5.487 1.926-11.844 0.92558-6.3568 1.8752-12.477 2.1103-13.599 0.4105-1.9605 0.36828-1.985-1.0637-0.61918-2.2609 2.1566-6.0206 1.8376-7.5618-0.64158-0.77203-1.2419-2.0234-2.0639-3.142-2.0639-1.9297 0-6.1206-4.3129-7.667-7.8901-0.57461-1.3292-1.7454-2.0718-3.8599-2.4484-1.7338-0.30874-3.5184-1.2676-4.1621-2.2364-1.0091-1.5185-0.91805-2.1305 0.87015-5.8499l1.9971-4.154-1.4207-4.9456c-0.96003-3.342-2.2567-5.7474-3.9989-7.4184-1.9846-1.9035-2.5839-3.155-2.6028-5.436-0.0293-3.5243-2.6952-6.0511-5.9914-5.6788-1.7894 0.20213-2.2299-0.17398-2.8623-2.4442-0.47529-1.7061-1.247-2.6831-2.1195-2.6831-1.3437 0-6.2339 5.1398-6.2339 6.5522 0 0.39368-1.128 1.4685-2.5066 2.3886-2.7458 1.8324-3.8127 1.5646-7.8444-1.9687-1.1697-1.0251-3.5584-2.1188-5.308-2.4303-2.6812-0.47746-3.4255-1.0712-4.7356-3.7778-0.89914-1.8576-1.7618-5.7985-2.0466-9.3492-0.66237-8.259-1.0084-8.7131-4.7166-6.1907-2.5133 1.7096-3.4408 1.9218-5.7392 1.3129-1.7448-0.46219-3.5245-0.4054-4.8954 0.15626-1.8206 0.74586-2.1544 1.3648-2.1569 3.9987-0.002 1.714-0.70654 4.3327-1.5665 5.8193-0.94629 1.6359-1.5636 4.1584-1.5636 6.3894 0 2.0342-0.90262 6.0628-2.0139 8.9886-1.852 4.876-1.9217 5.4906-0.86649 7.6451 0.90811 1.8543 1.0102 3.7203 0.48959 8.9474-0.3618 3.6325-0.67682 9.2538-0.70004 12.492-0.0409 5.7037-0.12527 5.9541-2.7044 8.0275-2.3295 1.8728-2.7293 2.7499-3.1995 7.0207-0.40191 3.6498-0.23595 5.4951 0.65809 7.3173 1.1474 2.3386 1.0869 2.6268-1.5 7.1532-1.4826 2.594-2.6956 5.0693-2.6956 5.5006 0 0.43133 1.1122 0.78422 2.4717 0.78422 1.4297 0 3.554 0.8701 5.039 2.0639 3.3101 2.6611 4.3879 2.5999 7.6675-0.4351l2.7004-2.499 2.1505 1.9496c2.0383 1.848 2.1461 2.3053 2.0664 8.7696-0.0462 3.751-0.48847 8.8734-0.9828 11.383-0.77322 3.9257-0.70784 5.0095 0.46806 7.758l1.3668 3.1948 1.8417-2.6311c1.5198-2.1712 1.8417-3.64 1.8417-8.4029z"/>
   <path id="CO-CHO" d="m387.83 616.92c3.2568-1.9141 6.0949-3.9508 6.3069-4.5261 0.21207-0.57521-0.53558-1.8096-1.6614-2.743-1.338-1.1093-2.047-2.4993-2.047-4.0128 0-1.2736-0.5287-2.7782-1.1749-3.3434-1.9499-1.7056-1.4225-5.2735 1.1345-7.6748 1.2702-1.1928 2.7362-3.6704 3.258-5.5058 1.0975-3.8609 8.4272-13.343 13.104-16.952 1.8583-1.4341 3.7232-3.8097 4.43-5.6432 1.1844-3.0722 1.166-3.2118-0.61802-4.6909-1.0113-0.83843-2.2558-2.9916-2.7655-4.7848-0.50973-1.7932-1.4282-3.699-2.041-4.235-1.5189-1.3286-0.77667-5.6374 2.0188-11.72 1.7824-3.8784 2.5914-4.838 4.0782-4.838 2.4778 0 7.5617-5.112 7.5392-7.581-0.01-1.0521-0.70668-2.8417-1.5491-3.9768-0.85191-1.1479-1.5394-3.3646-1.5491-4.9946-0.01-1.6119-0.39154-3.3251-0.8488-3.807-1.0538-1.1107-1.2017-5.2489-0.38618-10.805 0.61313-4.1776 0.57034-4.3342-1.1843-4.3342-1.0012 0-2.809-0.99826-4.0172-2.2184-1.8799-1.8983-2.1968-2.8664-2.1968-6.7106v-4.4922l-6.0703 0.37431c-3.3387 0.20587-6.9389 0.86653-8.0005 1.4681-1.0616 0.6016-4.3983 1.1212-7.4148 1.1547l-5.4847 0.0609-3.0632-5.7185c-2.7746-5.1798-2.98-5.961-2.1801-8.2925 1.804-5.2582 1.2145-7.2221-3.8132-12.705-2.583-2.817-4.8961-6.1215-5.1404-7.3433-0.24424-1.2218-0.60566-3.0605-0.80316-4.0861-0.19751-1.0256 0.18612-2.9759 0.85252-4.3342 1.0216-2.0822 1.6765-2.4696 4.1749-2.4696 1.6298 0 3.6249-0.50998 4.4337-1.1333 1.4332-1.1046 1.4284-1.2399-0.19211-5.3499-1.8126-4.5973-1.4302-5.5285 1.7477-4.255 1.1412 0.4573 3.9232 0.83146 6.1821 0.83146 2.3988 0 4.7397 0.50418 5.6277 1.2121 2.225 1.7738 2.4828 1.5989 3.0047-2.0376 0.26064-1.8162 0.67482-4.6954 0.92038-6.3981 0.37892-2.6274 0.0573-3.6268-2.1258-6.6045-1.8493-2.5225-3.1409-3.5086-4.5955-3.5086-2.1726 0-5.7195-3.4681-9.9425-9.7216-1.311-1.9414-5.5772-5.9541-9.4803-8.9171s-7.8223-6.5756-8.7094-8.028l-1.6128-2.6408 1.8961-1.6511c3.3344-2.9036 5.4281-9.7969 5.4467-17.933 0.0133-5.8129-0.25168-7.4834-1.375-8.6684-0.76527-0.80734-2.5254-3.5112-3.9114-6.0085-1.8612-3.3534-3.4841-5.0802-6.2075-6.6045-2.0281-1.1352-3.6885-2.474-3.6897-2.9753-0.001-0.50126-0.9272-1.9633-2.0577-3.249-1.9192-2.1826-2.1866-2.259-4.0348-1.1525-3.629 2.1728-3.8018 3.4606-1.0879 8.1094 1.3632 2.3351 2.4785 5.285 2.4785 6.5554 0 1.509 0.84002 3.1505 2.4228 4.7346 4.8861 4.8899 7.4491 13.006 6.4744 20.501-0.4245 3.2644-0.74855 3.8011-2.295 3.8011-3.8455 0-5.5373 1.6562-11.693 11.447-6.0579 9.6347-6.3596 9.9667-9.0782 9.9916-2.7691 0.0254-2.8281-0.0443-3.8544-4.5537-0.88527-3.8895-1.2877-4.5426-2.6707-4.3342-1.7988 0.27097-2.0308 2.3902-0.94311 8.612l0.59673 3.4133-2.9547 0.73651c-2.9038 0.72382-2.9912 0.86134-5.0736 7.9874l-2.1189 7.2509 3.2577 2.4955c1.7917 1.3725 4.1443 3.0508 5.2279 3.7294 1.9665 1.2316 5.4708 6.143 5.4708 7.6675 0 0.44274-0.6612 1.4696-1.4693 2.2819-1.7814 1.7906-2.9059 5.1919-1.7165 5.1919 0.45983 0 0.83605-0.3715 0.83605-0.82556 0-1.4984 1.9204-0.81337 4.4062 1.5718 1.6265 1.5607 2.7984 3.7899 3.4921 6.6425 0.91277 3.7538 1.1676 4.1153 2.0275 2.8759 0.5409-0.77968 1.1134-1.8284 1.2722-2.3305 0.18821-0.59514 1.2678-0.35716 3.1015 0.68365 2.084 1.1829 2.9379 2.2995 3.2957 4.3098 0.26561 1.4923 1.0049 3.0211 1.6429 3.3975 1.0124 0.59714 0.93357 2.1232-0.61894 11.989-1.7566 11.163-2.6883 13.225-4.2789 9.4674-0.71945-1.6994-0.82744-1.5856-1.3657 1.4386-0.54105 3.0398-0.39224 3.453 2.0027 5.5604 1.4229 1.2521 3.0101 2.2765 3.527 2.2765s1.1766 1.5789 1.466 3.5086c0.93979 6.2672 2.2047 9.7823 4.0794 11.337 2.7768 2.3022 1.8215 6.8409-2.4404 11.595-2.9752 3.3185-3.6868 3.7013-7.0141 3.7732-4.2405 0.0917-4.8248 0.54117-5.5743 4.2882-0.50696 2.5345-0.42038 2.6875 1.2882 2.2759 1.185-0.28549 2.5084 0.16005 3.7483 1.2619 1.6221 1.4415 1.7726 1.9463 0.97908 3.2855-1.304 2.2007-1.1866 2.9934 0.74496 5.0292 1.3715 1.4455 1.5163 2.0539 0.78327 3.291-1.5226 2.5697-1.0871 4.7612 1.0589 5.3289 2.3879 0.63168 2.4838 1.6897 0.32048 3.536-1.5221 1.2991-1.5774 1.7415-0.78326 6.2693 0.46993 2.6794 0.85442 6.333 0.85442 8.1193 0 2.6883 0.5397 3.8166 3.133 6.55 1.9018 2.0044 3.133 4.0752 3.133 5.269 0 2.1815-1.9115 2.7104-2.633 0.72843-0.24796-0.68109-0.81437-1.2383-1.2587-1.2383-0.50366 0-0.80785 3.264-0.80785 8.6684 0 5.2286 0.31083 8.6684 0.78327 8.6684 1.5929 0 0.72179 2.3711-0.96462 2.6257-1.0796 0.16294-2.8016 1.9096-4.5038 4.5681-2.7319 4.2668-4.2814 5.3193-4.9092 3.3343-0.19903-0.62934-0.70048-0.29159-1.2896 0.86857-0.7862 1.5484-0.72716 2.6496 0.32028 5.9734 0.7063 2.2413 1.5929 4.2762 1.9701 4.5219 0.37727 0.24576 2.1504-1.2277 3.9402-3.2743 2.687-3.0725 3.508-3.578 4.7101-2.8999 1.2035 0.67885 1.6676 0.3895 2.6777-1.6694 1.4936-3.0444 3.0724-3.1709 4.8042-0.38517 0.71984 1.158 1.7637 1.9214 2.3196 1.6965 0.55595-0.22486 2.7249 1.0296 4.8198 2.7877l3.809 3.1966 2.427-1.6196 2.427-1.6196 1.5263 2.0452c1.2283 1.6458 2.3525 2.0948 5.757 2.2991 3.9234 0.23543 4.216 0.39536 4.0288 2.2025-0.1773 1.7112 0.0433 1.8838 1.8104 1.4163 1.1068-0.29277 4.6769-2.0984 7.9336-4.0125z"/>
   <path id="CO-QUI" d="m440.68 612c2.8729-3.4648 4.5504-8.2946 4.5682-13.153 0.016-4.3562 0.19874-4.8218 2.5628-6.5276 4.682-3.3784 8.4201-7.635 8.4201-9.5882 0-1.8427-0.20692-1.8964-7.3135-1.8964h-7.3135l-3.3428 3.3517c-3.1516 3.16-3.4249 3.2734-4.7777 1.983-0.78918-0.75277-1.8096-1.1246-2.2675-0.82629-1.1713 0.76302-1.0392 8.8255 0.17682 10.787 0.55519 0.89563 2.3728 5.2506 4.039 9.6776 1.6663 4.4271 3.1822 8.0492 3.3688 8.0492 0.18656 0 1.0323-0.83588 1.8794-1.8575z"/>
   <path id="CO-CAS" d="m623.33 601.93c1.7776-1.4291 2.8516-1.7953 3.6682-1.251 2.6311 1.7537 6.0493 0.82776 10.78-2.9201 4.3639-3.4575 5.0203-3.715 9.4701-3.715 3.933 0 4.9548 0.29293 5.7596 1.6511 2.056 3.4699 5.6125 1.6455 17.938-9.2017 3.5634-3.136 11.995-7.3096 14.767-7.3096 2.4107 0 18.648-8.8258 23.117-12.565 2.1658-1.8122 5.4172-5.8 7.2742-8.9212 2.7733-4.6615 3.9468-5.8812 6.7406-7.0058 3.4003-1.3687 7.0778-5.3048 10.51-11.249 3.5126-6.0837 11.535-11.184 25.062-15.932 4.4901-1.5761 7.6423-3.3145 10.181-5.6148 4.3899-3.9777 4.5239-4.2 5.222-8.6648 0.39003-2.4944 1.2558-4.1182 3.0254-5.6747 2.7069-2.3808 4.3661-4.9915 4.4095-6.9379 0.047-2.1087-3.7756-5.7705-6.0238-5.7705-1.2596 0-3.4735-1.2424-5.647-3.169-5.2823-4.6823-6.3672-5.0866-13.65-5.0866-6.1776 0-6.979 0.20318-11.213 2.8425l-4.5599 2.8426-5.0912-1.2106c-2.8002-0.66581-6.3464-1.784-7.8805-2.4848-4.0851-1.8662-27.257-1.1853-37.893 1.1136-6.9653 1.5054-7.9727 1.5534-9.5618 0.456-1.6347-1.1289-2.287-0.99387-8.1876 1.695-5.9865 2.728-6.5571 2.8422-8.6107 1.7229-2.0631-1.1245-2.626-1.0003-9.0913 2.0058-6.3984 2.9751-7.0465 3.1212-9.0493 2.0411-1.1865-0.63987-3.0663-2.6112-4.1773-4.3807-2.1724-3.46-3.5571-4.3909-5.4143-3.6397-1.4689 0.5941-1.4689 3.3692 0 6.0775 0.6324 1.166 1.1315 4.3208 1.1471 7.2515 0.0273 5.0989-0.0208 5.2178-2.811 6.9529l-2.8388 1.7654 4.4053 2.3479c2.4229 1.2913 4.4053 2.6819 4.4053 3.0902 0 0.40829 1.0272 1.7642 2.2827 3.0132 2.1666 2.1554 2.2204 2.371 1.0576 4.2415-0.67379 1.0839-1.6254 4.0871-2.1147 6.6739-0.78497 4.1499-1.1276 4.7328-2.9123 4.954-1.5526 0.19244-2.3867-0.35539-3.5893-2.3574l-1.5667-2.6081-2.649 3.4839c-1.4569 1.9162-4.7637 5.3411-7.3485 7.6111-2.5848 2.2699-5.173 5.057-5.7516 6.1936l-1.052 2.0664-3.292-3.4053-3.292-3.4053-2.6034 2.8311c-2.6671 2.9004-4.5482 9.2361-3.1822 10.718 0.96142 1.043-1.8368 6.4867-4.589 8.9276-2.0613 1.8281-2.3469 2.6955-2.8464 8.6425-0.54986 6.5472-0.53014 6.6492 2.061 10.662 1.4389 2.2282 2.8416 4.2369 3.1171 4.464 0.27549 0.22703 0.92226 1.9008 1.4373 3.7194 0.71488 2.5244 1.8238 3.9256 4.6879 5.9232 2.9668 2.0692 3.8614 3.2339 4.2769 5.5682l0.52536 2.9516h4.3247c3.3816 0 4.8729-0.44067 6.8382-2.0207z"/>
   <path id="CO-BOY" d="m592.3 579.23c0.52223-0.88137 1.1742-4.6893 1.4489-8.462 0.49395-6.7841 0.53726-6.8971 3.9385-10.279 3.4473-3.4273 4.0759-4.737 2.7029-5.6314-0.43636-0.28425-0.27686-1.6381 0.39163-3.3245 0.62028-1.5647 1.1278-3.68 1.1278-4.7006 0-1.1024 1.4975-3.4582 3.6893-5.8036l3.6893-3.9479 2.8484 2.9316 2.8484 2.9316 2.7003-2.7271c1.4852-1.4999 4.1014-4.0273 5.8137-5.6165 1.7124-1.5892 4.5425-4.7111 6.2892-6.9375l3.1758-4.048 1.7685 3.016c2.4142 4.1172 3.6937 3.8521 4.3705-0.90537 0.30683-2.1568 0.89024-4.576 1.2965-5.3761 1.1384-2.2421-2.7306-6.9173-8.0798-9.7634-2.5093-1.3351-4.5624-2.6032-4.5624-2.818 0-0.21479 1.4389-1.348 3.1976-2.5181l3.1976-2.1276-0.36762-5.1064c-0.2022-2.8085-0.73571-6.7782-1.1856-8.8215-1.1021-5.0058 0.14386-10.438 3.0865-13.457 1.2425-1.2746 2.2538-3.1976 2.2538-4.2855 0-2.5202 1.0946-3.2206 3.1879-2.0398 1.2417 0.70041 2.2216 0.68496 3.9325-0.062 1.9663-0.85844 2.2787-1.4372 2.2787-4.2205 0-3.2122 2.1264-8.4128 7.0068-17.137 1.7027-3.0437 2.3924-5.3371 2.3924-7.9553 0-3.5068-0.10587-3.6787-2.266-3.6787-1.3982 0-2.4591-0.53034-2.7702-1.3849-0.46306-1.2719-0.60691-1.2767-1.7626-0.0585-1.1557 1.2181-1.4202 1.2147-3.2404-0.0423-1.655-1.1429-2.0426-1.1767-2.35-0.20495-0.20242 0.64008-1.1432 1.9325-2.0905 2.872-0.94735 0.93951-2.6886 3.2596-3.8696 5.1558l-2.1471 3.4476-3.1658-1.1773c-1.7412-0.6475-3.2977-1.1773-3.459-1.1773-0.16124 0-0.30099 3.4364-0.31057 7.6364-0.0144 6.3064-0.28419 7.9959-1.5491 9.7004-0.84243 1.1351-1.5395 2.7134-1.5491 3.5071-0.01 0.81251-1.6433 2.5247-3.7379 3.918l-3.7205 2.4748-2.5562-2.8861c-1.4059-1.5874-3.0801-2.8861-3.7205-2.8861-1.8016 0-1.3866 3.1983 0.76472 5.893 1.5837 1.9838 1.794 2.7907 1.1749 4.5071-0.41479 1.1499-0.75905 3.0882-0.76502 4.3073-0.007 1.4882-1.4459 3.9798-4.3782 7.5827-2.402 2.9514-5.7815 7.5376-7.5099 10.192l-3.1426 4.8255-6.1283-0.57178-6.1283-0.57177-2.026 3.3828c-1.1143 1.8605-2.3999 3.3828-2.8568 3.3828-0.45692 0-2.087 1.475-3.6225 3.2777l-2.7917 3.2777-2.2422-1.6828c-2.7824-2.0883-2.8658-4.4866-0.28404-8.1749 2.8199-4.0286 2.5615-6.5764-0.92062-9.0766-2.3434-1.6826-2.939-1.835-3.2557-0.83349-0.21321 0.67417-1.4244 2.3185-2.6916 3.6541-2.18 2.2977-2.2848 2.7201-1.9476 7.8508 0.23786 3.6194 0.0001 6.1731-0.71503 7.6802l-1.0714 2.2577-3.1037-1.3089c-2.8366-1.1963-3.4203-1.1952-6.7833 0.0126-2.0238 0.72682-5.1789 1.3215-7.0114 1.3215-2.808 0-3.5949-0.38936-5.005-2.4767-0.92026-1.3622-2.0565-2.4767-2.525-2.4767s-2.0735-0.98215-3.5667-2.1826c-2.6231-2.1088-2.7893-2.1362-4.916-0.8121-2.117 1.3181-2.248 1.2998-3.4294-0.47783-0.73882-1.1118-1.2282-3.5844-1.2282-6.2052v-4.3569h-4.2804c-3.6486 0-4.4139-0.27415-5.1852-1.8575-0.49765-1.0216-1.8752-2.972-3.0612-4.3342s-2.3878-3.5138-2.6706-4.7814l-0.51413-2.3047-1.935 2.4239c-2.3235 2.9104-2.375 3.7-0.45921 7.0414 1.3823 2.411 1.4015 2.8879 0.30305 7.5275-0.64503 2.7244-1.881 5.7687-2.7465 6.7652-1.1045 1.2716-1.4267 2.4292-1.0806 3.8827 0.48562 2.0394 0.54102 2.0531 3.6427 0.89963 2.4139-0.89766 3.5978-0.95595 5.0688-0.24955 1.6308 0.78317 2.3695 0.5928 4.9153-1.2667 1.6478-1.2036 3.4357-2.1884 3.973-2.1884 1.5868 0 3.2467 5.3658 3.248 10.499 0.002 6.8232 1.8252 10.264 6.0172 11.352 1.8023 0.46815 4.0934 1.6318 5.0912 2.5859 0.99783 0.95408 2.2284 1.9804 2.7346 2.2808 1.0533 0.62494 4.9541-1.0306 4.9541-2.1025 0-0.39131 1.4709-2.3934 3.2687-4.4491 4.0636-4.6465 6.8286-4.8209 7.9963-0.50416 0.60737 2.2453 1.0432 2.6586 2.4199 2.2944 1.1416-0.30201 2.6047 0.36003 4.5712 2.0685 2.3119 2.0086 2.8921 3.0826 2.8921 5.3537 0 2.0663 0.61992 3.4569 2.2735 5.0997 1.3644 1.3554 2.9202 4.3542 3.8908 7.499l1.6173 5.2403-1.9978 4.1554c-2.2648 4.7108-1.8646 5.7716 2.6313 6.9744 1.844 0.49334 3.2412 1.8114 5.0964 4.8075 2.088 3.3722 3.0237 4.1754 5.1115 4.3877 1.6659 0.16942 2.9907 0.95977 3.8054 2.2703 1.5437 2.4832 4.9812 2.7044 6.3419 0.4079z"/>
   <path id="CO-RIS" d="m457.34 576.27c0.39025-1.6389-0.13189-2.8803-2.4308-5.7789l-2.9278-3.6917h-6.476-6.476l-1.5984-3.3022c-0.87911-1.8162-1.7603-3.3022-1.9582-3.3022-0.19789 0-1.0936 1.516-1.9904 3.3689l-1.6306 3.3689-2.4974-2.0238c-3.4423-2.7894-3.8028-7.7687-0.96919-13.386 1.098-2.1767 1.9964-4.6544 1.9964-5.5062 0-2.0217 3.0456-3.204 6.6607-2.5856 2.8489 0.48728 2.854 0.48281 2.6006-2.3128l-0.25379-2.801-5.0912-0.0212-5.0912-0.0212-0.24525-2.6592c-0.18917-2.051-0.69802-2.779-2.2249-3.1829-2.9324-0.77571-7.881 1.0947-10.221 3.8633-1.1445 1.3538-2.8529 2.4341-3.8497 2.4341-1.3835 0-2.1692 0.89399-3.4464 3.9214-2.3861 5.6558-2.7433 8.2608-1.3615 9.9292 0.64792 0.78228 1.5742 2.7256 2.0585 4.3184 1.1314 3.7213 3.3097 5.1615 6.7716 4.4769 2.4753-0.48946 2.8154-0.29466 4.3869 2.5126 0.93695 1.6738 2.4836 3.3558 3.437 3.7379 1.7487 0.70076 3.0877 4.6793 2.3015 6.8385-0.63011 1.7307 9.7794 3.6466 20.52 3.7768l9.5101 0.11525 0.49703-2.0872z"/>
   <path id="CO-CAL" d="m460.03 570.31c0.39772-0.7946 0.66004-4.0452 0.58292-7.2237-0.0932-3.842 0.30411-6.9143 1.1854-9.1664 1.1501-2.9389 1.7248-3.4569 4.34-3.9123 1.6579-0.2887 3.8493-0.529 4.8698-0.53399 1.0342-0.005 3.8701-1.728 6.4071-3.8926l4.5518-3.8835 6.9945 0.23338 6.9945 0.23338 1.2846-3.3839c0.70652-1.8611 1.2859-5.141 1.2875-7.2886 0.002-2.4446 0.58761-4.9155 1.5665-6.6077 1.9877-3.4361 2.1553-9.9057 0.27631-10.666-0.85604-0.34624-1.9712 0.32121-3.3289 1.9923-2.5947 3.1938-5.2955 3.9582-6.3873 1.8079-1.0587-2.085-2.2692-1.9952-8.6791 0.64362-4.3531 1.7921-5.3086 2.5012-4.9545 3.6771 0.32132 1.0671-0.46305 2.0531-2.9315 3.6854-1.8536 1.2257-4.5766 3.2691-6.0511 4.5409-2.6258 2.265-2.7278 2.2835-4.9701 0.90522-3.3656-2.0688-5.2728-5.3263-5.2728-9.006 0-4.4564-1.2314-5.5614-3.9358-3.5317-2.1014 1.5772-2.1388 1.5768-3.5234-0.0358-2.3641-2.7534-2.8756-1.8962-2.5987 4.3554l0.2651 5.9853-7.0484 0.48509c-8.6339 0.59421-9.7898 1.0742-9.7898 4.0653 0 2.2019 0.14042 2.29 3.0056 1.8849 1.9234-0.27191 3.8715 0.0471 5.4106 0.88596 2.2328 1.217 2.3776 1.5634 2.0211 4.8377-0.58103 5.3378-0.8576 5.9508-2.1677 4.8048-0.61102-0.53449-2.448-0.85496-4.0822-0.71215-2.6396 0.23068-3.0618 0.5822-3.7828 3.1491-0.44635 1.5892-1.2487 3.7009-1.783 4.6927-1.4161 2.6287-1.265 9.0465 0.22727 9.65 0.78291 0.31665 1.5069-0.22798 2.087-1.5701 1.0513-2.4319 5.2697-5.0002 5.6548-3.4428 1.5474 6.2566 1.1128 5.9223 8.0384 6.1816l6.3717 0.23853 3.0109 3.6051c3.4332 4.1109 3.8547 4.312 4.8538 2.3159z"/>
   <path id="CO-SAN" d="m552.61 512.8c2.9652-0.94869 3.9776-0.95836 6.0106-0.0574 3.1533 1.3975 3.515 0.51546 2.8555-6.9632-0.46297-5.2504-0.37924-5.6625 1.4606-7.1879 1.0734-0.88997 2.5373-2.8117 3.2531-4.2705 0.71573-1.4588 1.7703-2.6524 2.3435-2.6524 0.57318 0 2.6789 1.3173 4.6795 2.9273 4.2752 3.4406 4.6236 5.5372 1.6792 10.104-2.1385 3.3171-2.435 5.1235-1.0758 6.556 0.65423 0.68956 1.3718 0.31685 2.7758-1.4419 1.0414-1.3045 2.4949-2.573 3.2299-2.8189 0.735-0.24588 2.2632-2.0644 3.396-4.0412l2.0597-3.5941 6.2204 0.37954 6.2204 0.37953 3.0102-4.4317c1.6556-2.4374 4.6723-6.475 6.7039-8.9723 2.0315-2.4973 3.8792-5.6551 4.1059-7.0173 0.22672-1.3622 0.65149-3.2681 0.94393-4.2355 0.39119-1.294-0.0179-2.2959-1.5479-3.7913-1.6917-1.6533-2.0329-2.6343-1.8292-5.2585 0.22854-2.9438 0.46504-3.248 2.7038-3.4774 2.0013-0.20511 2.8726 0.28457 4.7282 2.6574l2.2749 2.9088 2.517-1.6133c1.3843-0.88733 2.5248-2.0832 2.5344-2.6574 0.01-0.57425 0.70668-1.9728 1.5491-3.108 1.2163-1.639 1.5353-3.3855 1.5491-8.4824 0.0165-6.0944-0.0815-6.4582-1.9407-7.2032-1.486-0.59549-1.9582-1.3798-1.9582-3.2528 0-2.9123-0.25712-3.0699-10.182-6.2418-4.0926-1.3079-7.7243-2.6243-8.0704-2.9254-0.3462-0.30107-0.0312-1.8697 0.70002-3.4859 1.0934-2.4167 1.1806-3.5565 0.49133-6.4188-0.50354-2.091-0.56694-4.2321-0.15881-5.3635 0.55599-1.5413-0.0943-3.1226-3.5824-8.7107-2.3439-3.7551-4.2617-7.2482-4.2617-7.7625 0-0.60694-2.207-0.98445-6.2905-1.076-6.0479-0.13556-6.3193-0.0612-7.0368 1.9281-0.56847 1.5759-1.1694 1.9765-2.5212 1.6807-0.97618-0.21363-3.8897-0.63033-6.4744-0.92601-4.2007-0.48053-5.2609-1.021-9.9866-5.0905-2.9079-2.5041-5.287-4.8598-5.287-5.2349 0-0.37514-1.3218-0.79736-2.9372-0.93829-2.5506-0.2225-2.9699-0.55526-3.1852-2.5282-0.14537-1.3317 0.42191-3.2636 1.3707-4.668 2.356-3.4873 2.0249-5.4728-1.8089-10.848l-3.4276-4.8059-2.1594 2.3757c-2.0592 2.2654-2.1177 2.5504-1.2594 6.1428 0.49498 2.0719 1.7464 5.7151 2.781 8.0959 2.9122 6.702 2.9583 9.3411 0.26261 15.061-1.2839 2.7244-3.2379 5.968-4.3422 7.2082-1.7623 1.9791-1.8955 2.5145-1.0896 4.3788 0.92782 2.1463 0.71376 5.7247-0.77367 12.933-0.73006 3.5381-0.63095 4.1219 1.1212 6.6045 1.0571 1.4978 2.1348 3.9204 2.3949 5.3836 0.41188 2.3176 0.13844 2.9291-2.1228 4.747-1.4276 1.1477-3.2673 2.0924-4.0882 2.0993-1.9562 0.0166-2.6048 0.55563-5.6827 4.7236-1.4207 1.9239-3.6202 4.1436-4.8878 4.9328-1.2675 0.78919-3.1851 2.8373-4.2613 4.5513-1.6126 2.5683-2.4155 3.1164-4.5656 3.1164-1.6184 0-3.1498 0.62993-4.0335 1.6592-1.2678 1.4765-1.3355 2.2719-0.6153 7.2237 0.90378 6.214 0.78499 6.8028-1.3723 6.8028-0.9146 0-2.3039 1.3248-3.5217 3.3581-1.7884 2.9861-1.913 3.6717-1.1248 6.1892 0.48755 1.5571 1.5085 3.2966 2.2688 3.8656 0.76025 0.56898 1.8031 1.8704 2.3174 2.892 0.79325 1.5757 1.5776 1.8575 5.1693 1.8575 2.3288 0 4.4668 0.39673 4.7511 0.88163 0.28432 0.48488 0.70655 3.0854 0.93827 5.7789 0.43637 5.0722 0.80347 5.5008 3.4387 4.0143 1.2671-0.71476 2.0683-0.47879 4.2042 1.2383 1.4513 1.1668 3.167 2.1214 3.8126 2.1214s1.9268 1.1145 2.847 2.4767c1.4049 2.0796 2.1984 2.4752 4.9487 2.4678 1.8015-0.005 4.8801-0.52232 6.8413-1.1498z"/>
   <path id="CO-ARA" d="m803.58 493.58c1.5224-0.76519 2.7642-1.6011 2.7595-1.8575-0.005-0.25645-5.1065-7.3391-11.337-15.739-6.2309-8.4001-15.048-20.381-19.594-26.624-8.023-11.019-8.3511-11.351-11.203-11.351-1.6159 0-3.7348 0.58826-4.7087 1.3072-1.6406 1.2112-2.2892 1.1505-8.8251-0.82556-3.8799-1.173-7.2149-2.1328-7.4111-2.1328-0.19617 0-0.35667-0.70326-0.35667-1.5628 0-2.2365-1.4234-2.565-11.113-2.565-8.2989 0-8.746 0.0914-11.489 2.3488-1.5698 1.2918-4.5512 2.7893-6.6254 3.3276-3.4843 0.90433-3.8721 0.84755-5.0965-0.74617-1.2041-1.5673-1.6649-1.6448-5.0423-0.84698-2.7864 0.65818-6.2169 0.57929-13.702-0.31507-17.249-2.0611-20.316-2.1818-21.372-0.84113-0.52001 0.66041-1.7394 1.2008-2.7098 1.2008-0.97039 0-2.8658 0.23219-4.212 0.51598-2.1719 0.45784-2.4477 0.83581-2.4477 3.3545 0 1.9361-1.4941 5.6506-4.6996 11.684-4.0882 7.6946-4.6996 9.4114-4.6996 13.197 0 4.3088-0.0322 4.367-3.2612 5.8908-2.3302 1.0996-3.7837 1.3296-5.0912 0.80564-1.6031-0.6424-1.83-0.48738-1.83 1.2502 0 1.143-0.84664 2.6855-1.998 3.64-2.2246 1.8444-4.193 7.182-2.3778 6.4479 1.5317-0.6195 5.5788 2.2572 7.1701 5.0966 2.5876 4.6171 3.9175 4.7417 11.739 1.1003 6.5576-3.053 7.1348-3.1833 9.0102-2.0327 1.8643 1.1437 2.4642 1.0281 8.6159-1.6614 6.2135-2.7165 6.7352-2.8146 8.6545-1.627 1.8687 1.1562 2.7684 1.0976 10.574-0.68784 12.087-2.7648 31.052-3.2137 36.274-0.85856 1.9736 0.89009 5.7206 2.0571 8.3267 2.5933 4.7338 0.97401 4.7427 0.97214 9.3992-1.9872 4.3961-2.7939 5.0472-2.9623 11.463-2.9643l6.8019-0.002 5.7265 4.5406c3.6057 2.859 6.4998 4.5406 7.8146 4.5406 1.335 0 2.7667 0.84997 3.9694 2.3564 2.5308 3.1701 2.9369 3.2825 12.134 3.3574 5.9868 0.0488 8.6989-0.28517 10.77-1.3261z"/>
   <path id="CO-NSA" d="m628.06 442.54c1.6166-1.1164 2.1146-1.1152 4.6726 0.0113l2.8632 1.2609 2.4164-4.1392c1.329-2.2765 2.7295-4.1392 3.1123-4.1392 0.38279 0 1.2494-1.128 1.9258-2.5067l1.2299-2.5067 2.3182 1.7398c3.3297 2.499 3.8242 0.36878 1.127-4.8546-1.448-2.8042-1.9345-4.6518-1.5558-5.9094 0.33582-1.1152 0.0264-3.0556-0.79234-4.9694l-1.3433-3.1398-7.2631 0.45672-7.2631 0.45672-0.58692-5.2754c-0.3228-2.9015-0.64323-10.662-0.71205-17.246l-0.12515-11.971 2.5568-3.3567c1.9174-2.5173 2.6846-4.5024 3.0677-7.9383 0.33885-3.0387 0.21497-4.7744-0.36784-5.1541-0.48331-0.31483-0.87874-2.3825-0.87874-4.5948 0-3.9932-0.0559-4.081-7.7279-12.128l-7.7279-8.106-3.7096-15.273c-2.0403-8.4001-4.1142-15.546-4.6085-15.879-1.504-1.0149-4.1751-0.70372-5.2068 0.60653-0.5363 0.68109-1.9893 1.2384-3.229 1.2384-2.1267 0-2.2549-0.19796-2.2713-3.5086-0.0107-2.159-0.59087-4.2953-1.5083-5.5537l-1.4909-2.045-2.9955 2.5372c-2.5126 2.1282-3.9425 2.6309-8.87 3.1184-9.3288 0.92292-8.6159-0.0123-8.6159 11.303v9.8676l-3.5247 7.3971c-1.9386 4.0684-3.5247 7.8512-3.5247 8.4062 0 0.55504 1.0744 2.1775 2.3875 3.6054 2.1691 2.3588 2.3 2.7987 1.4311 4.8087-0.68025 1.5736-0.71401 2.4678-0.11695 3.0971 0.59707 0.62931 0.98992 0.16259 1.3607-1.6165 0.79695-3.8245 2.0203-4.4388 4.9482-2.4849 3.6081 2.4079 3.5112 6.2696-0.2796 11.146l-2.8013 3.6033 1.3332 4.2306c0.73324 2.3268 2.5226 5.6182 3.9762 7.3141 3.0754 3.588 3.3464 5.9049 0.89147 7.6229-1.3847 0.96904-1.5607 1.4683-0.84018 2.3833 0.71819 0.91212 0.32899 2.1611-1.8361 5.8922-2.666 4.5943-2.8486 4.7347-6.1582 4.7347-1.8759 0-4.403-0.3707-5.6157-0.82377-2.1557-0.80536-2.1437-0.76675 0.53646 1.7261 1.5078 1.4024 3.4464 3.0382 4.308 3.6351 2.0735 1.4364 11.357 2.5413 11.357 1.3516 0-1.7933 3.5754-2.7881 10.113-2.8136 5.8722-0.023 6.7624 0.16308 7.0034 1.4638 0.34179 1.8445 4.372 8.8989 7.3586 12.88 1.9486 2.5976 2.1157 3.2354 1.3262 5.0616-0.63284 1.4639-0.67859 3.1999-0.15281 5.7983 0.53205 2.6293 0.47829 4.3999-0.1847 6.0835l-0.93517 2.3748 8.6881 2.9117c7.7652 2.6024 8.713 3.1286 8.9223 4.9534 0.51263 4.4685 0.85686 4.7424 3.5884 2.856z"/>
   <path id="CO-BOL" d="m531.5 430.34c2.4142-2.3661 6.027-6.3853 8.0284-8.9316 3.6073-4.5894 4.2196-6.744 2.9074-10.231-0.463-1.2301-0.0491-2.343 1.623-4.3647 2.957-3.5749 6.1579-10.317 6.1579-12.97 0-1.1639-0.93793-4.4269-2.0843-7.2511s-2.5123-6.9924-3.0354-9.2627l-0.95115-4.1278 3.9453-4.2889 3.9453-4.2889 0.36073-8.5488c0.31814-7.5396 0.16448-8.9543-1.3015-11.983-2.0968-4.3319-2.3467-13.718-0.42492-15.956 1.561-1.818 0.36939-4.5915-2.4598-5.7253-1.2544-0.50267-1.9105-1.4122-1.9105-2.6484 0-2.0401-2.2567-3.469-7.0553-4.4673-5.1874-1.0792-7.5097-2.6665-12.419-8.4886-4.3261-5.1305-5.258-5.8412-7.659-5.8412-1.5035 0-3.46-0.40973-4.3478-0.9105-1.1929-0.67287-2.1504-0.6526-3.669 0.0777-1.9162 0.92146-2.2588 0.74614-5.0756-2.597-1.6614-1.9718-3.6786-4.9446-4.4828-6.606-1.1061-2.2852-2.2779-3.3082-4.812-4.2009l-3.3498-1.1801 0.27547-5.8906c0.26098-5.5809 0.10656-6.2207-2.9372-12.168-3.8088-7.4426-4.0573-10.498-1.1171-13.732 1.9043-2.095 2.0001-2.4935 1.0495-4.3657-0.57536-1.1331-1.6985-2.2785-2.4958-2.5452-0.79734-0.26673-1.9759-1.5575-2.6191-2.8684-1.0546-2.1494-1.035-2.6803 0.19875-5.4073l1.3681-3.0239-3.4412-3.2187c-1.9938-1.8649-3.9681-3.0535-4.6939-2.826-1.7316 0.54291-3.823-0.82114-9.8019-6.3928l-5.1443-4.794 1.6081-3.3224c1.5207-3.1417 1.5369-3.4369 0.29908-5.4281-0.71996-1.1581-1.5348-1.7424-1.8107-1.2984-0.27593 0.44403-1.4465 1.0509-2.6012 1.3486-1.1548 0.29767-3.407 1.8409-5.005 3.4294s-3.3761 2.8881-3.9514 2.8881c-0.7991 0-0.86567 0.49976-0.28206 2.1176 1.0668 2.9574 0.9527 6.7591-0.21521 7.1724-0.76894 0.27213-0.74781 0.80412 0.0984 2.4787 0.9621 1.9038 0.90245 2.3914-0.55685 4.5514-1.4184 2.0995-1.5239 2.8409-0.79849 5.6101 0.60457 2.3078 0.5961 3.2751-0.0306 3.4953-1.6975 0.59638-0.81204 1.8685 3.0387 4.3659l3.9052 2.5327-1.1638 2.3721c-0.64009 1.3046-1.1638 3.4832-1.1638 4.8412 0 2.2444 0.30298 2.533 3.3289 3.1708 3.1568 0.66544 3.327 0.84935 3.2927 3.5572-0.0199 1.5705-0.32058 4.468-0.66826 6.4388-0.60573 3.4336-0.56549 3.5457 0.96372 2.6831 3.2531-1.835 6.6977-1.0939 9.5736 2.0597 1.4846 1.628 3.7567 3.527 5.049 4.2202 3.064 1.6434 7.2848 5.8585 8.6827 8.6709 0.60943 1.2261 1.1091 3.8266 1.1103 5.7789 0.003 5.1331 6.7772 19.114 9.4607 19.526 2.8221 0.43334 9.6924 8.34 11.141 12.822 1.1741 3.6319 1.1608 3.847-0.28752 4.664-2.5228 1.4231-2.1127 8.6984 0.74294 13.18 2.2036 3.4582 2.23 3.6248 1.0346 6.5223-0.67466 1.6354-1.4279 4.5952-1.6739 6.5773-0.43854 3.5339-0.53836 3.6397-5.1468 5.4561-7.075 2.7886-7.441 2.9964-7.441 4.2235 0 0.62486 1.8505 2.109 4.1121 3.2981 2.2617 1.1891 5.6101 3.6875 7.441 5.552 3.0815 3.138 3.3289 3.7106 3.3289 7.7049 0 4.9914 1.072 8.5502 2.5755 8.5502 0.57625 0 2.0483 1.1007 3.2711 2.446l2.2234 2.446-4.8564 2.2199c-3.3219 1.5184-4.7251 2.5807-4.4408 3.3616 0.22862 0.62796 0.0418 2.979-0.41507 5.2246-0.80118 3.9375-0.75189 4.1559 1.3848 6.1369 3.0193 2.7992 3.8356 2.6379 6.1424-1.2136 1.6418-2.7412 2.2349-3.1807 3.4031-2.5218 3.1462 1.7747 3.3219 2.9199 0.90506 5.8994-2.1228 2.6171-2.2993 3.3394-2.3287 9.5312-0.0407 8.5572 1.4373 11.068 6.4869 11.018 2.8412-0.028 3.85-0.59867 7.6615-4.3342z"/>
   <path id="CO-COR" d="m433.97 409.7c1.7584-2.3623 4.7103-7.2672 6.5596-10.9 4.7586-9.3468 5.1446-9.7392 8.0324-8.1652 3.0699 1.6733 4.5338 0.96627 4.5338-2.1897 0-2.1987 0.43858-2.761 3.0787-3.9473 1.6933-0.76088 3.6408-2.3854 4.3277-3.61 0.68694-1.2246 3.0372-4.2889 5.2228-6.8094l3.9739-4.5828 2.1742 1.3537c1.7873 1.1128 2.6308 1.186 4.7391 0.41132 1.4107-0.51833 3.834-0.9481 5.3852-0.95505 3.5939-0.0161 4.3385-0.55744 5.7771-4.1998 0.90721-2.2969 1.7509-3.0955 3.7053-3.5075 1.3918-0.2934 4.9239-1.5187 7.849-2.7229 4.9377-2.0328 5.3403-2.3874 5.6246-4.9545 0.36006-3.2508-1.0556-3.7412-2.3247-0.80523-0.73938 1.7104-3.9031 3.1283-7.5044 3.3633-0.36251 0.0237-1.4199-1.6199-2.3498-3.6523-1.81-3.956-4.9147-6.3542-9.698-7.4913-2.1137-0.50246-3.0753-0.38223-3.6915 0.46154-0.45833 0.62754-2.6931 1.9027-4.9661 2.8337l-4.1328 1.6927-0.76263-2.1142c-0.41944-1.1628-0.76262-2.4615-0.76262-2.886 0-0.42449-1.2462-0.77182-2.7693-0.77182-2.5435 0-2.8947-0.30843-4.308-3.7835-1.7404-4.2796-1.9233-7.1908-0.68646-10.93 0.72669-2.1971 0.60467-2.9432-0.82827-5.0642l-1.6805-2.4875 3.3739-1.6075c1.8556-0.88411 3.9713-1.7989 4.7014-2.0328 1.4214-0.45543 2.6842-5.4136 1.9162-7.5232-0.28612-0.78589-1.4787-1.2446-3.2359-1.2446-2.2082 0-2.967-0.42614-3.675-2.0639-0.49072-1.1351-1.53-2.0639-2.3096-2.0639-0.83571 0-2.1503-1.36-3.2031-3.3138-1.3969-2.5922-2.9796-3.9328-7.2686-6.1565-3.0156-1.5635-6.0802-3.0248-6.8103-3.2473-0.78034-0.23784-1.5463-1.6338-1.8583-3.387-0.41484-2.3307-0.80935-2.8609-1.8056-2.4264-2.7537 1.201-4.0162 1.3471-4.0162 0.46491 0-0.53669-1.4156-0.92185-3.3882-0.92185-2.6013 0-3.8154 0.47931-5.2277 2.0639-1.0118 1.1352-2.7058 2.0639-3.7646 2.0639-3.3604 0-8.7677 7.1941-8.7677 11.665 0 0.90787-1.0454 2.5778-2.3232 3.711-1.3766 1.2209-2.5291 3.2174-2.8286 4.9001-0.36917 2.0741-0.91409 2.8397-2.0212 2.8397-0.86419 0-2.0894 1.0624-2.8501 2.4715-0.73385 1.3593-1.9511 2.4738-2.705 2.4767-1.7242 0.007-1.7137 0.19799 0.19289 3.4939 0.85998 1.4867 1.5703 3.8175 1.5785 5.1797 0.0191 3.1748 0.22169 3.4466 6.0612 8.136 3.9943 3.2076 4.8954 4.3657 4.8954 6.2921 0 1.2985 0.17206 2.8557 0.38236 3.4604 0.2103 0.60472-1.7408 3.8858-4.3358 7.2912-6.4758 8.4983-8.8598 13.985-8.6597 19.929 0.14019 4.1638-0.0649 4.8394-1.9415 6.3953-1.4731 1.2213-2.4143 3.1549-3.1588 6.4895-1.8485 8.2795-1.4586 11.491 2.4137 19.876l3.4986 7.5765 14.712-0.0391 14.712-0.0391 3.1972-4.2951z"/>
   <path id="CO-CES" d="m576.37 389.3c1.9712-3.1395 2.0124-3.4115 0.8095-5.3465-1.22-1.9624-1.1912-2.0752 0.76866-3.0164 2.6017-1.2494 2.5769-2.9168-0.0869-5.8474-1.1676-1.2845-2.9122-4.633-3.8768-7.441l-1.7539-5.1055 2.7518-3.5396c2.1246-2.7328 2.6958-4.1504 2.5061-6.2192-0.16188-1.7657-0.7132-2.773-1.6164-2.9533-0.75389-0.15054-1.3707 0.10086-1.3707 0.55866 0 0.45779-0.34914 1.8002-0.77586 2.9832-0.69294 1.921-0.96501 2.0459-2.5456 1.1685-2.5233-1.4007-2.8885-2.3096-2.0035-4.9856 0.68451-2.0696 0.48079-2.7225-1.6465-5.2762-1.3352-1.6029-2.4277-3.0946-2.4277-3.3149s1.5861-3.7292 3.5247-7.7976l3.5247-7.3971v-10.791-10.791l2.5672-1.1306c2.2429-0.98774 2.8006-1.895 4.4152-7.1816 1.3894-4.5495 2.8584-7.2801 5.92-11.004 5.9101-7.1893 9.029-12.36 9.029-14.97 0-1.419 0.88298-3.2488 2.3238-4.8157l2.3238-2.527-1.1836-4.7773-1.1836-4.7773 2.3845-3.1732c2.2029-2.9316 2.3845-3.671 2.3845-9.7109 0-6.1864 0.12625-6.6651 2.3498-8.9104 1.2924-1.305 2.3498-2.5998 2.3498-2.8771 0-0.97136-14.282-2.4439-15.738-1.6227-0.97142 0.54797-1.5759 0.47308-1.9775-0.24499-0.31812-0.56879-1.0713-1.8481-1.6738-2.8428-1.031-1.7024-0.91112-1.9077 2.0404-3.4948 5.0534-2.7173 5.297-7.501 0.48982-9.618-1.4349-0.63193-2.8346-1.8983-3.1104-2.8141-0.60035-1.9937-1.0856-2.0551-3.3032-0.41796-2.2785 1.6821-2.8962 0.33435-1.4818-3.2334l1.1435-2.8845-4.4474-1.364c-4.0978-1.2568-4.7607-1.26-8.4326-0.0413-2.1918 0.7275-4.9235 1.3227-6.0703 1.3227s-2.0851 0.3715-2.0851 0.82556 0.88117 0.82556 1.9582 0.82556c1.5858 0 1.9582 0.40752 1.9582 2.1429 0 1.1786-0.73597 3.2322-1.6355 4.5637-1.3675 2.0242-1.5008 2.828-0.8138 4.9053 0.49773 1.5049 0.55308 3.2291 0.1404 4.3732-0.72879 2.0204-3.9894 4.654-5.7621 4.654-0.5922 0-1.458 0.88191-1.9239 1.9598-0.84059 1.9445-5.0409 3.5526-8.2667 3.1649-1.8584-0.22335-4.9145 3.6498-8.6027 10.903-2.702 5.3135-2.8998 6.1228-2.1569 8.825 0.52415 1.9065 2.9119 5.2181 6.6479 9.2203 4.0148 4.3008 6.0863 7.2302 6.6532 9.4084 0.45273 1.7397 1.5098 4.2518 2.349 5.5825 2.6537 4.2078 1.3528 5.0951-7.1255 4.86l-7.3092-0.20275-2.5052 3.1664-2.5052 3.1664 3.1629 1.5033c4.0856 1.9418 7.9937 8.581 6.8757 11.68-0.89675 2.486-0.89572 2.7143 0.0122 2.7143 0.40276 0 1.6253 0.35788 2.7168 0.79528 1.9726 0.79049 1.9774 0.81648 0.79918 4.3342-1.51 4.5082-1.0186 6.4705 2.1082 8.4172 2.0472 1.2746 2.3034 1.7254 1.403 2.4684-1.3901 1.147-0.99458 5.4496 0.50098 5.4496 0.60882 0 1.8086 1.4496 2.6662 3.2214 1.3608 2.8114 1.4127 3.3497 0.40755 4.2289-1.8856 1.6494-1.5538 12.424 0.51414 16.696 1.4677 3.0322 1.6047 4.2806 1.1518 10.493-0.28272 3.8782-0.71755 8.6373-0.96628 10.576-0.411 3.203-0.1589 3.9252 2.7645 7.9191 3.5551 4.8569 3.9475 7.3383 1.6502 10.434-0.84243 1.1352-1.5395 2.8998-1.5491 3.9214-0.0149 1.5928 0.4011 1.8628 2.9198 1.8947 1.6155 0.0205 3.9946 0.54757 5.287 1.1713s3.9772 1.1642 5.9662 1.2011c3.3798 0.0627 3.7523-0.14937 5.6933-3.2408z"/>
   <path id="CO-SUC" d="m499.48 354.64c0.31204-0.006 1.1141-1.1258 1.7825-2.488 0.84628-1.7249 1.795-2.4767 3.1256-2.4767 1.1338 0 2.2652-0.69862 2.7831-1.7185 0.71375-1.4057 0.52698-2.2698-1.026-4.747-1.2355-1.9707-2.0973-4.886-2.4675-8.3466-0.51066-4.7741-0.40572-5.4498 1.0258-6.6045 1.584-1.2777 1.5847-1.3098 0.0972-4.7879-1.8159-4.2462-7.586-10.096-9.9726-10.11-2.4892-0.0148-10.406-17.109-10.406-22.469 0-3.0074-0.5012-4.2795-2.8025-7.1132-1.5414-1.898-3.3188-3.4508-3.9499-3.4508-0.63108 0-2.8431-1.6718-4.9156-3.715-3.0657-3.0225-4.3102-3.715-6.6757-3.715-1.5991 0-3.5523 0.36369-4.3403 0.80821-2.3544 1.3281-3.3601-0.7679-2.4232-5.0505 0.43322-1.9803 0.79628-4.6008 0.8068-5.8234 0.0175-2.0287-0.2716-2.245-3.3097-2.4767-3.242-0.24723-3.3282-0.32931-3.3037-3.1433 0.0138-1.5892 0.27514-4.1897 0.5807-5.7789 0.52539-2.7325 0.37512-3.0116-2.7666-5.1374-3.2229-2.1808-3.3298-2.1972-3.5809-0.5511-0.14231 0.93325 0.29828 2.3456 0.97908 3.1385 1.59 1.8518 1.5615 2.3507-0.3483 6.1064-0.87238 1.7156-1.8104 4.8678-2.0844 7.005-0.31595 2.4638-1.0546 4.3022-2.0183 5.0235-0.83602 0.62571-1.2107 1.3687-0.83258 1.6511 0.37811 0.28241 1.8323 2.0642 3.2316 3.9595 2.1911 2.9678 2.4774 3.8859 2.0631 6.6165-0.46344 3.0547-4.8985 9.3382-6.5912 9.3382-0.43329 0-0.48851 0.7379-0.13136 1.7555 0.36972 1.0534 2.0627 2.3342 4.2332 3.2026 5.4666 2.1871 8.9388 4.7228 10.79 7.8797 0.97524 1.6632 2.302 2.8478 3.1893 2.8478 0.86063 0 1.9063 0.89487 2.4116 2.0639 0.62084 1.4362 1.5156 2.0639 2.942 2.0639 1.1274 0 2.7909 0.54716 3.6968 1.2159 1.3988 1.0327 1.5865 1.8101 1.2458 5.1598-0.54236 5.3317-1.2716 6.5505-4.2854 7.1622-4.3574 0.88444-5.0066 1.6629-3.4607 4.1497 1.0007 1.6098 1.1314 2.5379 0.52551 3.7312-1.0499 2.0677-1.0308 7.377 0.0381 10.609 0.70455 2.1302 1.311 2.5958 3.6554 2.8063 2.3594 0.21184 2.9469 0.66981 3.6591 2.852l0.84839 2.5996 2.9372-1.2432c1.6155-0.68375 2.9372-1.7388 2.9372-2.3445 0-1.8192 1.0832-1.9942 5.5412-0.8948 6.0578 1.4938 10.549 4.7175 11.702 8.3997 0.77982 2.4905 1.225 2.92 2.6182 2.5259 0.92328-0.2611 1.934-0.47981 2.246-0.48601z"/>
   <path id="CO-MAG" d="m544.98 313.14c-2.2309-2.5982-2.6562-5.2152-1.3732-8.4514 1.0916-2.7536 1.0819-2.7796-1.2264-3.314-2.9554-0.68416-3.3677-1.4302-2.2366-4.0467 0.76947-1.78 0.62655-2.6731-0.91918-5.7442-1.4271-2.8354-2.7871-4.1311-6.1736-5.8817l-4.3433-2.2452 2.3352-2.1c1.2844-1.155 2.9125-3.0129 3.6181-4.1286 1.2114-1.9154 1.7036-2.0306 8.8261-2.0649 7.4697-0.036 7.533-0.0532 6.5035-1.772-0.57179-0.95463-1.6519-3.4648-2.4003-5.5781-0.90547-2.557-3.2691-5.8868-7.0652-9.9534-4.1428-4.4379-5.9225-7.016-6.5006-9.4165-0.74159-3.0794-0.56736-3.7489 2.5469-9.7862 4.5028-8.7293 8.7248-14.043 10.161-12.787 1.7886 1.5645 5.7176 0.12619 7.0448-2.5789 0.78999-1.6102 1.7833-2.4079 2.998-2.4079 0.99917 0 2.4454-0.73231 3.2139-1.6274 1.1652-1.357 1.2688-2.161 0.6238-4.8392-0.64455-2.6764-0.53372-3.5405 0.66485-5.1835 0.79108-1.0844 1.4462-2.8075 1.4558-3.8292 0.0142-1.5094-0.41427-1.8575-2.2861-1.8575-3.0397 0-3.6019-1.1718-1.5356-3.2008l1.6784-1.6481-1.7629-3.0064c-2.0777-3.5433-1.8738-7.8815 0.73842-15.715 0.89028-2.6698 1.6187-4.9599 1.6187-5.0892 0-0.12925-2.3272-0.23501-5.1716-0.23501-4.3931 0-6.1734-0.49482-11.827-3.2872-5.0937-2.5159-6.9926-3.0971-8.0924-2.4767-0.79033 0.44581-2.2532 0.82057-3.2508 0.83278-0.99761 0.0122-2.98 1.042-4.4053 2.2885l-2.5915 2.2663 0.80901 5.2948c0.80257 5.2526 0.7889 5.3224-1.7152 8.7604-2.3208 3.1864-2.8864 3.5056-7.0207 3.961-2.4731 0.27244-5.2934 0.14814-6.2674-0.27623-7.3712-3.2117-18.005-7.4568-18.68-7.4568-0.45076 0 0.41719 1.5908 1.9288 3.5351 3.6408 4.6831 4.5319 7.3732 4.5716 13.802 0.0421 6.825-1.3418 11.936-4.3389 16.023-1.4386 1.9618-2.597 4.7664-2.9552 7.1548-0.32403 2.1605-1.5228 6.2811-2.664 9.1568-1.1412 2.8758-2.2502 5.8168-2.4645 6.5356-0.23849 0.80002 0.99972 2.8137 3.1922 5.1914 1.97 2.1365 3.5819 4.3627 3.5819 4.9472 0 0.58451-0.88117 1.9353-1.9582 3.0017-2.7546 2.7276-2.5042 5.8695 1.0776 13.518 2.7994 5.978 3.0049 6.8878 2.6392 11.69l-0.39657 5.2072 3.3436 1.0559c2.6515 0.8373 3.605 1.6693 4.606 4.0193 0.69431 1.6299 2.352 4.3551 3.6838 6.0562 2.1253 2.7145 2.6602 2.9971 4.3733 2.3106 1.162-0.46563 2.4009-0.48262 3.0614-0.042 0.61024 0.40712 2.5527 0.74591 4.3167 0.75286 2.9779 0.0117 3.6354 0.48235 9.1989 6.5841 4.7484 5.2078 6.6835 6.7525 9.3251 7.444 1.8333 0.4799 4.3907 1.1999 5.6831 1.5999 3.6625 1.1337 3.9094 1.026 2.2028-0.96159z"/>
   <path id="CO-ATL" d="m489.37 228.86c0.72486-2.4237 1.3179-5.2494 1.3179-6.2793s1.1198-3.3627 2.4884-5.184c4.3519-5.7915 5.9061-17.048 3.1698-22.958-1.9495-4.2108-5.9009-9.812-6.9477-9.8486-0.49386-0.0172-1.9257 1.2024-3.1818 2.7103s-2.8818 2.9835-3.6126 3.2791c-0.73079 0.29558-1.7001 1.3965-2.154 2.4464-0.45387 1.0499-2.4775 2.9918-4.497 4.3152s-5.1393 3.6511-6.9331 5.1726l-3.2613 2.7664 1.8267 3.3897c1.8148 3.3676 1.8172 3.4084 0.36315 6.2679l-1.4636 2.8782 4.0008 3.8041c5.5796 5.3052 6.7694 6.0929 8.488 5.6192 1.0034-0.27656 2.6161 0.64609 4.8466 2.7728 1.8386 1.753 3.5428 3.2025 3.7873 3.2211 0.24442 0.0186 1.0375-1.9492 1.7623-4.3729z"/>
   <path id="CO-LAG" d="m594.96 224.22c1.4523 0.439 5.1901 0.79818 8.3063 0.79818 6.6447 0 6.3764 0.27614 10.829-11.145 5.8006-14.879 10.162-23.006 14.992-27.932 4.025-4.1051 4.93-4.6467 7.7897-4.6614l3.2356-0.0166 7.7098-15.561 7.7098-15.561 17.644-6.1099c9.7041-3.3604 17.903-6.4814 18.219-6.9354 0.3165-0.45406 0.58085-1.8472 0.58744-3.0959 0.0104-1.9596 0.3275-2.2703 2.3174-2.2703 1.3158 0 2.7447-0.63634 3.3289-1.4825 0.56292-0.81536 2.3452-2.3317 3.9607-3.3696s2.9363-2.5069 2.9352-3.2645c-0.001-0.75757-1.2348-3.5322-2.7414-6.1657-1.5067-2.6336-2.7394-5.4862-2.7394-6.3391 0-2.4017-1.8711-3.8429-7.5961-5.851-2.8985-1.0167-5.8117-2.5373-6.4738-3.3792-0.82783-1.0527-2.7325-1.6947-6.0991-2.0556-4.8666-0.52178-4.8954-0.51234-4.8954 1.601 0 2.1619-2.2844 3.713-3.9093 2.6545-0.43465-0.28313-0.79027-0.088-0.79027 0.43356 0 1.1702-3.169 4.0376-4.5038 4.075-0.53849 0.0151-0.97907-0.53293-0.97907-1.2179 0-1.0073-0.27838-1.0621-1.4565-0.28662-1.3591 0.89459-1.3771 1.1718-0.2695 4.1437 0.65284 1.7517 1.0439 3.2751 0.86904 3.3853-0.17486 0.11017-1.4914 1.0678-2.9256 2.1281-2.295 1.6966-2.882 1.808-4.8954 0.929-2.4389-1.0648-2.8719-2.3292-1.3478-3.9356 1.1005-1.16-0.70349-1.3295-4.8489-0.45561-2.5085 0.52879-2.5326 0.57888-2.0531 4.2662 0.72876 5.604-3.5198 14.059-9.712 19.328-4.0633 3.4573-6.0432 4.377-17.349 8.0588-11.65 3.7939-13.071 4.4679-16.305 7.7346-1.9483 1.9682-5.6572 5.2578-8.242 7.3103s-6.2276 5.4792-8.0952 7.6149c-2.9885 3.4176-4.0214 4.0237-8.6159 5.056-2.8712 0.64512-7.5588 1.4115-10.417 1.703l-5.1965 0.53004-1.657 6.0108c-2.0653 7.4918-2.0923 11.582-0.0991 15.028 1.763 3.0476 3.1699 3.2824 8.8267 1.4732 3.4757-1.1116 4.0829-1.0662 9.0075 0.67423 4.6675 1.6495 5.2505 2.087 5.0211 3.7678-0.15805 1.158 0.0586 1.6944 0.55409 1.3716 0.44751-0.29151 1.3808 0.62591 2.0739 2.0387 0.69315 1.4128 2.4043 3.0726 3.8026 3.6884 5.0159 2.2089 5.2194 9.7925 0.33416 12.455-1.2085 0.65869-2.1973 1.4977-2.1973 1.8644 0 1.2975 1.0064 1.6997 2.3527 0.9403 0.84805-0.47838 2.3617-0.4674 4.004 0.029z"/>
  </g>
  <g id="CO-SAP" stroke="#b3b3b3" stroke-width=".40207" fill="#b3b3b3">
   <path id="path2232" d="m216.99 193.93c1.7219-2.3072 4.537-7.9988 10.195-20.612 3.5966-8.0177 3.9276-9.2881 4.4099-16.924 0.56498-8.9453 2.6749-15.403 6.359-19.463 2.6059-2.8717 3.465-6.486 3.465-14.579v-6.8088l2.7317-1.8651c3.1517-2.1519 3.0737-1.4867 1.6206-13.807-0.77699-6.5881-1.4891-9.7527-2.3427-10.411-0.67451-0.51985-1.2264-1.3398-1.2264-1.8221 0-1.1496 4.9032-2.8387 6.4382-2.2179 0.83377 0.33722 1.3097-0.15244 1.5762-1.6216 0.33933-1.8709-0.10639-2.3577-4.0121-4.3821-2.4315-1.2603-4.507-2.9226-4.6471-3.7221-0.32208-1.8374 1.3378-1.8571 4.9164-0.0584 3.5677 1.7932 4.1518 1.0544 2.0289-2.5662-1.6911-2.884-1.6109-4.5991 0.21515-4.5991 0.51714 0 1.3686-0.72295 1.8922-1.6066 1.1483-1.9381 5.5493-3.3359 10.522-3.3422 6.1075-0.0077 8.3839-1.8293 3.6543-2.9242-1.364-0.31577-3.1928-1.274-4.064-2.1295-0.87117-0.85546-2.5222-1.5554-3.6689-1.5554-1.4142 0-2.6896-0.83212-3.9644-2.5867-1.0337-1.4227-2.4302-3.2567-3.1032-4.0755-0.67306-0.81883-1.9022-2.4411-2.7315-3.605-0.82928-1.1639-2.0409-2.0994-2.6926-2.0788-0.65165 0.02056-4.8815 3.7356-9.3996 8.2556s-8.6191 8.2182-9.1133 8.2182c-1.6241 0-3.4284 4.0038-3.4284 7.6077 0 7.0946-2.0033 14.26-5.2922 18.929-1.7131 2.432-3.8667 5.1296-4.7858 5.9946-2.0669 1.9453-2.2238 6.7427-0.40462 12.37 1.2127 3.7512 1.2011 3.9814-0.27306 5.4289-0.93875 0.92181-1.7158 3.0811-1.9914 5.5337-0.24857 2.2121-1.0017 5.6865-1.6737 7.7207-1.3382 4.0513-1.6356 7.7659-0.56597 7.0691 0.37322-0.24312 1.2774 0.25543 2.0094 1.1079 0.73193 0.85245 2.5414 1.7893 4.021 2.0818 1.4796 0.29256 2.6902 0.91103 2.6902 1.3744 0 1.5225-1.6025 4.0361-2.5732 4.0361-0.65473 0-0.99832 2.0601-1.1015 6.6045-0.0825 3.6325-0.24585 7.6261-0.36299 8.8748-0.11715 1.2487 0.0192 4.5268 0.30289 7.2847l0.51588 5.0144-3.482 4.474c-2.0734 2.6641-3.6578 5.6452-3.9166 7.369-0.239 1.5922-0.56684 3.5793-0.72854 4.4157-0.16169 0.83641 0.91628 3.8415 2.3955 6.6779 2.5192 4.8306 2.8596 5.1509 5.376 5.0588 1.8523-0.0678 3.1596-0.73212 4.2098-2.1395z"/>
   <path id="path2206" d="m298.94 127.15c0.85968-1.0012 3.3948-1.9714 6.8537-2.623 4.8804-0.91927 5.7521-1.3785 7.8571-4.1393 2.5743-3.3764 7.0195-5.676 11.01-5.6959 3.0104-0.015 3.6402-0.423 5.8831-3.8103 1.3183-1.9908 1.933-4.7838 2.6759-12.158l0.96452-9.5737 2.965-1.2504c1.6308-0.68774 2.965-1.8077 2.965-2.4888 0-1.0851-0.39115-1.0734-3.1609 0.0947-2.9593 1.248-3.259 1.2394-4.6996-0.13463-2.0694-1.974-1.9368-3.2322 0.46207-4.3843 1.8858-0.90564 1.9308-1.066 0.78327-2.7929-1.6277-2.4494-1.6568-10.785-0.0426-12.197 1.5584-1.3632 1.4896-2.4767-0.15296-2.4767-1.7458 0-5.7215-4.0526-5.7215-5.8323 0-0.76757-0.52871-1.8581-1.1749-2.4233-0.96127-0.84087-1.1749-0.78705-1.1749 0.29597 0 0.72804-0.8646 1.5524-1.9213 1.832-1.7163 0.45403-1.9462 1.0043-2.154 5.1574l-0.23264 4.6491-4.6342 3.2277-4.6342 3.2277-2.6168-1.4853c-2.5742-1.4612-2.678-1.453-6.3818 0.50548-3.2354 1.7108-4.1098 2.7457-6.2165 7.357-3.2987 7.2206-4.6385 11.834-5.1542 17.75-0.2375 2.7244-0.60283 5.7653-0.81184 6.7576-0.21119 1.0027 0.11765 2.2396 0.74018 2.7842 0.61611 0.53893 1.1202 1.5009 1.1202 2.1378 0 0.63683 0.70494 3.2719 1.5665 5.8556 1.8936 5.6787 1.9091 5.9933 0.29372 5.9933-1.0164 0-1.172 0.54052-0.77271 2.6831 0.44684 2.3974 2.2487 4.747 3.6404 4.747 0.28169 0 1.1261-0.71504 1.8765-1.589z"/>
   <path id="path2189" d="m317.37 52.63c1.0959-1.2398 1.3193-1.9897 0.71085-2.3861-0.64525-0.42032-0.55169-1.6162 0.34297-4.3837 1.2016-3.7171 1.1925-3.8056-0.39365-3.8056-4.0478 0-7.8477 1.9655-9.0844 4.6988-1.2089 2.672-1.1861 2.7891 1.0136 5.209 2.6637 2.9304 5.2079 3.1596 7.4106 0.66754z"/>
  </g>
  <path id="CO-ANT" d="m432.9 528.83c2.3581-0.94466 6.0275-1.6569 8.5376-1.6571l4.4021-0.00041-0.0941-6.3981c-0.0878-5.9668 0.0115-6.3794 1.4724-6.1202 0.86159 0.15286 2.2722 0.96695 3.1346 1.8091 1.5275 1.4915 1.6188 1.4908 3.5247-0.0261 1.9441-1.5474 1.9703-1.5434 4.1106 0.61566 1.6448 1.6593 2.1599 2.9658 2.1789 5.5271 0.0137 1.8448 0.45429 3.9436 0.97908 4.6641 1.3569 1.8628 4.2983 3.381 4.8215 2.4887 0.24075-0.41059 2.3702-2.0985 4.7322-3.751 3.0569-2.1386 4.2423-3.4736 4.1136-4.6324-0.14706-1.3233 1.065-2.1641 6.4768-4.493 7.8697-3.3866 8.8122-3.4799 10.461-1.0353l1.2525 1.8575 2.5955-3.1362c1.8987-2.2942 2.9732-2.9835 4.0021-2.5673 1.0908 0.4412 1.3491 0.21175 1.1508-1.0224-0.14068-0.87518 0.50759-2.6141 1.4406-3.8643 2.4289-3.2546 3.7331-10.175 2.3441-12.438-2.5935-4.2253-2.3061-5.7512 2.0531-10.902 2.2671-2.6789 4.736-5.8924 5.4864-7.141 0.75037-1.2487 1.8781-2.2703 2.5062-2.2703 0.90224 0 1.0488-0.82291 0.69868-3.9214-0.24376-2.1568-0.60117-4.4483-0.79426-5.0922-0.56489-1.8839 4.3767-6.672 6.8858-6.672 1.4581 0 2.6016-0.68122 3.4592-2.0608 0.70462-1.1335 2.6507-3.1224 4.3246-4.4199s4.2938-4.0851 5.8222-6.1948c1.7126-2.364 3.3948-3.8358 4.3844-3.8358 2.5832 0 6.1553-2.644 6.1553-4.556 0-0.9478-1.062-3.2454-2.3601-5.1058-2.015-2.8879-2.244-3.7042-1.5665-5.5825 2.0934-5.8033 0.72127-5.2883-6.5614 2.4628l-7.3549 7.8281h-3.9648c-3.8083 0-4.059-0.14435-6.3522-3.6574-2.1497-3.2932-2.3874-4.2851-2.3874-9.9618 0-5.4528 0.26452-6.67 1.9582-9.0104 2.0868-2.8838 2.3859-3.7884 1.2523-3.7884-0.38825 0-1.4338 1.3003-2.3234 2.8895-0.88961 1.5892-2.2462 2.8885-3.0146 2.8872-0.76842-0.001-2.8933-1.3944-4.722-3.0959l-3.3249-3.0936 0.83262-3.715c0.45794-2.0433 0.63965-4.7447 0.4038-6.0033-0.39646-2.1155-0.10487-2.4393 3.8629-4.2888 2.3605-1.1003 4.2918-2.2247 4.2918-2.4986 0-0.27394-1.1207-0.99473-2.4904-1.6018-2.7965-1.2393-4.5258-5.6728-4.5471-11.657-0.0143-4.0239-2.8088-7.2424-9.2176-10.616-2.263-1.1913-4.5507-2.9021-5.0838-3.8019-1.414-2.3864-2.0461-2.0505-3.6738 1.9518l-1.4591 3.5878-5.1664 0.50851c-2.8416 0.27967-5.8702 0.90545-6.7302 1.3906-1.1689 0.65936-2.1215 0.57813-3.7724-0.3217-2.1759-1.186-2.2601-1.1412-5.6857 3.0254-1.9124 2.3261-4.0522 5.208-4.7552 6.4043-0.70294 1.1963-2.3772 2.6549-3.7205 3.2414-1.9273 0.84141-2.4424 1.5631-2.4424 3.4216 0 3.2846-3.4383 5.2487-6.2829 3.589-1.0678-0.62299-2.1487-1.1459-2.402-1.162-0.25339-0.0161-2.192 3.3399-4.308 7.4577s-5.5375 9.6904-7.6033 12.383l-3.7561 4.8965h-15.23-15.23l-3.6715-7.6364c-2.0508-4.2655-3.9157-9.4586-4.2248-11.764-0.76365-5.6973 1.1706-15.112 3.5844-17.447 1.404-1.358 1.8648-2.7745 2.0145-6.1917 0.25904-5.9144 2.8338-11.874 8.533-19.749 4.5493-6.2866 5.689-9.6 4.1148-11.964-0.31651-0.47523-2.7784-2.6331-5.4709-4.7952-4.1138-3.3035-4.8954-4.3319-4.8954-6.4412 0-2.5169-2.092-8.1302-3.0265-8.1206-0.27401 0.003-4.4867 3.1683-9.3615 7.0344l-8.8633 7.0293-3.1742-0.90087c-3.0662-0.87024-3.2499-0.80766-5.3994 1.8403-2.2667 2.7923-2.9735 4.523-1.439 3.5233 1.2749-0.83049 6.1994 2.2716 6.1994 3.9052 0 0.78231 0.52392 1.7314 1.1643 2.1091 0.84302 0.49726 1.4943 3.8684 2.3603 12.218 0.65784 6.3422 1.3819 12.065 1.609 12.718 0.22713 0.65285-0.39443 3.1274-1.3812 5.4989-1.5082 3.6247-2.252 4.4572-4.6664 5.2237-2.4906 0.79063-3.2711 0.67091-5.8745-0.90109-1.6512-0.99709-3.1378-1.9196-3.3035-2.05-0.78459-0.61767 2.0181-5.6785 4.5258-8.172 2.1989-2.1865 2.5994-3.0054 1.8542-3.7909-0.74519-0.78544-1.264-0.7029-2.4014 0.38209-0.79799 0.76117-1.826 1.384-2.2845 1.384-0.97053 0-1.7845 1.923-1.7845 4.216 0 2.5014-2.9636 10.802-4.7907 13.417-2.2795 3.2634-1.3297 4.7708 6.8352 10.849 4.7077 3.5044 7.9609 6.7646 11.121 11.145 3.7001 5.1294 4.9218 6.2625 7.121 6.6045 1.93 0.30011 3.481 1.4422 5.6819 4.1839 3.4179 4.2577 3.8342 7.0534 2.2048 14.804-1.5306 7.2806-1.2476 6.9256-4.0875 5.1263-1.4984-0.9494-4.7014-1.8115-7.786-2.0956l-5.2404-0.48269 1.0659 3.1844c0.99834 2.9824 0.95493 3.2943-0.68461 4.9177-1.1182 1.1072-2.7833 1.7334-4.6097 1.7334-3.1907 0-4.4829 1.5924-4.4779 5.5183 0.004 2.9828 1.9282 6.1848 7.0266 11.692 4.3325 4.6795 4.4991 5.4414 2.7545 12.599-0.38771 1.5906 0.12448 3.3645 1.9628 6.7976l2.4874 4.6454 4.8277-0.12489c2.6552-0.0687 5.5326-0.58561 6.3942-1.1487 0.86159-0.56309 4.915-1.1511 9.0075-1.3066l7.441-0.2828 0.23749 5.3345c0.2788 6.2624 1.004 7.4617 4.5118 7.4617 1.4296 0 2.7475 0.27862 2.9287 0.61917 0.1812 0.34054-0.009 3.6939-0.42192 7.4519-0.6364 5.7871-0.55988 7.1407 0.50005 8.8457 0.68828 1.1072 1.2593 3.2335 1.2688 4.7252 0.01 1.4917 0.70667 3.6409 1.5491 4.776s1.5413 2.8069 1.553 3.715c0.0306 2.3751 5.734 2.5895 11.152 0.4192z" stroke="#b3b3b3" stroke-width=".40207" fill="#b3b3b3"/>
  <rect id="rect3409" height="168" width="81" stroke="#ccc" y="34.861" x="193.29" fill="none"/>
  <rect id="rect4211" height="108" width="73.5" stroke="#ccc" y="34.861" x="280.29" fill="none"/>
 </g>
</svg>
